<svg xmlns="http://www.w3.org/2000/svg" viewBox="0 0 42.95 42.91"><defs><style>.cls-1{fill:#afa694;}</style></defs><g id="Layer_2" data-name="Layer 2"><g id="nav"><path class="cls-1" d="M22.2,0A21.56,21.56,0,0,0,0,21.29C-.12,32.77,9.28,42.65,20.54,42.9,33,43.18,42.71,34,43,21.74,43.17,10.18,33.65.21,22.2,0ZM21.15,40.75a19.26,19.26,0,1,1,1.5-38.49c9.93.4,18.44,9.51,18.13,19.41C40.45,32.48,31.5,41.18,21.15,40.75Z"/><path class="cls-1" d="M33.17,16.87a6.91,6.91,0,0,0-6.94-7.13c-3.16-.08-6.33-.08-9.49,0A6.79,6.79,0,0,0,9.89,16.1,97.2,97.2,0,0,0,9.91,27a6.73,6.73,0,0,0,6.69,6.15c3.28,0,6.55,0,9.82,0a6.83,6.83,0,0,0,6.73-6.65c.06-1.66,0-3.33,0-5h0C33.18,20,33.19,18.43,33.17,16.87ZM30.9,26a4.74,4.74,0,0,1-4.95,5c-2.95,0-5.89,0-8.84,0a4.74,4.74,0,0,1-5-5.08c0-1.45,0-2.89,0-4.34s0-2.9,0-4.34c0-3.08,1.84-5.05,5-5.16,2.94-.1,5.89-.09,8.84,0,3.19.11,5,2,5,5.27C30.93,20.17,30.94,23.06,30.9,26Z"/><path class="cls-1" d="M21.58,15.79a5.82,5.82,0,0,0-.09,11.64,5.71,5.71,0,0,0,5.83-5.76A5.8,5.8,0,0,0,21.58,15.79Zm-.08,9.47A3.63,3.63,0,0,1,21.41,18a3.63,3.63,0,1,1,.09,7.26Z"/><path class="cls-1" d="M27.28,13.89c-.33.56-1,1.18-.92,1.65s.91.89,1.41,1.33c.41-.47,1.13-.93,1.14-1.41s-.64-1.06-1-1.6Z"/></g></g></svg>