<svg xmlns="http://www.w3.org/2000/svg" viewBox="0 0 1367 173.28"><defs><style>.cls-1{fill:#eae6da;}</style></defs><g id="Layer_2" data-name="Layer 2"><g id="Layer_2-2" data-name="Layer 2"><path class="cls-1" d="M1367,0l-1,111c-11.33,1.32-23.07,2.21-34.32.7a53.53,53.53,0,0,1-17.63-5.22c-6.48-3.38-11.15-9-19.53-8.86-7,.09-11.85,3.55-17.43,6.48-2,1-2.73,1.55-4.9,1.2-3.65-.57-7.18-2.59-10.63-3.65-15.17-4.7-29.44,2.44-42.2,8.71a73.81,73.81,0,0,1-13.91,5.2c-2.89-.52-5.89-.93-9.09-1.52-.36-.07-2.57-.84-4-1.38l.39-.15c1.52-.61,3.13-1,4.63-1.71,8.22-3.64,13.29-12,8.08-19.21a13.8,13.8,0,0,0-5.22-4.29,15.25,15.25,0,0,0,1.64-7c-.11-7.43-6.2-14.75-15-16.25-5.21-.88-10,1.24-11.69,5.61q-1.14,3-2.41,5.91a39.57,39.57,0,0,0-19-3,33.91,33.91,0,0,0-14.53,4.62c-5,3-8.8,7.18-13.6,10.42-6.89,4.64-16.33,5.81-24.8,6.75-10.66,1.19-21.46,1.88-31.49,5.39s-16.48,9.69-23.73,16.32c-2.39,2.19-5,4.68-8.47,5.52-5,1.2-10.74-1.47-15.29-3-11.63-4-23.73-5.39-35.87-1.92-9.48,2.71-17.81,7.53-23.87,14.14a8.28,8.28,0,0,0-3.48-1.45c-28.32-4.72-56,14.86-58.28,38.12-8.82-1.36-17.64-2.28-26.59-1a39.75,39.75,0,0,0-15.06,5.64q-44.72,1.32-89.45,1.17-14.06-2.16-28.13-4.3c-34.51-5.2-69.15-9.29-104.23-10.27-34.2-.95-68.42.2-102.63.56-11.83.13-23.69.15-35.54,0-20.16-2.07-40.26-4.55-60.13-8.12-14.88-2.67-29.31-6.64-44.1-9.56a109.57,109.57,0,0,0-44.76.24c-14.76,3.09-29.45,5.45-44.27,7q.13-12,.11-23.9,0-11.62-.2-23.24c-.11-7.71.3-15.65-.64-23.33-.91-7.41-7-12.41-15.58-13.66-7.94-1.17-17.19-1.28-23.56,3.52S258.5,80,258.49,86.58c0,7.72,0,15.45,0,23.18q0,20.74,0,41.48-5.17,0-10.35-.07,0-17.37,0-34.73l0-25.11c0-6.88.75-14.27-1.44-21-5-15.42-25.69-18.55-39.21-8.68-13.27,9.7-12.61,28.15-14.11,41.63-1.68,15.1-2.82,30.24-3,45.41l-8.25-.52c-22.67-1.43-45.53-3-68.39-3.64a89.69,89.69,0,0,0-10.09-12.45,66.43,66.43,0,0,0-29.94-17.44,61.67,61.67,0,0,0-17.09-2.14,67.15,67.15,0,0,0-10.61,1.17s-1.38.36-2.26.53c-.14-.28-.61-.74-.68-1-1.39-4.14-5.65-8.92-9-12a28.07,28.07,0,0,0-16.44-7.32c-6-.56-11.37,1.13-17.21,1.81l-.38.05H0L.5,47.9V31H.68L1,0Z"/></g></g></svg>