<?xml version="1.0" encoding="UTF-8"?>
<svg xmlns="http://www.w3.org/2000/svg" xmlns:xlink="http://www.w3.org/1999/xlink" viewBox="0 0 48 48" width="48px" height="48px">
<g id="surface54803273">
<path style=" stroke:none;fill-rule:nonzero;fill:rgb(60.000002%,56.078434%,49.411765%);fill-opacity:1;" d="M 6 6 C 4.894531 6 4 6.894531 4 8 L 4 40 C 4 41.105469 4.894531 42 6 42 L 10 42 C 11.105469 42 12 41.105469 12 40 L 12 8 C 12 6.894531 11.105469 6 10 6 Z M 30 6 C 22.28125 6 16 12.28125 16 20 C 16 27.71875 22.28125 34 30 34 C 37.71875 34 44 27.71875 44 20 C 44 12.28125 37.71875 6 30 6 Z M 30 6 "/>
</g>
</svg>
