<svg xmlns="http://www.w3.org/2000/svg" viewBox="0 0 97 97.42"><defs><style>.cls-1{fill:#afa694;}.cls-2{fill:#fff;}</style></defs><g id="Layer_2" data-name="Layer 2"><g id="content"><path class="cls-1" d="M24.62,21.94a72,72,0,0,0-21,26.58A38.44,38.44,0,0,0,9.51,90.16l.26.3a18,18,0,0,0,12.18,6c10.87.77,32.55,1.89,42.63-.51,0,0,7.2.29,18.63-35.07,1.41-4.37,3-9.39-4.51-17.6a13.12,13.12,0,0,1-3.55-9.4c.11-2.49,3.55-3.47,6.13-3.76,5.89-.65,12-3.27,13.86-8.19s-10.59-12.77-6-14.73S97,0,97,0,81.28,4.59,76.69,5.9c0,0,1.43,4.27,2.7,7.3a1.46,1.46,0,0,1-1.58,2c-5.66-.9-18,1-21.42,6.41A10.2,10.2,0,0,0,57,34.06s-15,1-16,6.22a40.84,40.84,0,0,1-2,7.21L21,50.44S17.74,31.44,24.62,21.94Z"/><path class="cls-2" d="M52.45,88.24c-4.22.65-10.2-.31-12.84-3.67a8.71,8.71,0,0,1-2-5.39c0-6.48,6.47-24,15.54-23.31s11.65,7.77,11.65,7.77,2,4.58.65,13.59C64.46,83.34,62.05,86.77,52.45,88.24Z"/><path class="cls-2" d="M19.38,78.93c1.49,3,.68,7.53-1.31,7.53S13.76,83,12.5,79.26c-1.31-3.93.33-6.23,1.64-6.23C17.42,73,17.42,75,19.38,78.93Z"/><path class="cls-1" d="M57.17,77.75c-.53,3.08-3,7-4.05,6.43s-.79-4.23.21-8c1-3.88,2.94-5.51,3.64-5.16C58.73,71.93,57.86,73.7,57.17,77.75Z"/></g></g></svg>