<svg xmlns="http://www.w3.org/2000/svg" viewBox="0 0 167.48 318.09"><defs><style>.cls-1{fill:#504556;}.cls-2{fill:#fff;}.cls-3{fill:#494646;}.cls-4{fill:#afa694;}</style></defs><g id="Layer_2" data-name="Layer 2"><g id="content"><path class="cls-1" d="M99.91,317.91c-10.22.6-22.16-1.21-34-3.83-5.43-1.21-10.7-3.13-16-4.7-2.09-.62-4.26-1-6.27-1.82-2.27-.9-4.38-2.19-6.59-3.24-6.71-3.22-13.44-6.4-20.15-9.61a27.57,27.57,0,0,1-8.5-6.45c-4.18-4.6-5.89-10.14-6.76-16.09-1.19-8.14-.4-16.31-.47-24.47-.08-8.9,0-17.81-.51-26.68a537.06,537.06,0,0,1,.27-57.59c.81-14.87,1.22-29.76,1.89-44.64a124.83,124.83,0,0,1,1.12-14.5C5.3,95.88,9.86,88.81,14.34,81.77A44.69,44.69,0,0,1,24.78,70.48C31,65.63,34.45,59.06,35.63,51.3c.6-4,1.07-8,1.54-11.94.17-1.41,0-2.47-2-2.42-.53,0-1.55-1.41-1.57-2.19q-.18-6.57.08-13.13c.1-2.51.58-5,.88-7.52.14-1.17.55-2,1.94-2a2.35,2.35,0,0,0,1-.2C41.22,10,45,8.28,48.56,6.22c6-3.44,12.65-4.19,19.29-5C71.63.75,75.43.37,79.23.27,86.76.06,94.3-.11,101.83.08c5.14.13,10.27.77,15.38,1.41a35.56,35.56,0,0,1,7.56,1.79,127.93,127.93,0,0,1,12.88,5.28,59.17,59.17,0,0,1,9,5.79,4.67,4.67,0,0,1,1.41,3.24c.14,4.29,0,8.58,0,12.87,0,1.11.51,2.21.53,3.32s.08,2.46-.5,3.26c-1.43,2-1,4.06-1,6.18,0,2.42-.73,4.86-.56,7.24a142,142,0,0,0,1.8,16.37,27,27,0,0,0,7.28,13.62,121.48,121.48,0,0,1,7.67,9.5c2.73,3.53,2.6,8,3.6,12,1.18,4.78,0,9.52-.1,14.25-.5,19-1.6,38.09-2,57.15-.3,14.11.38,28.24.17,42.35-.26,16.8-.85,33.6-1.6,50.39a152.59,152.59,0,0,1-2.28,22.09,58.19,58.19,0,0,1-5.52,15.21c-2.07,4.07-6.74,5.57-10.79,7C125.32,317.38,122.31,318.65,99.91,317.91ZM40.2,39.43c-.75,4.74-1.09,9.12-2.2,13.31a46.24,46.24,0,0,1-4.75,12.31c-2,3.33-5.48,5.81-8.27,8.69-2.34,2.42-5,4.66-6.9,7.38-5,7.09-9.87,14.41-11.42,23.17a111.22,111.22,0,0,0-1.23,14.26c-.72,15.87-1.17,31.75-2,47.61-1,17.86-.88,35.69-.26,53.57.56,15.78.29,31.6.4,47.4a2.46,2.46,0,0,0,.21.86c3-2.19,5.71-4.75,8.9-6.4a128.54,128.54,0,0,1,16.4-7.22,87.91,87.91,0,0,1,16.28-4.27c8.5-1.26,17.11-1.89,25.69-2.57,10.74-.84,21.45-.63,32,2.13,9.82,2.58,19.68,5,29.42,7.86,3.45,1,6.58,3.11,9.85,4.74a34.23,34.23,0,0,1,12.12,10.81c1.63,2.21,3,4.62,4.48,6.93l.62-.25c.48-4.82,1.27-9.63,1.39-14.45.6-22.87,1.66-45.75,1.3-68.61-.3-18.88.92-37.68,1.16-56.52.16-12.46.83-24.91.86-37.37,0-3.77-.39-7.83-2.88-11.09s-5.06-6.76-7.92-9.85a31.84,31.84,0,0,1-7.34-13.4c-2-7.34-2.23-14.9-2.15-22.48a26.51,26.51,0,0,0-.32-3c-2.41,1.13-4.35,2.45-6.48,2.94-4.1.94-8.31,1.51-12.5,2-4.6.59-9.23,1-13.86,1.42-10.55,1-21.1,1.92-31.55-.86a30.86,30.86,0,0,0-4-.51c-3.28-.42-6.62-.62-9.85-1.32C56.88,44.79,47.86,44.83,40.2,39.43ZM101.69,315.2c17.11,1.78,32.78-2.52,47.81-9.92a10.2,10.2,0,0,0,5.32-5.49c1.07-2.68,2-5.42,2.9-8.17a12.7,12.7,0,0,0-.37-8.72A35.56,35.56,0,0,0,155,279c-3.65-6.53-8.37-12-15.38-15.06a23.83,23.83,0,0,1-3.84-1.74c-4.12-2.78-8.78-4.07-13.51-5.24-4.38-1.09-8.76-2.2-13.15-3.27-10.18-2.46-20.4-4.54-31-3.81-7.25.51-14.5.95-21.73,1.66-5.4.52-10.78,1.27-16.13,2.18A72.42,72.42,0,0,0,19,261.17a129,129,0,0,0-11.26,7,4.09,4.09,0,0,0-1.32,2.08,16.58,16.58,0,0,0,7.23,19.32,126.77,126.77,0,0,0,16.86,8.61c5.87,2.45,11.08,6.23,17.46,7.7s12.18,4.13,18.42,5.57C78,314.17,89.84,315.88,101.69,315.2ZM36.29,34.57a6.82,6.82,0,0,1,1.79.46c.59.34,1,1,1.59,1.35,5.74,3.06,11.53,6,18.24,6.22a36.41,36.41,0,0,1,4.59.79c7.78,1.3,15.56,2.61,23.35,3.88a17.34,17.34,0,0,0,3.38.18c7.67-.27,15.35-.76,23-.8,7,0,13.7-1.6,20.48-2.87,1.38-.26,2.91-.13,4.14-.69,2.52-1.14,5.17-2.17,7-4.48.84-1,2.34-1.84.68-3.4-.21-.2-.17-.81-.08-1.19a27.16,27.16,0,0,0,1.06-4.5c.15-3.89,0-7.79,0-12.37a14.84,14.84,0,0,0-2.74,1.92c-3.83,4.8-9.32,6.68-14.78,8.75-3.82,1.45-7.75,1.18-11.66,1.52A124.48,124.48,0,0,1,84.77,27.8c-5.7-1-11.35-2.23-17-3.38-5.39-1.08-10.85-1.93-16.15-3.37A102.16,102.16,0,0,1,39,16.31c-1.56-.66-2.14-.23-2.35,1.12a28.32,28.32,0,0,0-.29,4.22C36.27,25.94,36.29,30.23,36.29,34.57Zm106.23-20a56.57,56.57,0,0,0-6.18-3.76c-4-1.86-8.15-3.49-12.31-5a33.33,33.33,0,0,0-7.14-1.72c-5.18-.64-10.39-1.3-15.6-1.45-7.17-.2-14.36,0-21.54.19-3.94.11-7.89.5-11.8,1-6.07.77-12.18,1.42-17.72,4.45-2.45,1.35-5.11,2.3-7.64,3.5a29,29,0,0,0-2.94,1.82,8.44,8.44,0,0,0,1.45.94C47,16.41,52.92,18.31,58.87,20c.81.24,1.87-.3,2.8-.53,5.12-1.23,10.19-2.84,15.37-3.59,4.37-.64,8.88-.16,13.32-.39,13.24-.69,26.23-.25,38.15,6.7,2.94,1.71,6.83.79,9.25-1.85C139.47,18.52,141,16.47,142.52,14.56ZM65.59,20.62l.08.77c2.06.39,4.15.64,6.16,1.18A133.38,133.38,0,0,0,105.5,27c5.63,0,11.26-.18,16.89-.48,1.65-.09,3.27-.86,5.31-1.43a44.34,44.34,0,0,0-23.5-7q-13.32-.21-26.64.41C73.55,18.69,69.58,19.88,65.59,20.62Z"/><path class="cls-2" d="M40.2,39.43c7.66,5.4,16.68,5.36,25.16,7.23,3.23.7,6.57.9,9.85,1.32a30.86,30.86,0,0,1,4,.51c10.45,2.78,21,1.85,31.55.86,4.63-.43,9.26-.83,13.86-1.42,4.19-.53,8.4-1.1,12.5-2,2.13-.49,4.07-1.81,6.48-2.94a26.51,26.51,0,0,1,.32,3c-.08,7.58.11,15.14,2.15,22.48a31.84,31.84,0,0,0,7.34,13.4c2.86,3.09,5.37,6.5,7.92,9.85s2.89,7.32,2.88,11.09c0,12.46-.7,24.91-.86,37.37-.24,18.84-1.46,37.64-1.16,56.52.36,22.86-.7,45.74-1.3,68.61-.12,4.82-.91,9.63-1.39,14.45l-.62.25c-1.49-2.31-2.85-4.72-4.48-6.93a34.23,34.23,0,0,0-12.12-10.81c-3.27-1.63-6.4-3.73-9.85-4.74-9.74-2.86-19.6-5.28-29.42-7.86-10.52-2.76-21.23-3-32-2.13-8.58.68-17.19,1.31-25.69,2.57a87.91,87.91,0,0,0-16.28,4.27,128.54,128.54,0,0,0-16.4,7.22c-3.19,1.65-5.91,4.21-8.9,6.4a2.46,2.46,0,0,1-.21-.86c-.11-15.8.16-31.62-.4-47.4-.62-17.88-.7-35.71.26-53.57.85-15.86,1.3-31.74,2-47.61a111.22,111.22,0,0,1,1.23-14.26C8.21,95.53,13,88.21,18.08,81.12c1.93-2.72,4.56-5,6.9-7.38,2.79-2.88,6.23-5.36,8.27-8.69A46.24,46.24,0,0,0,38,52.74C39.11,48.55,39.45,44.17,40.2,39.43Zm-1,95.08h0c0,6.42.14,12.84,0,19.25-.2,7.4-.58,14.81-1.09,22.19a7.67,7.67,0,0,0,1.61,5.28c1,1.37,2,2.76,3.06,4,2.71,3.12,4.54,7,8.14,9.38,2.63,1.74,5,3.82,7.6,5.66A35.82,35.82,0,0,0,76,206.77a216.21,216.21,0,0,0,23.06.68,45.54,45.54,0,0,0,10-1.44c3.79-.89,7.42-2.41,11.2-3.31,4.91-1.17,8.51-4.32,12-7.53a5.77,5.77,0,0,0,1.48-3.7c.17-3-.12-6.05-.07-9.07.13-6.7.56-13.4.49-20.1-.12-11.09,1-22.07,2.14-33.07a3.73,3.73,0,0,0-1.06-2.51c-.27-.29-1.39,0-2,.28-4.07,1.74-8,4.41-12.21,5.13a160.4,160.4,0,0,1-25.84,2.52A75,75,0,0,1,73.85,132c-10.37-3.06-20.78-6.43-30.06-12.34a3.43,3.43,0,0,0-1-.4c-2.78-.75-3.63-.11-3.64,2.74Z"/><path class="cls-2" d="M101.69,315.2c-11.85.68-23.66-1-35.3-3.72C60.15,310,54.2,307.35,48,305.91s-11.59-5.25-17.46-7.7a126.77,126.77,0,0,1-16.86-8.61,16.58,16.58,0,0,1-7.23-19.32,4.09,4.09,0,0,1,1.32-2.08,129,129,0,0,1,11.26-7,72.42,72.42,0,0,1,21.26-7.49c5.35-.91,10.73-1.66,16.13-2.18,7.23-.71,14.48-1.15,21.73-1.66,10.57-.73,20.79,1.35,31,3.81,4.39,1.07,8.77,2.18,13.15,3.27,4.73,1.17,9.39,2.46,13.51,5.24a23.83,23.83,0,0,0,3.84,1.74c7,3.09,11.73,8.53,15.38,15.06a35.56,35.56,0,0,1,2.38,3.94,12.7,12.7,0,0,1,.37,8.72c-.89,2.75-1.83,5.49-2.9,8.17a10.2,10.2,0,0,1-5.32,5.49C134.47,312.68,118.8,317,101.69,315.2Zm-3.31-36.12c-1.85-.15-4.28-.39-6.72-.53-5.1-.29-8.7,2-10.62,6.68C78.9,290.49,80,296.7,86.82,298.4c3.93,1,7.66,2.47,11.87,2.62,5.58.2,8.73-1.34,10.89-6.58.24-.57.76-1.31,1.28-1.44a26.72,26.72,0,0,1,5.59-1c4.92-.15,7.86-3.07,10-7a7.64,7.64,0,0,0,.64-6.31,14.8,14.8,0,0,0-5.78-7.64c-3.12-2.35-10.17-2.68-12.61-.84C105.19,272.92,102,276,98.38,279.08Zm-28.1,5.29a15,15,0,0,0,10.87-4.53c1.75-1.73,1.84-5.48.06-7.11-2.07-1.9-4.32-3.58-6.35-5.51-3.37-3.21-7.6-2.59-11.58-2.57a9.83,9.83,0,0,0-6.14,1.94c-2.58,2.31-5.34,1.91-8.26,2.15a36.93,36.93,0,0,0-8.24,1.92A3.74,3.74,0,0,0,38.7,273a73.19,73.19,0,0,0-1.81,9.05,6.37,6.37,0,0,0,.81,3.62c2.33,4.25,6.37,6.69,10.45,8.81,3.12,1.63,6.59,1.24,10.13.69,5.72-.89,7.92-4.33,8.12-8.87.07-1.58.65-2.18,2.18-2A13.76,13.76,0,0,0,70.28,284.37Z"/><path class="cls-2" d="M36.29,34.57c0-4.34,0-8.63,0-12.92a28.32,28.32,0,0,1,.29-4.22c.21-1.35.79-1.78,2.35-1.12a102.16,102.16,0,0,0,12.66,4.74c5.3,1.44,10.76,2.29,16.15,3.37,5.66,1.15,11.31,2.42,17,3.38a124.48,124.48,0,0,0,31.62,1.54c3.91-.34,7.84-.07,11.66-1.52,5.46-2.07,10.95-3.95,14.78-8.75a14.84,14.84,0,0,1,2.74-1.92c0,4.58.1,8.48,0,12.37a27.16,27.16,0,0,1-1.06,4.5c-.09.38-.13,1,.08,1.19,1.66,1.56.16,2.35-.68,3.4-1.82,2.31-4.47,3.34-7,4.48-1.23.56-2.76.43-4.14.69-6.78,1.27-13.49,2.83-20.48,2.87-7.67,0-15.35.53-23,.8a17.34,17.34,0,0,1-3.38-.18C78.06,46,70.28,44.69,62.5,43.39a36.41,36.41,0,0,0-4.59-.79c-6.71-.25-12.5-3.16-18.24-6.22-.6-.32-1-1-1.59-1.35A6.82,6.82,0,0,0,36.29,34.57Z"/><path class="cls-2" d="M142.52,14.56c-1.55,1.91-3.05,4-4.76,5.82-2.42,2.64-6.31,3.56-9.25,1.85-11.92-7-24.91-7.39-38.15-6.7-4.44.23-9-.25-13.32.39-5.18.75-10.25,2.36-15.37,3.59-.93.23-2,.77-2.8.53C52.92,18.31,47,16.41,41.1,14.54a8.44,8.44,0,0,1-1.45-.94,29,29,0,0,1,2.94-1.82c2.53-1.2,5.19-2.15,7.64-3.5C55.77,5.25,61.88,4.6,68,3.83c3.91-.5,7.86-.89,11.8-1,7.18-.21,14.37-.39,21.54-.19,5.21.15,10.42.81,15.6,1.45A33.33,33.33,0,0,1,124,5.81c4.16,1.5,8.3,3.13,12.31,5A56.57,56.57,0,0,1,142.52,14.56Z"/><path class="cls-2" d="M65.59,20.62c4-.74,8-1.93,12-2.12q13.31-.63,26.64-.41a44.34,44.34,0,0,1,23.5,7c-2,.57-3.66,1.34-5.31,1.43-5.63.3-11.26.52-16.89.48a133.38,133.38,0,0,1-33.67-4.42c-2-.54-4.1-.79-6.16-1.18Z"/><path class="cls-1" d="M39.18,134.51V122c0-2.85.86-3.49,3.64-2.74a3.43,3.43,0,0,1,1,.4C53.07,125.58,63.48,129,73.85,132a75,75,0,0,0,21.34,2.64A160.4,160.4,0,0,0,121,132.13c4.24-.72,8.14-3.39,12.21-5.13.64-.27,1.76-.57,2-.28a3.73,3.73,0,0,1,1.06,2.51c-1.15,11-2.26,22-2.14,33.07.07,6.7-.36,13.4-.49,20.1,0,3,.24,6.06.07,9.07a5.77,5.77,0,0,1-1.48,3.7c-3.53,3.21-7.13,6.36-12,7.53-3.78.9-7.41,2.42-11.2,3.31a45.54,45.54,0,0,1-10,1.44A216.21,216.21,0,0,1,76,206.77a35.82,35.82,0,0,1-17.46-6.47c-2.56-1.84-5-3.92-7.6-5.66-3.6-2.4-5.43-6.26-8.14-9.38-1.1-1.27-2.07-2.66-3.06-4A7.67,7.67,0,0,1,38.1,176c.51-7.38.89-14.79,1.09-22.19.18-6.41,0-12.83,0-19.25ZM41.8,122v2.6c0,9.24.17,18.49,0,27.73-.15,7.89-.72,15.78-1,23.68A8,8,0,0,0,42,179.73a19.24,19.24,0,0,0,2.39,3.21c2.74,3.27,4.65,7.24,8.33,9.75,2.54,1.75,4.91,3.76,7.43,5.54a34.1,34.1,0,0,0,16.31,6,174.57,174.57,0,0,0,21.58.61,68.2,68.2,0,0,0,12.47-2c3.29-.72,6.47-1.95,9.72-2.83,4.19-1.13,7.24-4,10.35-6.71a3.08,3.08,0,0,0,.66-2.09c0-3.8-.12-7.61,0-11.41.09-5.08.37-10.15.49-15.23.21-9.09-.34-18.21,1.54-27.22.46-2.25.07-4.69.07-7.36-1.4.7-2.55,1.19-3.63,1.82-4.69,2.72-9.86,3.78-15.15,4.38-3.23.37-6.47.54-9.71.88-17.4,1.83-33.82-1.9-49.64-8.85C50.75,126.27,46.45,124.19,41.8,122Z"/><path class="cls-3" d="M98.38,279.08c3.57-3.08,6.81-6.16,10.37-8.83,2.44-1.84,9.49-1.51,12.61.84a14.8,14.8,0,0,1,5.78,7.64,7.64,7.64,0,0,1-.64,6.31c-2.19,3.92-5.13,6.84-10,7a26.72,26.72,0,0,0-5.59,1c-.52.13-1,.87-1.28,1.44-2.16,5.24-5.31,6.78-10.89,6.58-4.21-.15-7.94-1.63-11.87-2.62C80,296.7,78.9,290.49,81,285.23c1.92-4.72,5.52-7,10.62-6.68C94.1,278.69,96.53,278.93,98.38,279.08Zm-5.86,1.63c-5.93.17-7.88,2.14-9.51,6.92a6.36,6.36,0,0,0,4.21,8.14c4.14,1.27,8.24,2.7,12.68,2.71,2.76,0,5.79-1.31,6.71-3.77a29.15,29.15,0,0,0,1.53-6.32c.28-2.12-.53-4-2.76-4.63C101.12,282.62,96.81,281.71,92.52,280.71Zm9-1.19a11.81,11.81,0,0,0,2.28,1.1c4.85.82,7.32,3.52,7,8.58,0,.34.82,1.11,1.11,1.05,3-.74,6.23-1.21,9-2.54,3.27-1.58,4.35-5.56,3.38-9.08-.69-2.5-2.45-3.79-4.47-5.23-3.14-2.24-6.49-2.57-9.5-.93S104.73,276.92,101.57,279.52Z"/><path class="cls-3" d="M70.28,284.37a13.76,13.76,0,0,1-1.7,0c-1.53-.21-2.11.39-2.18,2-.2,4.54-2.4,8-8.12,8.87-3.54.55-7,.94-10.13-.69C44.07,292.39,40,290,37.7,285.7a6.37,6.37,0,0,1-.81-3.62A73.19,73.19,0,0,1,38.7,273a3.74,3.74,0,0,1,1.94-2.37,36.93,36.93,0,0,1,8.24-1.92c2.92-.24,5.68.16,8.26-2.15a9.83,9.83,0,0,1,6.14-1.94c4,0,8.21-.64,11.58,2.57,2,1.93,4.28,3.61,6.35,5.51,1.78,1.63,1.69,5.38-.06,7.11A15,15,0,0,1,70.28,284.37ZM51,270.82c-1.65.57-3.29,1.17-5,1.71a4,4,0,0,1-1.82.31c-2.66-.48-3.56,1.19-4,3.26a55,55,0,0,0-.79,6.28,4,4,0,0,0,.59,2.18c2.15,3.67,5.78,5.67,9.29,7.61,2.81,1.56,6,.92,9.1.32,2.76-.53,4.47-1.86,5.14-4.56C65.61,279.72,59.59,271.66,51,270.82Zm6.09-1.41c4.59,3.21,7.79,6.57,9.06,11.42.11.42,1,.77,1.62.9,3.34.74,6.37-.41,9.24-1.85,1.46-.73,3-1.87,2.7-3.83a5.44,5.44,0,0,0-1.61-2.51c-3-3.29-6.09-6.46-11.1-6.19a10.84,10.84,0,0,1-1.24-.24C62.82,267,60.25,268.05,57.09,269.41Z"/><path class="cls-2" d="M41.8,122c4.65,2.15,9,4.23,13.32,6.15,15.82,6.95,32.24,10.68,49.64,8.85,3.24-.34,6.48-.51,9.71-.88,5.29-.6,10.46-1.66,15.15-4.38,1.08-.63,2.23-1.12,3.63-1.82,0,2.67.39,5.11-.07,7.36-1.88,9-1.33,18.13-1.54,27.22-.12,5.08-.4,10.15-.49,15.23-.07,3.8.08,7.61,0,11.41a3.08,3.08,0,0,1-.66,2.09c-3.11,2.74-6.16,5.58-10.35,6.71-3.25.88-6.43,2.11-9.72,2.83a68.2,68.2,0,0,1-12.47,2,174.57,174.57,0,0,1-21.58-.61,34.1,34.1,0,0,1-16.31-6c-2.52-1.78-4.89-3.79-7.43-5.54-3.68-2.51-5.59-6.48-8.33-9.75A19.24,19.24,0,0,1,42,179.73a8,8,0,0,1-1.12-3.68c.24-7.9.81-15.79,1-23.68.17-9.24,0-18.49,0-27.73Zm66.6,61a11.4,11.4,0,0,1,2.11,1.12c2.85,2.6,5.63,5.27,8.51,7.83a7.4,7.4,0,0,0,2.23.9,5.35,5.35,0,0,0-.07-2.2,9.26,9.26,0,0,0-2-2.4c-2.39-2.26-4.82-4.45-7.26-6.69,1.19-.85,2.38-1.62,3.48-2.49,1.74-1.4,2.34-5.24.94-6.51-3.17-2.9-7.11-2-9,1.43a14.27,14.27,0,0,0-1.43,7.76c.13,3.81.18,7.62.47,11.42.05.7,1.09,1.32,1.67,2a6.64,6.64,0,0,0,.83-2.19C108.82,189.87,108.59,186.71,108.4,183.07ZM89,188a8.59,8.59,0,0,1,.58,1.53c.37,2,.6,4,1.06,6,.16.66.86,1.19,1.32,1.78a7.72,7.72,0,0,0,1.19-1.88,3.92,3.92,0,0,0-.1-2.09Q90.6,185.15,88,177a8,8,0,0,0-1.18-2.24,1.93,1.93,0,0,0-3.44.12c-.65,1.47-1.13,3-1.66,4.56-1.78,5.16-2.27,10.8-5.89,15.26-.33.41,0,1.37,0,2.07.66-.16,1.65-.1,1.92-.51,1.22-1.8,2.2-3.74,3.31-5.61.33-.56.69-1.41,1.18-1.52C84.47,188.62,86.71,188.33,89,188Zm-24.3-13.2a17.73,17.73,0,0,0,3.58.79c.62,0,1.25-.77,1.87-1.19A9.18,9.18,0,0,0,68.62,173a33.72,33.72,0,0,1-4.34-2,11.2,11.2,0,0,0-7.65-2.1c-.53,0-1,.89-1.48,1.37.51.38,1,1,1.54,1.1,4.73.64,4.74.61,5.41,5.2a8.18,8.18,0,0,1,.17,1.47,73,73,0,0,1-.46,8c-.12.8-1.35,1.77-2.24,2a3.28,3.28,0,0,1-2.72-.78,44.42,44.42,0,0,1-2.77-3.92c-.36-.45-1.1-.59-1.66-.87-.23.66-.84,1.56-.61,1.94a45.9,45.9,0,0,0,4,5.61,3.51,3.51,0,0,0,2.3.81c4.13.18,6.28-1.54,6.6-5.69C65,181.76,64.74,178.32,64.74,174.75Zm39.84-18c1.15,0,1.92,0,2.68,0,3.41-.1,5.23-1.66,6.35-4.88,1-2.89-.17-5.12-1.82-7.19a3.73,3.73,0,0,0-2.68-1.44,29.64,29.64,0,0,0-6.54,1.61,2.83,2.83,0,0,0-1.51,2.18c.4,6,1,11.95,1.59,17.91,0,.5.81.93,1.25,1.4.42-.47,1.06-.88,1.21-1.43a7.2,7.2,0,0,0,0-2.31C104.93,160.76,104.77,159,104.58,156.72Zm-42.4-6.62-.32,0c0-2,0-4,0-5.93,0-1.52.8-1.53,1.95-1.18,2,.61,4,1.22,6,1.69.47.11,1.5-.3,1.53-.55a2.29,2.29,0,0,0-.58-1.78c-.47-.41-1.3-.4-2-.59-2.93-.84-5.85-1.71-8.79-2.53-1.92-.54-3.85-1.11-5.81-1.47-.43-.07-1,.67-1.53,1,.4.52.71,1.27,1.24,1.49s1.54,0,2.29.19c1.44.29,3.1.55,3.1,2.5,0,5-.12,10-.09,15a6.52,6.52,0,0,0,1,2.19c.53-.61,1.45-1.18,1.53-1.85C62,155.57,62,152.83,62.18,150.1ZM85,159.91h-.07c-.19-4.36-.34-8.72-.63-13.07,0-.57-.78-1.1-1.2-1.65-.45.59-1.3,1.19-1.29,1.78q.18,8.34.65,16.66c0,.54.84,1,1.29,1.55.42-.56,1.09-1.08,1.19-1.69A22.45,22.45,0,0,0,85,159.91Z"/><path class="cls-4" d="M92.52,280.71c4.29,1,8.6,1.91,12.86,3.05,2.23.6,3,2.51,2.76,4.63a29.15,29.15,0,0,1-1.53,6.32c-.92,2.46-4,3.77-6.71,3.77-4.44,0-8.54-1.44-12.68-2.71A6.36,6.36,0,0,1,83,287.63C84.64,282.85,86.59,280.88,92.52,280.71Z"/><path class="cls-4" d="M101.57,279.52c3.16-2.6,5.68-5.36,8.79-7s6.36-1.31,9.5.93c2,1.44,3.78,2.73,4.47,5.23,1,3.52-.11,7.5-3.38,9.08-2.77,1.33-6,1.8-9,2.54-.29.06-1.13-.71-1.11-1.05.33-5.06-2.14-7.76-7-8.58A11.81,11.81,0,0,1,101.57,279.52Z"/><path class="cls-4" d="M51,270.82c8.59.84,14.61,8.9,12.59,17.11-.67,2.7-2.38,4-5.14,4.56-3.1.6-6.29,1.24-9.1-.32-3.51-1.94-7.14-3.94-9.29-7.61a4,4,0,0,1-.59-2.18,55,55,0,0,1,.79-6.28c.41-2.07,1.31-3.74,4-3.26a4,4,0,0,0,1.82-.31C47.71,272,49.35,271.39,51,270.82Z"/><path class="cls-4" d="M57.09,269.41c3.16-1.36,5.73-2.45,8.67-2.3a10.84,10.84,0,0,0,1.24.24c5-.27,8.1,2.9,11.1,6.19a5.44,5.44,0,0,1,1.61,2.51c.3,2-1.24,3.1-2.7,3.83-2.87,1.44-5.9,2.59-9.24,1.85-.6-.13-1.51-.48-1.62-.9C64.88,276,61.68,272.62,57.09,269.41Z"/><path class="cls-1" d="M108.4,183.07c.19,3.64.42,6.8.48,10a6.64,6.64,0,0,1-.83,2.19c-.58-.66-1.62-1.28-1.67-2-.29-3.8-.34-7.61-.47-11.42a14.27,14.27,0,0,1,1.43-7.76c1.91-3.43,5.85-4.33,9-1.43,1.4,1.27.8,5.11-.94,6.51-1.1.87-2.29,1.64-3.48,2.49,2.44,2.24,4.87,4.43,7.26,6.69a9.26,9.26,0,0,1,2,2.4,5.35,5.35,0,0,1,.07,2.2A7.4,7.4,0,0,1,119,192c-2.88-2.56-5.66-5.23-8.51-7.83A11.4,11.4,0,0,0,108.4,183.07Zm.47-2.78c1.55-1,2.91-1.81,4.25-2.69,1.18-.79,1.77-1.93,1-3.2s-3.14-1.09-3.88.1C109.22,176.11,108,177.79,108.87,180.29Z"/><path class="cls-1" d="M89,188c-2.33.38-4.57.67-6.75,1.18-.49.11-.85,1-1.18,1.52-1.11,1.87-2.09,3.81-3.31,5.61-.27.41-1.26.35-1.92.51,0-.7-.38-1.66,0-2.07,3.62-4.46,4.11-10.1,5.89-15.26.53-1.53,1-3.09,1.66-4.56a1.93,1.93,0,0,1,3.44-.12A8,8,0,0,1,88,177q2.61,8.15,5.09,16.32a3.92,3.92,0,0,1,.1,2.09A7.72,7.72,0,0,1,92,197.29c-.46-.59-1.16-1.12-1.32-1.78-.46-2-.69-4-1.06-6A8.59,8.59,0,0,0,89,188Zm-6.61-1.39c1.88-.43,3.43-.72,4.94-1.16a1.27,1.27,0,0,0,.6-1.09c-.71-2.19-1.53-4.34-2.32-6.5L85,178C84.18,180.66,83.38,183.37,82.43,186.56Z"/><path class="cls-1" d="M64.74,174.75c0,3.57.21,7,0,10.42-.32,4.15-2.47,5.87-6.6,5.69a3.51,3.51,0,0,1-2.3-.81,45.9,45.9,0,0,1-4-5.61c-.23-.38.38-1.28.61-1.94.56.28,1.3.42,1.66.87a44.42,44.42,0,0,0,2.77,3.92,3.28,3.28,0,0,0,2.72.78c.89-.25,2.12-1.22,2.24-2a73,73,0,0,0,.46-8,8.18,8.18,0,0,0-.17-1.47c-.67-4.59-.68-4.56-5.41-5.2-.55-.07-1-.72-1.54-1.1.49-.48,1-1.32,1.48-1.37a11.2,11.2,0,0,1,7.65,2.1,33.72,33.72,0,0,0,4.34,2,9.18,9.18,0,0,1,1.57,1.31c-.62.42-1.25,1.19-1.87,1.19A17.73,17.73,0,0,1,64.74,174.75Z"/><path class="cls-1" d="M104.58,156.72c.19,2.23.35,4,.48,5.85a7.2,7.2,0,0,1,0,2.31c-.15.55-.79,1-1.21,1.43-.44-.47-1.2-.9-1.25-1.4-.62-6-1.19-11.93-1.59-17.91a2.83,2.83,0,0,1,1.51-2.18,29.64,29.64,0,0,1,6.54-1.61,3.73,3.73,0,0,1,2.68,1.44c1.65,2.07,2.82,4.3,1.82,7.19-1.12,3.22-2.94,4.78-6.35,4.88C106.5,156.74,105.73,156.72,104.58,156.72Zm2.18-2.62c3,0,4.6-1.63,4.58-4.54,0-1.43-1.71-3.73-2.76-3.73-3.23,0-4.72,1.07-4.72,3.35C103.88,153.85,104,154.11,106.76,154.1Z"/><path class="cls-1" d="M62.18,150.1c-.16,2.73-.22,5.47-.54,8.18-.08.67-1,1.24-1.53,1.85a6.52,6.52,0,0,1-1-2.19c0-5,.11-10,.09-15,0-1.95-1.66-2.21-3.1-2.5-.75-.15-1.62.09-2.29-.19s-.84-1-1.24-1.49c.51-.36,1.1-1.1,1.53-1,2,.36,3.89.93,5.81,1.47,2.94.82,5.86,1.69,8.79,2.53.67.19,1.5.18,2,.59a2.29,2.29,0,0,1,.58,1.78c0,.25-1.06.66-1.53.55-2-.47-4-1.08-6-1.69-1.15-.35-2-.34-1.95,1.18,0,2,0,4,0,5.93Z"/><path class="cls-1" d="M85,159.91a22.45,22.45,0,0,1-.06,3.58c-.1.61-.77,1.13-1.19,1.69-.45-.52-1.26-1-1.29-1.55Q82,155.31,81.81,147c0-.59.84-1.19,1.29-1.78.42.55,1.16,1.08,1.2,1.65.29,4.35.44,8.71.63,13.07Z"/><path class="cls-2" d="M108.87,180.29c-.85-2.5.35-4.18,1.35-5.79.74-1.19,3.17-1.22,3.88-.1s.2,2.41-1,3.2C111.78,178.48,110.42,179.31,108.87,180.29Z"/><path class="cls-2" d="M82.43,186.56c.95-3.19,1.75-5.9,2.55-8.61l.67-.14c.79,2.16,1.61,4.31,2.32,6.5a1.27,1.27,0,0,1-.6,1.09C85.86,185.84,84.31,186.13,82.43,186.56Z"/><path class="cls-2" d="M106.76,154.1c-2.73,0-2.88-.25-2.9-4.92,0-2.28,1.49-3.35,4.72-3.35,1,0,2.75,2.3,2.76,3.73C111.36,152.47,109.72,154.1,106.76,154.1Z"/></g></g></svg>