<svg xmlns="http://www.w3.org/2000/svg" viewBox="0 0 311.35 34.13"><defs><style>.cls-1{fill:#afa694;}</style></defs><g id="Layer_2" data-name="Layer 2"><g id="nav"><path class="cls-1" d="M0,33.37V31.84H2.14V2h-2V.52H6.29l4.15,25.9h-.35L14.6.52h5.86V2h-2v29.8H20.7v1.53H13.49V31.84h2.18V2H16L10.44,31.72H8.54L3.45,1.83h.21v30H5.82v1.53Z"/><path class="cls-1" d="M57.89,33.37V31.84h2.16V2H57.89V.52h5.92l7.5,26.82H71.2V2H69V.52h5.82V2H72.77V33.37H70.05L61.48,2.79h.14V31.84H64v1.53Z"/><path class="cls-1" d="M82.94,34a4.15,4.15,0,0,1-1.66-.29A4.87,4.87,0,0,1,80.17,33c-.29-.25-.54-.47-.74-.67a.79.79,0,0,0-.57-.29c-.33,0-.49.42-.49,1.29H77.05V26.51h1.53A7.66,7.66,0,0,0,78.84,28a8.86,8.86,0,0,0,.57,1.59A6.07,6.07,0,0,0,80.3,31a4.25,4.25,0,0,0,1.21,1,3,3,0,0,0,1.5.37,2.44,2.44,0,0,0,1.83-.64A3.47,3.47,0,0,0,85.7,30a13.71,13.71,0,0,0,.22-2.62A9.56,9.56,0,0,0,85.3,24a18.7,18.7,0,0,0-1.63-3.3c-.67-1.09-1.41-2.16-2.21-3.23a27.51,27.51,0,0,1-2.69-4.23,14.42,14.42,0,0,1-1.28-3.49,14.39,14.39,0,0,1-.34-3,8.63,8.63,0,0,1,.68-3.6A5.42,5.42,0,0,1,79.68.81,4.47,4.47,0,0,1,82.28,0a3.47,3.47,0,0,1,1.86.41,3.88,3.88,0,0,1,1,.83c.22.28.43.43.63.43a.43.43,0,0,0,.4-.26,2,2,0,0,0,.14-.89h1.32v6.8H86.06a10.81,10.81,0,0,0-.29-2,8.4,8.4,0,0,0-.7-1.88A4.46,4.46,0,0,0,83.94,2.1a2.5,2.5,0,0,0-1.59-.53,2.56,2.56,0,0,0-2.14,1,4.78,4.78,0,0,0-.79,3,10.73,10.73,0,0,0,.31,2.59A11.1,11.1,0,0,0,80.88,11a35,35,0,0,0,2.39,3.65,44.26,44.26,0,0,1,2.5,3.74,21.07,21.07,0,0,1,1.82,3.93,13,13,0,0,1,.68,4.13,14.15,14.15,0,0,1-.35,3.32,6.75,6.75,0,0,1-1,2.36,4.51,4.51,0,0,1-1.66,1.42A5.16,5.16,0,0,1,82.94,34Z"/><path class="cls-1" d="M93.79,33.37V31.84h2.63V2h-2a2.62,2.62,0,0,0-1.63.4,2.16,2.16,0,0,0-.64,1.45A23.76,23.76,0,0,0,92,7H90.46V.52h14.71V7h-1.52a26.2,26.2,0,0,0-.13-3.06,2.16,2.16,0,0,0-.63-1.45,2.62,2.62,0,0,0-1.63-.4h-2v29.8H102v1.53Z"/><path class="cls-1" d="M107.36,33.37V31.84h2.18V2h-2.18V.52h12.36V7H118.2A18.65,18.65,0,0,0,118,4a2.63,2.63,0,0,0-.67-1.51A2.09,2.09,0,0,0,115.92,2h-3.57V16.17h4.86v-2.3h1.43v6.05h-1.43V17.69h-4.86V31.84h3.57a2,2,0,0,0,1.42-.46,2.73,2.73,0,0,0,.67-1.53,19,19,0,0,0,.19-3h1.52v6.5Z"/><path class="cls-1" d="M136.37,33.74a2.47,2.47,0,0,1-2-.8,4.22,4.22,0,0,1-.86-2.14,21,21,0,0,1-.2-3c0-.79,0-1.6,0-2.41s.05-1.58.05-2.3a16,16,0,0,0-.32-3.67,2.45,2.45,0,0,0-1.28-1.73,6.82,6.82,0,0,0-2.86-.47h-1.46V31.84h2.26v1.53h-7.33V31.84h2.28V2h-2.28V.52h8a6.48,6.48,0,0,1,3.22.78,5.31,5.31,0,0,1,2.18,2.47,10.23,10.23,0,0,1,.79,4.37,13.13,13.13,0,0,1-.43,3.57A7.81,7.81,0,0,1,135,14.24a5.37,5.37,0,0,1-1.69,1.55,4.92,4.92,0,0,1-2,.64,5.06,5.06,0,0,1,3.1.88,4.13,4.13,0,0,1,1.43,2.42,17.32,17.32,0,0,1,.38,3.9c0,.78,0,1.58,0,2.39s-.05,1.6-.05,2.35q0,.76.06,1.68a7,7,0,0,0,.25,1.54c.12.44.3.65.54.65a.42.42,0,0,0,.36-.25,1.24,1.24,0,0,0,.18-.55h1.38a2.32,2.32,0,0,1-.41,1.28,2.26,2.26,0,0,1-.92.76A2.91,2.91,0,0,1,136.37,33.74Zm-8.92-18h2.07a3.16,3.16,0,0,0,2.43-1A6.29,6.29,0,0,0,133.31,12a15.15,15.15,0,0,0,.43-3.75,13.86,13.86,0,0,0-.34-3.29,4,4,0,0,0-1.2-2.15A3.56,3.56,0,0,0,129.78,2h-2.33Z"/><path class="cls-1" d="M147.46,34a4.2,4.2,0,0,1-1.67-.29,4.59,4.59,0,0,1-1.1-.67,9,9,0,0,1-.74-.67.83.83,0,0,0-.58-.29c-.33,0-.49.42-.49,1.29h-1.31V26.51h1.52a8.45,8.45,0,0,0,.26,1.53,8.86,8.86,0,0,0,.57,1.59,6.1,6.1,0,0,0,.9,1.4,4.21,4.21,0,0,0,1.2,1,3.1,3.1,0,0,0,1.51.37,2.47,2.47,0,0,0,1.83-.64,3.46,3.46,0,0,0,.85-1.78,13.66,13.66,0,0,0,.23-2.62,9.35,9.35,0,0,0-.63-3.33,18,18,0,0,0-1.63-3.3c-.67-1.09-1.4-2.16-2.2-3.23a26.9,26.9,0,0,1-2.7-4.23A14.85,14.85,0,0,1,142,9.78a14.39,14.39,0,0,1-.34-3,8.79,8.79,0,0,1,.68-3.6A5.42,5.42,0,0,1,144.19.81,4.5,4.5,0,0,1,146.8,0a3.45,3.45,0,0,1,1.85.41,3.94,3.94,0,0,1,1,.83.86.86,0,0,0,.63.43.45.45,0,0,0,.4-.26,2.1,2.1,0,0,0,.14-.89h1.31v6.8h-1.52a10,10,0,0,0-.3-2,7.94,7.94,0,0,0-.7-1.88,4.32,4.32,0,0,0-1.13-1.38,2.47,2.47,0,0,0-1.58-.53,2.58,2.58,0,0,0-2.15,1,4.85,4.85,0,0,0-.78,3,11.25,11.25,0,0,0,.3,2.59A11.48,11.48,0,0,0,145.39,11a35,35,0,0,0,2.39,3.65,44.26,44.26,0,0,1,2.5,3.74,20.45,20.45,0,0,1,1.82,3.93,12.68,12.68,0,0,1,.68,4.13,13.64,13.64,0,0,1-.35,3.32,6.74,6.74,0,0,1-1,2.36,4.54,4.54,0,0,1-1.67,1.42A5.12,5.12,0,0,1,147.46,34Z"/><path class="cls-1" d="M167.17,25a5.3,5.3,0,0,1-2.77-.7,4.54,4.54,0,0,1-1.76-1.9,6,6,0,0,1-.61-2.74,6.83,6.83,0,0,1,.72-3.15,9.26,9.26,0,0,1,1.81-2.5,11.88,11.88,0,0,1,2.27-1.79l.72.83a8.29,8.29,0,0,0-1.46,1.41,8,8,0,0,0-1.22,2,5.62,5.62,0,0,0-.49,2.32,9,9,0,0,0,.34,2.58,3.81,3.81,0,0,0,1.1,1.85,3,3,0,0,0,2,.68,2.52,2.52,0,0,0,1.53-.49,4.86,4.86,0,0,0,1.19-1.24,8,8,0,0,0,.8-1.57l.78.93a6.51,6.51,0,0,1-.8,1.54,4.78,4.78,0,0,1-1.55,1.39A5.28,5.28,0,0,1,167.17,25Zm8.15-.06a3.32,3.32,0,0,1-1.68-.41,3.55,3.55,0,0,1-1.23-1.35L166.65,13a6.84,6.84,0,0,1-.48-.9q-.31-.68-.66-1.56a13,13,0,0,1-.58-1.83,7.22,7.22,0,0,1-.23-1.76,3.5,3.5,0,0,1,.36-1.67,2.94,2.94,0,0,1,.92-1,4,4,0,0,1,1.25-.54,5,5,0,0,1,1.29-.17,4.74,4.74,0,0,1,1.21.16,3.44,3.44,0,0,1,1.17.53,2.79,2.79,0,0,1,.89,1,3.27,3.27,0,0,1,.34,1.58,5,5,0,0,1-.4,2.06,7.06,7.06,0,0,1-1,1.65,9.6,9.6,0,0,1-1.13,1.21c-.37.32-.66.57-.88.73l-.65-.9a5.67,5.67,0,0,0,1.48-2,6.36,6.36,0,0,0,.59-2.79,3.49,3.49,0,0,0-.39-1.82,1.39,1.39,0,0,0-1.29-.64,1.42,1.42,0,0,0-1.27.59,3.07,3.07,0,0,0-.4,1.73,5.69,5.69,0,0,0,.24,1.55c.16.57.34,1.12.55,1.66s.4,1,.58,1.38.32.64.38.75l6,10.51a4,4,0,0,0,.79,1.07,1.1,1.1,0,0,0,.7.24,1.25,1.25,0,0,0,.69-.22,1.53,1.53,0,0,0,.55-.58l.86.63a2.63,2.63,0,0,1-1.16,1A3.84,3.84,0,0,1,175.32,25Zm1.43-4.53a1,1,0,0,1-.75-.25.85.85,0,0,1-.23-.6.94.94,0,0,1,.11-.45c.08-.13.15-.25.21-.37a.7.7,0,0,0,.1-.38.52.52,0,0,0-.65-.63,1.46,1.46,0,0,0-.94.4,4.68,4.68,0,0,0-.87,1,4.45,4.45,0,0,0-.56,1.11l-1-.73a6.14,6.14,0,0,1,.7-1.16A4.72,4.72,0,0,1,174,17.24a2.57,2.57,0,0,1,1.51-.47,2,2,0,0,1,1.77.71,2.75,2.75,0,0,1,.5,1.62,1.56,1.56,0,0,1-.28,1A.92.92,0,0,1,176.75,20.42Z"/><path class="cls-1" d="M184.66,33.49V32h2.13V2.17h-2V.64H191l4.15,25.91h-.35L199.25.64h5.87V2.17h-2V32h2.2v1.52h-7.2V32h2.18V2.07h.31L195.1,31.85h-1.9L188.11,2h.21V32h2.16v1.52Z"/><path class="cls-1" d="M210.75,33.49V32h2.3V19.7l-4.2-17.53h-2.13V.64h7.15V2.17h-1.76l3.64,16.54H214.6l4-16.54h-1.81V.64h5.61V2.17h-2.16l-4.34,17.2V32H218v1.52Z"/><path class="cls-1" d="M238,33.87a2.5,2.5,0,0,1-2-.8,4.35,4.35,0,0,1-.86-2.14,21.15,21.15,0,0,1-.2-3c0-.8,0-1.6.05-2.41s0-1.58,0-2.3a16.16,16.16,0,0,0-.32-3.68,2.45,2.45,0,0,0-1.28-1.72,6.79,6.79,0,0,0-2.86-.47h-1.46V32h2.26v1.52h-7.32V32h2.27V2.17h-2.27V.64h8a6.48,6.48,0,0,1,3.22.79,5.35,5.35,0,0,1,2.19,2.46,10.47,10.47,0,0,1,.78,4.38,13.13,13.13,0,0,1-.43,3.57,7.81,7.81,0,0,1-1.18,2.53A5.45,5.45,0,0,1,235,15.92a4.85,4.85,0,0,1-2,.63,5.12,5.12,0,0,1,3.09.88,4.19,4.19,0,0,1,1.43,2.43,17.25,17.25,0,0,1,.38,3.9c0,.78,0,1.58-.05,2.39s0,1.6,0,2.35c0,.51,0,1.07.06,1.67a7,7,0,0,0,.24,1.55c.13.43.31.65.54.65a.47.47,0,0,0,.37-.25,1.15,1.15,0,0,0,.17-.55h1.39a2.41,2.41,0,0,1-.42,1.28,2.26,2.26,0,0,1-.92.76A2.91,2.91,0,0,1,238,33.87Zm-8.92-18h2.07a3.16,3.16,0,0,0,2.43-1A6.24,6.24,0,0,0,235,12.11a15.2,15.2,0,0,0,.43-3.75,13.86,13.86,0,0,0-.34-3.29,4,4,0,0,0-1.19-2.15,3.59,3.59,0,0,0-2.43-.75h-2.33Z"/><path class="cls-1" d="M242.62,33.49V32h2.2V2.17h-2.2V.64h7.27V2.17h-2.25V32h2.25v1.52Z"/><path class="cls-1" d="M251.67,33.49V32h1.86L257.82.57h2.35L264.6,32h2.28v1.52h-7.32V32h2L258.41,6.74h0L255.12,32h1.79v1.52Zm3.69-7.67V24.37h6v1.45Z"/><path class="cls-1" d="M265.93,33.49V32h4.86V2.17h-4.86V.64L280.5.6a23.05,23.05,0,0,1,9.16,1.76,14.91,14.91,0,0,1,6.62,5.35,15.51,15.51,0,0,1,2.49,9.05A16.25,16.25,0,0,1,296.28,26a15.3,15.3,0,0,1-6.65,5.58,22.15,22.15,0,0,1-9.13,1.87ZM273.61,32l5.71,0c2.25,0,6.7-.36,8.65-1.39a14,14,0,0,0,5.54-5.07,17.91,17.91,0,0,0,2.05-8.72,17.28,17.28,0,0,0-1.87-7.95c-1.1-2.18-3.29-3.66-5-4.8s-5.88-1.87-7.76-1.87l-7.32,0Z"/><path class="cls-1" d="M306,34.13a4.2,4.2,0,0,1-1.67-.29,4.3,4.3,0,0,1-1.1-.68,9.07,9.07,0,0,1-.74-.66.84.84,0,0,0-.58-.3c-.33,0-.49.43-.49,1.29h-1.31V26.64h1.52a8.45,8.45,0,0,0,.26,1.53,8.86,8.86,0,0,0,.57,1.59,6.32,6.32,0,0,0,.9,1.4,4.39,4.39,0,0,0,1.2,1,3.1,3.1,0,0,0,1.51.37,2.47,2.47,0,0,0,1.83-.64,3.45,3.45,0,0,0,.85-1.79,13.55,13.55,0,0,0,.23-2.61,9.35,9.35,0,0,0-.63-3.33,17.72,17.72,0,0,0-1.63-3.3c-.67-1.09-1.4-2.16-2.2-3.23a26.9,26.9,0,0,1-2.7-4.23,14.85,14.85,0,0,1-1.28-3.49,14.39,14.39,0,0,1-.34-3,8.79,8.79,0,0,1,.68-3.6A5.42,5.42,0,0,1,302.76.94a4.5,4.5,0,0,1,2.61-.81,3.36,3.36,0,0,1,1.85.41,3.77,3.77,0,0,1,1,.83.85.85,0,0,0,.63.42.44.44,0,0,0,.4-.26,2,2,0,0,0,.14-.89h1.31V7.45h-1.52a10,10,0,0,0-.3-2,7.94,7.94,0,0,0-.7-1.88A4.32,4.32,0,0,0,307,2.23a2.47,2.47,0,0,0-1.58-.53,2.56,2.56,0,0,0-2.15,1,4.85,4.85,0,0,0-.78,3,11.25,11.25,0,0,0,.3,2.59A11.64,11.64,0,0,0,304,11.1a35,35,0,0,0,2.39,3.65,42.71,42.71,0,0,1,2.5,3.74,19.91,19.91,0,0,1,1.82,3.93,12.64,12.64,0,0,1,.68,4.13,13.64,13.64,0,0,1-.35,3.32,6.74,6.74,0,0,1-1,2.36,4.54,4.54,0,0,1-1.67,1.42A5.09,5.09,0,0,1,306,34.13Z"/><path class="cls-1" d="M54.7,8.15a14.57,14.57,0,0,0-5.87-6A18.84,18.84,0,0,0,39.46,0,18.39,18.39,0,0,0,30.2,2.17a14.36,14.36,0,0,0-5.76,6,19.06,19.06,0,0,0-2,8.84,18.78,18.78,0,0,0,2,8.78,14.29,14.29,0,0,0,5.76,5.95,18.49,18.49,0,0,0,9.26,2.16,19,19,0,0,0,9.37-2.16,14.5,14.5,0,0,0,5.87-5.95,18.32,18.32,0,0,0,2-8.78A18.59,18.59,0,0,0,54.7,8.15ZM51.67,25A12.56,12.56,0,0,1,47,30.43a13.68,13.68,0,0,1-7.49,2,13.32,13.32,0,0,1-7.4-2A12.32,12.32,0,0,1,27.48,25a19.32,19.32,0,0,1-1.57-8,19.54,19.54,0,0,1,1.57-8.06,12.41,12.41,0,0,1,4.61-5.46,13.25,13.25,0,0,1,7.4-2,13.6,13.6,0,0,1,7.49,2,12.64,12.64,0,0,1,4.69,5.46A18.92,18.92,0,0,1,53.29,17,18.7,18.7,0,0,1,51.67,25Z"/><rect class="cls-1" x="161.69" y="28.58" width="16.95" height="1.25"/><ellipse class="cls-1" cx="39.6" cy="16.72" rx="1.31" ry="13.56"/><ellipse class="cls-1" cx="276.41" cy="17.26" rx="10.49" ry="1.04"/></g></g></svg>