<svg xmlns="http://www.w3.org/2000/svg" viewBox="0 0 249.36 27.33"><defs><style>.cls-1{fill:#998f7e;}</style></defs><g id="Layer_2" data-name="Layer 2"><g id="nav"><path class="cls-1" d="M0,26.72V25.5H1.71V1.63H.11V.41H5L8.36,21.16H8.08L11.69.41h4.7V1.63H14.81V25.5h1.77v1.22H10.81V25.5h1.74V1.56h.25L8.36,25.41H6.84L2.76,1.47h.17v24H4.66v1.22Z"/><path class="cls-1" d="M46.37,26.72V25.5H48.1V1.63H46.37V.41H51.1l6,21.48H57V1.63H55.29V.41H60V1.63H58.28V26.72H56.1L49.24,2.24h.11V25.5h1.92v1.22Z"/><path class="cls-1" d="M66.43,27.23A3.43,3.43,0,0,1,65.09,27a3.88,3.88,0,0,1-.88-.54,6.78,6.78,0,0,1-.59-.54.7.7,0,0,0-.46-.23c-.27,0-.4.34-.4,1h-1V21.24h1.22a7.62,7.62,0,0,0,.21,1.22,7.13,7.13,0,0,0,.46,1.27,4.74,4.74,0,0,0,.71,1.12,3.66,3.66,0,0,0,1,.8,2.46,2.46,0,0,0,1.2.3A2,2,0,0,0,68,25.44,2.75,2.75,0,0,0,68.64,24a11.9,11.9,0,0,0,.17-2.1,7.63,7.63,0,0,0-.49-2.67A15.43,15.43,0,0,0,67,16.6Q66.2,15.3,65.24,14a22.14,22.14,0,0,1-2.16-3.39,12,12,0,0,1-1-2.79,11.92,11.92,0,0,1-.27-2.45,7,7,0,0,1,.54-2.88A4.3,4.3,0,0,1,63.82.65,3.59,3.59,0,0,1,65.9,0a2.77,2.77,0,0,1,1.49.33,3.28,3.28,0,0,1,.77.67.69.69,0,0,0,.5.33.35.35,0,0,0,.32-.2A1.55,1.55,0,0,0,69.1.41h1.05V5.86H68.93a9.22,9.22,0,0,0-.24-1.57,6.54,6.54,0,0,0-.56-1.5,3.59,3.59,0,0,0-.9-1.11A2,2,0,0,0,66,1.26a2,2,0,0,0-1.72.82,3.88,3.88,0,0,0-.63,2.37,9,9,0,0,0,.24,2.08,9.54,9.54,0,0,0,.92,2.25,28,28,0,0,0,1.92,2.93,35.38,35.38,0,0,1,2,3,17.17,17.17,0,0,1,1.46,3.15,10.39,10.39,0,0,1,.54,3.31,11.08,11.08,0,0,1-.28,2.66,5.3,5.3,0,0,1-.83,1.89,3.43,3.43,0,0,1-1.33,1.13A4.06,4.06,0,0,1,66.43,27.23Z"/><path class="cls-1" d="M75.12,26.72V25.5h2.1V1.63H75.61A2.15,2.15,0,0,0,74.3,2a1.76,1.76,0,0,0-.52,1.17,21,21,0,0,0-.11,2.44H72.45V.41H84.23V5.56H83a21.49,21.49,0,0,0-.1-2.44A1.71,1.71,0,0,0,82.4,2a2.13,2.13,0,0,0-1.31-.32H79.48V25.5h2.18v1.22Z"/><path class="cls-1" d="M86,26.72V25.5h1.75V1.63H86V.41h9.9V5.56H94.66a14.62,14.62,0,0,0-.15-2.38A2.1,2.1,0,0,0,94,2a1.67,1.67,0,0,0-1.14-.35H90V13h3.89V11.11H95V16H93.87V14.17H90V25.5h2.86A1.62,1.62,0,0,0,94,25.14a2.28,2.28,0,0,0,.53-1.24,14.62,14.62,0,0,0,.15-2.38h1.22v5.2Z"/><path class="cls-1" d="M109.22,27a2,2,0,0,1-1.64-.64,3.37,3.37,0,0,1-.68-1.71,16.1,16.1,0,0,1-.16-2.4c0-.64,0-1.29,0-1.94s0-1.26,0-1.84a12.81,12.81,0,0,0-.25-2.94,2,2,0,0,0-1-1.38,5.38,5.38,0,0,0-2.29-.38h-1.16V25.5h1.8v1.22H98V25.5h1.82V1.63H98V.41h6.41A5.19,5.19,0,0,1,107,1a4.27,4.27,0,0,1,1.75,2,8.27,8.27,0,0,1,.63,3.5A10.61,10.61,0,0,1,109,9.38a6.48,6.48,0,0,1-.94,2,4.62,4.62,0,0,1-1.35,1.24,4,4,0,0,1-1.57.5,4.11,4.11,0,0,1,2.48.71,3.34,3.34,0,0,1,1.14,1.94,13.92,13.92,0,0,1,.31,3.12c0,.63,0,1.27,0,1.92s0,1.28,0,1.88c0,.41,0,.86,0,1.34a5.69,5.69,0,0,0,.19,1.24c.1.35.25.52.44.52a.35.35,0,0,0,.29-.2,1,1,0,0,0,.14-.44h1.11a2,2,0,0,1-.33,1,1.84,1.84,0,0,1-.74.62A2.39,2.39,0,0,1,109.22,27Zm-7.14-14.45h1.65a2.54,2.54,0,0,0,2-.81,4.92,4.92,0,0,0,1.08-2.17,11.68,11.68,0,0,0,.35-3A11.29,11.29,0,0,0,106.84,4a3.18,3.18,0,0,0-1-1.72,2.85,2.85,0,0,0-1.94-.61h-1.86Z"/><path class="cls-1" d="M118.1,27.23a3.43,3.43,0,0,1-1.34-.23,3.88,3.88,0,0,1-.88-.54,6.78,6.78,0,0,1-.59-.54.7.7,0,0,0-.46-.23c-.27,0-.4.34-.4,1h-1.05V21.24h1.22a7.62,7.62,0,0,0,.21,1.22,6.43,6.43,0,0,0,.46,1.27,4.74,4.74,0,0,0,.71,1.12,3.51,3.51,0,0,0,1,.8,2.43,2.43,0,0,0,1.2.3,2,2,0,0,0,1.47-.51A2.67,2.67,0,0,0,120.3,24a11,11,0,0,0,.18-2.1,7.63,7.63,0,0,0-.49-2.67,15.43,15.43,0,0,0-1.31-2.64q-.81-1.31-1.77-2.58a22.14,22.14,0,0,1-2.16-3.39,12,12,0,0,1-1-2.79,11.92,11.92,0,0,1-.27-2.45A7,7,0,0,1,114,2.51,4.35,4.35,0,0,1,115.48.65,3.64,3.64,0,0,1,117.57,0a2.77,2.77,0,0,1,1.49.33,3.28,3.28,0,0,1,.77.67.69.69,0,0,0,.5.33.35.35,0,0,0,.32-.2,1.55,1.55,0,0,0,.12-.72h1V5.86H120.6a9.22,9.22,0,0,0-.24-1.57,6.54,6.54,0,0,0-.56-1.5,3.59,3.59,0,0,0-.9-1.11,2,2,0,0,0-1.27-.42,2,2,0,0,0-1.72.82,3.88,3.88,0,0,0-.63,2.37,9,9,0,0,0,.24,2.08,9.13,9.13,0,0,0,.92,2.25,26.44,26.44,0,0,0,1.92,2.93,35.38,35.38,0,0,1,2,3,17.17,17.17,0,0,1,1.46,3.15,10.39,10.39,0,0,1,.54,3.31,11.08,11.08,0,0,1-.28,2.66,5.3,5.3,0,0,1-.83,1.89,3.43,3.43,0,0,1-1.33,1.13A4.06,4.06,0,0,1,118.1,27.23Z"/><path class="cls-1" d="M133.88,20a4.19,4.19,0,0,1-2.21-.56A3.63,3.63,0,0,1,130.26,18a4.77,4.77,0,0,1-.49-2.19,5.57,5.57,0,0,1,.57-2.53,7.89,7.89,0,0,1,1.45-2,10.25,10.25,0,0,1,1.82-1.44l.58.67A6.8,6.8,0,0,0,133,11.59a6.47,6.47,0,0,0-1,1.58,4.55,4.55,0,0,0-.39,1.85,7.41,7.41,0,0,0,.27,2.07,3.06,3.06,0,0,0,.89,1.48,2.37,2.37,0,0,0,1.62.55,2.09,2.09,0,0,0,1.23-.39,4.13,4.13,0,0,0,1-1,5.91,5.91,0,0,0,.64-1.25l.62.74a5.13,5.13,0,0,1-.63,1.23A3.79,3.79,0,0,1,136,19.57,4.26,4.26,0,0,1,133.88,20Zm6.53-.05a2.68,2.68,0,0,1-1.34-.32,2.91,2.91,0,0,1-1-1.08l-4.61-8.19a6.61,6.61,0,0,1-.38-.72c-.17-.36-.35-.78-.54-1.25A12.52,12.52,0,0,1,132.09,7a6.12,6.12,0,0,1-.18-1.41,2.79,2.79,0,0,1,.28-1.33,2.19,2.19,0,0,1,.75-.84,2.94,2.94,0,0,1,1-.44,4.29,4.29,0,0,1,1-.13,4.22,4.22,0,0,1,1,.12,3.19,3.19,0,0,1,.94.43,2.29,2.29,0,0,1,.71.8,2.67,2.67,0,0,1,.27,1.26,4.24,4.24,0,0,1-.32,1.66,6.13,6.13,0,0,1-.78,1.32,8.56,8.56,0,0,1-.91,1c-.3.26-.53.46-.7.59l-.53-.72a4.69,4.69,0,0,0,1.19-1.57,5.16,5.16,0,0,0,.47-2.24A2.91,2.91,0,0,0,136,4a1.11,1.11,0,0,0-1-.51,1.13,1.13,0,0,0-1,.48,2.41,2.41,0,0,0-.32,1.38,4.58,4.58,0,0,0,.19,1.25c.13.45.27.89.44,1.32s.32.8.47,1.11.25.51.3.6L139.77,18a3.43,3.43,0,0,0,.63.85A.91.91,0,0,0,141,19a1,1,0,0,0,.55-.17,1.29,1.29,0,0,0,.44-.46l.68.5a2,2,0,0,1-.92.78A3.13,3.13,0,0,1,140.41,20Zm1.15-3.62a.79.79,0,0,1-.6-.2.71.71,0,0,1-.18-.49.74.74,0,0,1,.09-.36L141,15a.55.55,0,0,0,.08-.31.59.59,0,0,0-.1-.39.6.6,0,0,0-.42-.11,1.18,1.18,0,0,0-.75.32,3.84,3.84,0,0,0-.7.79,3.72,3.72,0,0,0-.45.89l-.82-.59a5.15,5.15,0,0,1,.56-.92,4,4,0,0,1,.94-.89,2,2,0,0,1,1.2-.38A1.62,1.62,0,0,1,142,14a2.18,2.18,0,0,1,.4,1.3,1.28,1.28,0,0,1-.22.77A.75.75,0,0,1,141.56,16.36Z"/><path class="cls-1" d="M147.89,26.83V25.6h1.71V1.74H148V.52h4.92l3.33,20.74H156L159.58.52h4.7V1.74H162.7V25.6h1.77v1.23H158.7V25.6h1.75V1.66h.24l-4.43,23.85h-1.53L150.66,1.57h.16v24h1.73v1.23Z"/><path class="cls-1" d="M168.79,26.83V25.6h1.84V15.77l-3.36-14h-1.71V.52h5.73V1.74h-1.41L172.79,15h-.92l3.18-13.25H173.6V.52h4.49V1.74h-1.73l-3.47,13.77V25.6h1.71v1.23Z"/><path class="cls-1" d="M190.65,27.13a2,2,0,0,1-1.64-.64,3.41,3.41,0,0,1-.68-1.72,16,16,0,0,1-.16-2.4c0-.64,0-1.28,0-1.94s0-1.26,0-1.84a12.81,12.81,0,0,0-.25-2.94,2,2,0,0,0-1-1.38,5.41,5.41,0,0,0-2.29-.37H183.5V25.6h1.81v1.23h-5.86V25.6h1.82V1.74h-1.82V.52h6.4a5.2,5.2,0,0,1,2.59.63,4.2,4.2,0,0,1,1.75,2,8.27,8.27,0,0,1,.63,3.5,10.55,10.55,0,0,1-.35,2.86,6.48,6.48,0,0,1-.94,2,4.49,4.49,0,0,1-1.35,1.24,3.92,3.92,0,0,1-1.57.51,4.11,4.11,0,0,1,2.48.7,3.4,3.4,0,0,1,1.14,1.95,13.85,13.85,0,0,1,.3,3.12c0,.62,0,1.26,0,1.91s0,1.28,0,1.88c0,.42,0,.86,0,1.35a5.89,5.89,0,0,0,.19,1.24c.1.34.25.51.43.51a.35.35,0,0,0,.3-.19,1.13,1.13,0,0,0,.14-.45h1.11a2,2,0,0,1-.33,1,1.86,1.86,0,0,1-.75.61A2.23,2.23,0,0,1,190.65,27.13ZM183.5,12.67h1.66a2.49,2.49,0,0,0,1.94-.8,4.94,4.94,0,0,0,1.09-2.17,11.76,11.76,0,0,0,.35-3,11.29,11.29,0,0,0-.27-2.64,3.18,3.18,0,0,0-1-1.72,2.87,2.87,0,0,0-1.94-.6H183.5Z"/><path class="cls-1" d="M194.31,26.83V25.6h1.77V1.74h-1.77V.52h5.83V1.74h-1.81V25.6h1.81v1.23Z"/><path class="cls-1" d="M201.56,26.83V25.6h1.49L206.49.46h1.88l3.55,25.14h1.82v1.23h-5.86V25.6h1.62L207,5.4h0l-2.61,20.2h1.43v1.23Zm2.95-6.15V19.51h4.8v1.17Z"/><path class="cls-1" d="M213,26.83V25.6h3.89V1.74H213V.52l11.67,0A18.58,18.58,0,0,1,232,1.89a12,12,0,0,1,5.3,4.28,12.45,12.45,0,0,1,2,7.25,13,13,0,0,1-2,7.4A12.22,12.22,0,0,1,232,25.29a17.68,17.68,0,0,1-7.32,1.5Zm6.16-1.23,4.57,0c1.8,0,5.37-.28,6.92-1.11a11.38,11.38,0,0,0,4.44-4.06,14.39,14.39,0,0,0,1.64-7A14,14,0,0,0,235.22,7a11.31,11.31,0,0,0-4-3.85C229.84,2.28,226.5,1.7,225,1.7l-5.85,0Z"/><path class="cls-1" d="M245.09,27.33a3.41,3.41,0,0,1-1.33-.23,3.88,3.88,0,0,1-.88-.54c-.24-.2-.44-.38-.59-.53a.67.67,0,0,0-.46-.24c-.27,0-.4.35-.4,1h-1.05V21.34h1.22a5.89,5.89,0,0,0,.21,1.22,6.76,6.76,0,0,0,.46,1.28A4.89,4.89,0,0,0,243,25a3.35,3.35,0,0,0,1,.8,2.33,2.33,0,0,0,1.2.3,2,2,0,0,0,1.47-.51,2.74,2.74,0,0,0,.68-1.43,11,11,0,0,0,.18-2.1,7.41,7.41,0,0,0-.5-2.66,14.67,14.67,0,0,0-1.3-2.64c-.54-.87-1.13-1.74-1.77-2.59a22.14,22.14,0,0,1-2.16-3.39,12,12,0,0,1-1-2.79,11.22,11.22,0,0,1-.28-2.44A6.9,6.9,0,0,1,241,2.61,4.35,4.35,0,0,1,242.48.75,3.62,3.62,0,0,1,244.57.1a2.7,2.7,0,0,1,1.48.33,2.91,2.91,0,0,1,.77.67.74.74,0,0,0,.51.34.34.34,0,0,0,.32-.21,1.56,1.56,0,0,0,.11-.71h1.06V6h-1.23a8,8,0,0,0-.23-1.57,6.45,6.45,0,0,0-.56-1.51,3.71,3.71,0,0,0-.91-1.11,2,2,0,0,0-1.26-.42,2,2,0,0,0-1.72.83,3.84,3.84,0,0,0-.63,2.37,9,9,0,0,0,.24,2.07,9,9,0,0,0,.92,2.26,27.41,27.41,0,0,0,1.92,2.92c.72,1,1.39,2,2,3A16.58,16.58,0,0,1,248.82,18a10.33,10.33,0,0,1,.54,3.3,11,11,0,0,1-.28,2.66,5.3,5.3,0,0,1-.83,1.89A3.62,3.62,0,0,1,246.92,27,4.24,4.24,0,0,1,245.09,27.33Z"/><path class="cls-1" d="M43.81,6.53a11.59,11.59,0,0,0-4.7-4.79A15.14,15.14,0,0,0,31.6,0a14.72,14.72,0,0,0-7.41,1.74,11.46,11.46,0,0,0-4.62,4.79A15.35,15.35,0,0,0,18,13.61a15.17,15.17,0,0,0,1.57,7,11.47,11.47,0,0,0,4.62,4.77,14.82,14.82,0,0,0,7.41,1.73,15.24,15.24,0,0,0,7.51-1.73,11.61,11.61,0,0,0,4.7-4.77,14.71,14.71,0,0,0,1.62-7A14.88,14.88,0,0,0,43.81,6.53ZM41.39,20a10.06,10.06,0,0,1-3.77,4.35,10.93,10.93,0,0,1-6,1.58,10.67,10.67,0,0,1-5.92-1.58A9.89,9.89,0,0,1,22,20a15.32,15.32,0,0,1-1.26-6.42A15.58,15.58,0,0,1,22,7.14,10,10,0,0,1,25.7,2.77a10.59,10.59,0,0,1,5.92-1.58,10.84,10.84,0,0,1,6,1.58,10.17,10.17,0,0,1,3.77,4.37,15.27,15.27,0,0,1,1.29,6.46A15,15,0,0,1,41.39,20Z"/><rect class="cls-1" x="129.5" y="22.89" width="13.58" height="1"/><ellipse class="cls-1" cx="31.72" cy="13.39" rx="1.05" ry="10.86"/><ellipse class="cls-1" cx="221.38" cy="13.82" rx="8.4" ry="0.83"/></g></g></svg>