<svg xmlns="http://www.w3.org/2000/svg" viewBox="0 0 224.16 106.67"><defs><style>.cls-1{fill:#393d36;}</style></defs><g id="Layer_2" data-name="Layer 2"><g id="content"><path class="cls-1" d="M0,48.67V46.45H3.12V3H.21V.75h9l6.06,37.79h-.51L21.29.75h8.56V3H27V46.45h3.22v2.22H19.68V46.45h3.19V2.84h.44L15.23,46.28H12.46L5,2.67h.31V46.45H8.49v2.22Z"/><path class="cls-1" d="M84.45,48.67V46.45H87.6V3H84.45V.75h8.63l11,39.13h-.17V3h-3.15V.75h8.49V3h-3V48.67h-4L89.69,4.07h.21V46.45h3.49v2.22Z"/><path class="cls-1" d="M121,49.6a6.08,6.08,0,0,1-2.43-.43,6.61,6.61,0,0,1-1.6-1,12.73,12.73,0,0,1-1.08-1,1.22,1.22,0,0,0-.84-.43c-.48,0-.72.63-.72,1.88H112.4v-10h2.23A12.08,12.08,0,0,0,115,40.9a13.78,13.78,0,0,0,.84,2.33,9.71,9.71,0,0,0,1.3,2,6.27,6.27,0,0,0,1.77,1.45,4.4,4.4,0,0,0,2.19.55,3.58,3.58,0,0,0,2.67-.94,5,5,0,0,0,1.25-2.6,20.65,20.65,0,0,0,.32-3.82,13.7,13.7,0,0,0-.91-4.86,27.12,27.12,0,0,0-2.37-4.81q-1.49-2.37-3.22-4.71a41.14,41.14,0,0,1-3.94-6.17A22,22,0,0,1,113,14.27a21.37,21.37,0,0,1-.5-4.45,12.74,12.74,0,0,1,1-5.25,7.92,7.92,0,0,1,2.71-3.39A6.5,6.5,0,0,1,120,0a5,5,0,0,1,2.7.6,5.6,5.6,0,0,1,1.4,1.21,1.29,1.29,0,0,0,.93.62.64.64,0,0,0,.58-.38,2.86,2.86,0,0,0,.21-1.3h1.91v9.93h-2.22a15.73,15.73,0,0,0-.43-2.86,11.34,11.34,0,0,0-1-2.74,6.36,6.36,0,0,0-1.64-2,3.63,3.63,0,0,0-2.31-.77A3.69,3.69,0,0,0,117,3.8a7,7,0,0,0-1.15,4.31,16.55,16.55,0,0,0,.44,3.78A16.82,16.82,0,0,0,118,16a50.12,50.12,0,0,0,3.49,5.32,64.86,64.86,0,0,1,3.65,5.46,29.39,29.39,0,0,1,2.65,5.74,18.76,18.76,0,0,1,1,6,20.51,20.51,0,0,1-.51,4.85,9.72,9.72,0,0,1-1.51,3.44,6.56,6.56,0,0,1-2.42,2.07A7.62,7.62,0,0,1,121,49.6Z"/><path class="cls-1" d="M136.83,48.67V46.45h3.83V3h-2.94a3.84,3.84,0,0,0-2.38.58,3.1,3.1,0,0,0-.94,2.12,35.4,35.4,0,0,0-.21,4.45H132V.75h21.47v9.38H151.2A38.32,38.32,0,0,0,151,5.68a3.05,3.05,0,0,0-.92-2.12A3.84,3.84,0,0,0,147.71,3h-2.94V46.45h4v2.22Z"/><path class="cls-1" d="M156.61,48.67V46.45h3.18V3h-3.18V.75h18v9.38h-2.23a26.8,26.8,0,0,0-.27-4.33,3.73,3.73,0,0,0-1-2.19A3,3,0,0,0,169.1,3h-5.2v20.6H171V20.23h2.08v8.83H171V25.81H163.9V46.45h5.2a2.85,2.85,0,0,0,2.07-.67,3.93,3.93,0,0,0,1-2.24,27.16,27.16,0,0,0,.27-4.35h2.23v9.48Z"/><path class="cls-1" d="M198.93,49.22a3.63,3.63,0,0,1-3-1.16,6.25,6.25,0,0,1-1.25-3.13,29.3,29.3,0,0,1-.29-4.37c0-1.16,0-2.34.06-3.53s.07-2.3.07-3.35a23.37,23.37,0,0,0-.46-5.36,3.57,3.57,0,0,0-1.86-2.51,9.84,9.84,0,0,0-4.18-.69h-2.12V46.45h3.28v2.22H178.53V46.45h3.32V3h-3.32V.75h11.68a9.35,9.35,0,0,1,4.7,1.15,7.72,7.72,0,0,1,3.19,3.59,15.23,15.23,0,0,1,1.14,6.39,19.18,19.18,0,0,1-.63,5.2,11.48,11.48,0,0,1-1.71,3.69A7.88,7.88,0,0,1,194.43,23a7.06,7.06,0,0,1-2.86.92,7.48,7.48,0,0,1,4.52,1.28,6.07,6.07,0,0,1,2.09,3.55,24.87,24.87,0,0,1,.55,5.68c0,1.14,0,2.3-.07,3.49s-.07,2.33-.07,3.42c0,.76,0,1.57.09,2.45a9.81,9.81,0,0,0,.36,2.26c.18.63.44.94.78.94a.62.62,0,0,0,.53-.36,1.72,1.72,0,0,0,.26-.8h2a3.37,3.37,0,0,1-.6,1.86,3.32,3.32,0,0,1-1.35,1.11A4.17,4.17,0,0,1,198.93,49.22Zm-13-26.32h3a4.58,4.58,0,0,0,3.54-1.47,9.12,9.12,0,0,0,2-4A22.12,22.12,0,0,0,195.1,12a20.45,20.45,0,0,0-.5-4.8,5.9,5.9,0,0,0-1.74-3.14A5.23,5.23,0,0,0,189.32,3h-3.39Z"/><path class="cls-1" d="M215.11,49.6a6.08,6.08,0,0,1-2.43-.43,6.68,6.68,0,0,1-1.61-1,14.5,14.5,0,0,1-1.08-1,1.2,1.2,0,0,0-.84-.43c-.48,0-.72.63-.72,1.88h-1.91v-10h2.22A13.42,13.42,0,0,0,210,43.23a9,9,0,0,0,1.3,2A6.23,6.23,0,0,0,213,46.72a4.4,4.4,0,0,0,2.19.55,3.58,3.58,0,0,0,2.67-.94,5,5,0,0,0,1.25-2.6,19.82,19.82,0,0,0,.32-3.82,13.91,13.91,0,0,0-.9-4.86,27.89,27.89,0,0,0-2.38-4.81c-1-1.58-2.06-3.15-3.22-4.71A42,42,0,0,1,209,19.36a22,22,0,0,1-1.86-5.09,21.37,21.37,0,0,1-.5-4.45,12.58,12.58,0,0,1,1-5.25,8,8,0,0,1,2.7-3.39A6.52,6.52,0,0,1,214.15,0a5,5,0,0,1,2.7.6,5.66,5.66,0,0,1,1.41,1.21c.32.41.62.62.92.62a.63.63,0,0,0,.58-.38A2.86,2.86,0,0,0,220,.75h1.92v9.93h-2.23a15.73,15.73,0,0,0-.43-2.86,11.75,11.75,0,0,0-1-2.74,6.52,6.52,0,0,0-1.65-2,3.63,3.63,0,0,0-2.31-.77,3.71,3.71,0,0,0-3.13,1.51A7,7,0,0,0,210,8.11a16,16,0,0,0,.45,3.78A16.37,16.37,0,0,0,212.09,16a50.42,50.42,0,0,0,3.5,5.32,64.73,64.73,0,0,1,3.64,5.46,30,30,0,0,1,2.66,5.74,18.76,18.76,0,0,1,1,6,20,20,0,0,1-.52,4.85,9.89,9.89,0,0,1-1.5,3.44,6.51,6.51,0,0,1-2.43,2.07A7.61,7.61,0,0,1,215.11,49.6Z"/><path class="cls-1" d="M11,93.36a7.65,7.65,0,0,1-4-1,6.67,6.67,0,0,1-2.57-2.77,8.77,8.77,0,0,1-.89-4,10,10,0,0,1,1-4.6,14,14,0,0,1,2.64-3.65,17.58,17.58,0,0,1,3.32-2.62l1,1.23a12.48,12.48,0,0,0-2.12,2,12.1,12.1,0,0,0-1.79,2.89,8.3,8.3,0,0,0-.71,3.38A13.31,13.31,0,0,0,7.43,88,5.47,5.47,0,0,0,9,90.7a4.24,4.24,0,0,0,3,1A3.78,3.78,0,0,0,14.23,91,7.14,7.14,0,0,0,16,89.17a10.3,10.3,0,0,0,1.18-2.28l1.13,1.36a9.43,9.43,0,0,1-1.16,2.24,6.88,6.88,0,0,1-2.26,2A7.64,7.64,0,0,1,11,93.36Zm11.89-.09a4.76,4.76,0,0,1-2.45-.59,5.2,5.2,0,0,1-1.8-2l-8.4-14.9a14.63,14.63,0,0,1-.69-1.32c-.31-.65-.64-1.41-1-2.28a20.19,20.19,0,0,1-.84-2.67A11.1,11.1,0,0,1,7.4,67a5.1,5.1,0,0,1,.52-2.44A4.2,4.2,0,0,1,9.27,63a5.61,5.61,0,0,1,1.82-.8A8,8,0,0,1,13,62a7.32,7.32,0,0,1,1.75.23,5.14,5.14,0,0,1,1.72.78,4.07,4.07,0,0,1,1.29,1.46,4.8,4.8,0,0,1,.5,2.3,7.66,7.66,0,0,1-.58,3,10.37,10.37,0,0,1-1.43,2.41,13.57,13.57,0,0,1-1.66,1.76c-.54.47-1,.82-1.27,1.06l-1-1.31a8.28,8.28,0,0,0,2.16-2.86,9.26,9.26,0,0,0,.86-4.07,5.13,5.13,0,0,0-.57-2.66,2,2,0,0,0-1.87-.93,2.08,2.08,0,0,0-1.86.87,4.47,4.47,0,0,0-.58,2.52,8,8,0,0,0,.35,2.26c.23.83.49,1.63.79,2.42s.59,1.46.86,2,.46.92.55,1.08l8.69,15.35a6,6,0,0,0,1.15,1.55,1.67,1.67,0,0,0,1,.35,1.93,1.93,0,0,0,1-.32,2.28,2.28,0,0,0,.79-.84l1.25.92a3.73,3.73,0,0,1-1.68,1.42A5.61,5.61,0,0,1,22.89,93.27ZM25,86.67a1.42,1.42,0,0,1-1.09-.36,1.26,1.26,0,0,1-.34-.88,1.4,1.4,0,0,1,.16-.66l.31-.54a1,1,0,0,0,.14-.55A1.08,1.08,0,0,0,24,83a1.06,1.06,0,0,0-.77-.21,2.15,2.15,0,0,0-1.37.59,6.33,6.33,0,0,0-1.26,1.44,6.93,6.93,0,0,0-.83,1.62l-1.49-1.07a9,9,0,0,1,1-1.68A7.13,7.13,0,0,1,21,82a3.8,3.8,0,0,1,2.2-.69,2.9,2.9,0,0,1,2.58,1,4,4,0,0,1,.73,2.37,2.24,2.24,0,0,1-.41,1.4A1.32,1.32,0,0,1,25,86.67Z"/><path class="cls-1" d="M39.34,105.74v-2.23h3.11V60H39.54V57.82h9l6.06,37.79h-.51l6.57-37.79h8.55V60H66.31v43.47h3.22v2.23H59v-2.23H62.2V59.91h.45l-8.08,43.43H51.8l-7.43-43.6h.31v43.77h3.15v2.23Z"/><path class="cls-1" d="M77.4,105.74v-2.23h3.35V85.61L74.63,60H71.51V57.82H82V60H79.38l5.31,24.14H83L88.8,60H86.16V57.82h8.18V60H91.19l-6.33,25.1v18.37H88v2.23Z"/><path class="cls-1" d="M117.21,106.29a3.65,3.65,0,0,1-3-1.16A6.38,6.38,0,0,1,113,102a30.45,30.45,0,0,1-.29-4.36c0-1.17,0-2.34.07-3.53s.07-2.3.07-3.35a23.89,23.89,0,0,0-.46-5.36,3.55,3.55,0,0,0-1.87-2.51,9.84,9.84,0,0,0-4.18-.69H104.2v21.32h3.29v2.23H96.81v-2.23h3.32V60H96.81V57.82h11.67A9.39,9.39,0,0,1,113.19,59a7.65,7.65,0,0,1,3.18,3.59,15,15,0,0,1,1.15,6.38,18.85,18.85,0,0,1-.64,5.21,11.48,11.48,0,0,1-1.71,3.69,7.93,7.93,0,0,1-2.46,2.26,7,7,0,0,1-2.86.93,7.44,7.44,0,0,1,4.52,1.28,6.12,6.12,0,0,1,2.09,3.54,25.57,25.57,0,0,1,.54,5.68c0,1.15,0,2.31-.06,3.5s-.07,2.32-.07,3.42c0,.75,0,1.57.08,2.45a11,11,0,0,0,.36,2.26c.18.63.45.94.79.94a.64.64,0,0,0,.53-.36,1.84,1.84,0,0,0,.26-.81h2a3.55,3.55,0,0,1-.6,1.87,3.41,3.41,0,0,1-1.36,1.11A4.09,4.09,0,0,1,117.21,106.29ZM104.2,80h3a4.58,4.58,0,0,0,3.55-1.48,9,9,0,0,0,2-3.95,22.11,22.11,0,0,0,.64-5.46,20.54,20.54,0,0,0-.5-4.81,5.82,5.82,0,0,0-1.75-3.13,5.19,5.19,0,0,0-3.54-1.1H104.2Z"/><path class="cls-1" d="M123.88,105.74v-2.23h3.22V60h-3.22V57.82H134.5V60h-3.29v43.47h3.29v2.23Z"/><path class="cls-1" d="M137.1,105.74v-2.23h2.7l6.26-45.79h3.43L156,103.51h3.32v2.23H148.6v-2.23h2.94l-4.62-36.79h0l-4.76,36.79h2.6v2.23Zm5.37-11.19V92.42h8.73v2.13Z"/><path class="cls-1" d="M157.89,105.74v-2.23H165V60h-7.09V57.82l21.25-.07a33.87,33.87,0,0,1,13.37,2.57,21.89,21.89,0,0,1,9.66,7.8q3.63,5.23,3.62,13.21T202.17,94.8a22.38,22.38,0,0,1-9.7,8.15,32.29,32.29,0,0,1-13.33,2.72Zm11.21-2.23,8.33-.06c3.27,0,9.78-.53,12.61-2s6.29-4.14,8.08-7.39a26.14,26.14,0,0,0,3-12.72,25.36,25.36,0,0,0-2.73-11.6c-1.61-3.17-4.81-5.34-7.3-7S182.52,60,179.77,60L169.1,60Z"/><path class="cls-1" d="M216.38,106.67a6,6,0,0,1-2.42-.43,6.68,6.68,0,0,1-1.61-1c-.44-.36-.8-.69-1.08-1a1.22,1.22,0,0,0-.84-.43c-.48,0-.72.63-.72,1.88h-1.92v-10H210a12.22,12.22,0,0,0,.37,2.22,13.78,13.78,0,0,0,.84,2.33,9.38,9.38,0,0,0,1.3,2,6.28,6.28,0,0,0,1.77,1.46,4.4,4.4,0,0,0,2.19.55,3.62,3.62,0,0,0,2.67-.94,5.08,5.08,0,0,0,1.25-2.61,20.54,20.54,0,0,0,.32-3.81,13.7,13.7,0,0,0-.91-4.86,26.79,26.79,0,0,0-2.37-4.81c-1-1.59-2.06-3.16-3.22-4.71a40.69,40.69,0,0,1-3.94-6.18,21.75,21.75,0,0,1-1.86-5.08,21.37,21.37,0,0,1-.5-4.45,12.74,12.74,0,0,1,1-5.25,7.93,7.93,0,0,1,2.71-3.39,6.5,6.5,0,0,1,3.8-1.18,5,5,0,0,1,2.7.6,5.4,5.4,0,0,1,1.4,1.21,1.29,1.29,0,0,0,.93.62.64.64,0,0,0,.58-.38,2.86,2.86,0,0,0,.21-1.3h1.91v9.93h-2.22a15.73,15.73,0,0,0-.43-2.86,11.18,11.18,0,0,0-1-2.74,6.25,6.25,0,0,0-1.64-2,3.63,3.63,0,0,0-2.31-.77,3.72,3.72,0,0,0-3.13,1.5,7,7,0,0,0-1.15,4.32A16,16,0,0,0,211.7,69a16.52,16.52,0,0,0,1.67,4.11,51.16,51.16,0,0,0,3.49,5.32,63.28,63.28,0,0,1,3.65,5.46,29.39,29.39,0,0,1,2.65,5.74,18.77,18.77,0,0,1,1,6,20.33,20.33,0,0,1-.52,4.84,9.81,9.81,0,0,1-1.5,3.44,6.48,6.48,0,0,1-2.43,2.07A7.48,7.48,0,0,1,216.38,106.67Z"/><path class="cls-1" d="M79.8,11.89a21.23,21.23,0,0,0-8.57-8.72A27.42,27.42,0,0,0,57.56,0a26.75,26.75,0,0,0-13.5,3.17,20.84,20.84,0,0,0-8.41,8.72,27.91,27.91,0,0,0-2.86,12.89A27.62,27.62,0,0,0,35.65,37.6a20.8,20.8,0,0,0,8.41,8.68,27,27,0,0,0,13.5,3.15,27.63,27.63,0,0,0,13.67-3.15A21.19,21.19,0,0,0,79.8,37.6a26.92,26.92,0,0,0,2.94-12.82A27.2,27.2,0,0,0,79.8,11.89ZM75.38,36.47a18.33,18.33,0,0,1-6.85,7.92A19.87,19.87,0,0,1,57.6,47.27a19.39,19.39,0,0,1-10.79-2.88,18,18,0,0,1-6.72-7.92A28,28,0,0,1,37.8,24.78,28.35,28.35,0,0,1,40.09,13a18.15,18.15,0,0,1,6.72-8A19.31,19.31,0,0,1,57.6,2.16,19.79,19.79,0,0,1,68.53,5.05a18.49,18.49,0,0,1,6.85,8,27.72,27.72,0,0,1,2.35,11.77A27.35,27.35,0,0,1,75.38,36.47Z"/><rect class="cls-1" x="3.01" y="98.57" width="24.73" height="1.82"/><ellipse class="cls-1" cx="57.77" cy="24.39" rx="1.91" ry="19.79"/><ellipse class="cls-1" cx="173.19" cy="82.05" rx="15.3" ry="1.52"/></g></g></svg>