<svg xmlns="http://www.w3.org/2000/svg" viewBox="0 0 45.78 45.72"><defs><style>.cls-1{fill:#998f7e;}</style></defs><g id="Layer_2" data-name="Layer 2"><g id="content"><path class="cls-1" d="M22.78,45.72A22.84,22.84,0,0,1,0,22.55C.13,9.8,10.47-.1,23.55,0,35.6.09,45.87,10.67,45.78,22.89A22.94,22.94,0,0,1,22.78,45.72Zm0-2.37a20.5,20.5,0,0,0,.51-41C12,2.2,2.49,11.24,2.39,22.25,2.29,34,11.18,43.23,22.79,43.35Z"/><path class="cls-1" d="M33.67,33.74H29.18c0-2.68,0-5.29,0-7.9-.05-2.25-1.23-3.29-3.07-2.8-1.47.39-1.9,1.54-1.92,2.89,0,2.51,0,5,0,7.71H19.83V19.08c1.57.56,3.49-.94,4.63,1.25a13.79,13.79,0,0,1,2-1.22c3.35-1.35,6.8.48,7.12,4.08C33.91,26.64,33.67,30.13,33.67,33.74Z"/><path class="cls-1" d="M12.47,19.26H17V33.68H12.47Z"/><path class="cls-1" d="M17.33,14.68a2.59,2.59,0,0,1-2.71,2.64A2.68,2.68,0,1,1,14.68,12,2.6,2.6,0,0,1,17.33,14.68Z"/></g></g></svg>