<svg xmlns="http://www.w3.org/2000/svg" viewBox="0 0 45.77 45.72"><defs><style>.cls-1{fill:#998f7e;}</style></defs><g id="Layer_2" data-name="Layer 2"><g id="content"><path class="cls-1" d="M22.73,0A22.86,22.86,0,1,1,0,22.82,22.88,22.88,0,0,1,22.73,0Zm-.08,2.29C11.17,2.57,2,12,2.3,23.19a20.55,20.55,0,1,0,41.08-.9C43.17,11.27,33.59,2,22.65,2.29Z"/><path class="cls-1" d="M21.48,27.38c-1.05,2.41-2.09,4.84-3.18,7.26A9.22,9.22,0,0,1,17.15,36c0-2.35-.13-4.3.05-6.21.14-1.52.77-3,1-4.5.27-1.71.25-3.46.49-5.18a8.31,8.31,0,0,1,1-3.49,3,3,0,0,1,2.64-.74c.55.14,1.2,1.41,1.15,2.14a19.77,19.77,0,0,1-1,4.3c-.4,1.32-.47,2.53.92,3.26a2.73,2.73,0,0,0,3.55-.78,8.73,8.73,0,0,0,1.83-8.79c-1.36-4.17-7.84-4.83-11.07-1.28a6.69,6.69,0,0,0-1.11,7.46c.3.68-.06,1.65-.11,2.49-.73-.32-1.7-.45-2.14-1-1.88-2.38-1.87-5.12-.77-7.78C16.25,9.34,25.93,7.73,30.77,13,34.52,17.11,33,25.39,28,27.87A6.09,6.09,0,0,1,21.48,27.38Z"/></g></g></svg>