<svg xmlns="http://www.w3.org/2000/svg" viewBox="0 0 45.67 45.72"><defs><style>.cls-1{fill:#998f7e;}</style></defs><g id="Layer_2" data-name="Layer 2"><g id="content"><path class="cls-1" d="M22.92,0A22.86,22.86,0,1,1,0,22.79,22.7,22.7,0,0,1,22.92,0ZM22.8,2.3A20.66,20.66,0,0,0,2.29,22.86a20.67,20.67,0,0,0,20.57,20.5A20.7,20.7,0,0,0,43.39,22.81,20.72,20.72,0,0,0,22.8,2.3Z"/><path class="cls-1" d="M12.83,14.31c2.69,2.79,5.67,4.62,9.56,4.85,0-.52.06-1,.11-1.4a4.66,4.66,0,0,1,6.68-3.87,4.63,4.63,0,0,0,4.48.25l-1.17,2,1.59-.23c-2.22,1.48-1.92,3.86-2.4,6a13.43,13.43,0,0,1-19.42,8.84,2.79,2.79,0,0,1-.39-.29l5.86-1.65-4.35-3.62,1.77-.53a5.07,5.07,0,0,1-3-4.39l1.51.1C12.25,18.47,11.71,16.65,12.83,14.31Z"/></g></g></svg>