<svg xmlns="http://www.w3.org/2000/svg" viewBox="0 0 45.69 45.71"><defs><style>.cls-1{fill:#998f7e;}</style></defs><g id="Layer_2" data-name="Layer 2"><g id="content"><path class="cls-1" d="M23,0c12.72,0,22.7,10.27,22.66,23.24,0,12.51-10.38,22.5-23.26,22.47A22.86,22.86,0,0,1,23,0Zm-.25,43.37A20.51,20.51,0,1,0,2.3,22.77C2.07,33.84,11.42,43.24,22.78,43.37Z"/><path class="cls-1" d="M23.75,16.85h5.81V20.6H23.9c0,2.93-.07,5.65,0,8.37,0,1.41,1.31,2.29,3,2.12a26.77,26.77,0,0,0,3.54-.88c0,1,0,2.07,0,3.11a1.23,1.23,0,0,1-.67.83,10.7,10.7,0,0,1-8.64.34A4.6,4.6,0,0,1,18,29.86c0-3,0-6,0-9.12l-2.7-.17c0-.95,0-1.85,0-2.74a1.28,1.28,0,0,1,.53-.92c2.75-1.18,4-3.42,4.41-6.31h3.5Z"/></g></g></svg>