<?xml version="1.0" encoding="UTF-8"?><svg id="Layer_2" xmlns="http://www.w3.org/2000/svg" viewBox="0 0 64.45 61.83"><defs><style>.cls-1{fill:#f23d3d;}</style></defs><g id="Layer_2-2"><path class="cls-1" d="M2.24,40.83c5.62-8.23,11.53-5.64,13.42-6.05,2.35-.51,4.57-4.41,4.84-4.89,3.14-5.55,6.2-9.93,11-14.23,3.41-3.06,7.58-6.09,11.48-8.24C45.38,6.1,60.29.1,60.97,0c.89-.13,3.47,2.19,3.48,3.47.01,3.23-7.43,4.56-8,4.87-3.52,1.96-8.66,1.68-10.06,15-.32,3.07,1.78,6.25,2.57,9.35.28,1.09,2.61,3.32,3.62,3.72,1.17.46,3,.22,4.27.62,1.36.43,5.02,3.69,5.36,5.03.16.64,1.26,3.45,1.27,4.23,0,2.17.03,6.12-.94,7.94-.42.78-3.02,6.24-9.95,7.41-2.01.34-8.49-.51-10.4-1.38-.63-.29-3.2-2.72-3.38-3.35-.16-.55-1.63-2.04-1.78-2.58-.18-.63-1.98-11.34,2.62-14.18.15-.09,4.47-2.74,4.63-4.57.12-1.42-.64-1.81-.88-2.82-.38-1.58-1.43-4.22-1.58-5.15-.19-1.14-.21-6.54,0-7.62.18-.92.81-2.49.89-3.73.12-1.95-1.16-1.07-2.59-.42-2.8,2.7-5.94,5.06-8.55,7.96-1.68,1.86-8.73,11.74-8.95,12.45-.75,2.4,2.74,4.05,3.74,5.93,1.67,3.12,1.55,8.73.02,11.9-.78,1.62-3.49,5.28-5.05,5.96-.6.26-3.61,1.52-4.45,1.67-3.62.64-10.7-1.43-13.12-4.28-5.27-6.21-4.17-12.68-1.49-16.61Z"/></g></svg>