<?xml version="1.0" encoding="UTF-8"?><svg id="Layer_2" xmlns="http://www.w3.org/2000/svg" viewBox="0 0 79.13 72.2"><defs><style>.cls-1{fill:#f23d3d;}</style></defs><g id="Layer_5"><path class="cls-1" d="M77.05,40.21c.34-1.78-.59-5.5-1.39-7.15-.99-2.04-1.05-2.94-1.8-4.93-1.78-4.72-5.61-11.8-8.46-15.69-3.31-4.52-7.52-6.45-13.16-5.64-3.2.46-6.26,6.23-10.09,6.99-.49.1-9.08.23-10.35-.16-1.9-.57-8.32-4.38-8.87-4.59-1.97-.77-3.32-2.1-5.89-1.33-.51.15-3.76,2.41-5.42,4.67-2.22,3.03-3.66,6.8-5.35,10.24-1.73,3.53-5.22,11.57-5.41,12.02-.73,1.83-1.43,3.95-.08,5.71.49.64,2.86,1.69,3.59,1.49.21-.06,2.84-2.89,2.99-3.15.59-1.04,1.65-6.87,2.09-8.01,1.56-4.08,4.12-6.99,6.4-10.72.44-.72,1.4-3.12,1.58-3.31.08-.09,1.94-1.28,2.05-1.31,2.56-.78,1.08,5.43.78,6.29-.55,1.61-.64,8.21-.37,9.99.18,1.22,2.69,5.49,3.64,6.45.52.52,3.55,3.05,4.06,3.28.64.29,5.9,1.95,6.52,2.04,4.85.67,15.44-2.01,19.1-5.31,4.28-3.85,5.72-11.28,4.56-16.83-.13-.62-1.37-4.64-.76-5.97,2.61-1.41,8.04,8.85,9.49,12,1.82,3.96.9,4.8,2.13,9.1.26.9,1.81,3.35,2.4,4.33,1.37,2.26,5.53,1.96,6.01-.51ZM51.08,26.47c-.14,3.17-1.66,5.59-4.39,7.23-3.76,2.26-10.79,3.85-14.88,1.91-.31-.14-3.73-3.27-3.99-3.65-1.2-1.75-1.36-3.75-1.23-5.83.06-.93.76-4.89,1.36-5.37.99-.79,3.36-.07,4.31.64,1.71,1.27.71,2.26,1.31,3.89,1.2,3.25,7.6,4.43,8.26.47.3-1.8-1.15-2.82-.31-4.89.67-1.66,4.05-3.52,4.56-3.7,4.44-1.54,5.13,6.53,5.01,9.29Z"/><path class="cls-1" d="M64.39,43.71c-.39-.3-.7-.38-1.18-.24-.36.1-7.56,3.84-8.32,4.04-14.47,3.82-33.45,5.1-42.52-3.17-.15-.13-2.64,2.54-2.73,2.76-1.32,3.08,7.48,6.19,9.4,6.79,16.86,5.25,36.01-.29,39.82-1.84,2.08-.85,8.11-1.88,7.5-5.4-.03-.17-1.83-2.84-1.97-2.94Z"/><path class="cls-1" d="M27.35,3.99c3.15,1.93,6.67,2.66,10.4,2.43,3.8-.23,6.02-1.22,8.88-3.66,1.28-1.09,1.23-3.15-.85-2.7-1.28.28-2.46,2.1-3.19,2.32-4.19,1.28-8.5,1.26-12.71,0-1.3-.39-1.74-2.06-3.28-1.3-1.28.63-.09,2.4.75,2.92Z"/><path class="cls-1" d="M18.43,59.73c-.6.49-3.06,5.67-3.15,6.51-.17,1.71,2.61,3.83,3.74,1.27.25-.57,1.11-2.31,1.29-2.68.09-.19,1.06-3.06,1.08-3.23.18-1.73-1.61-2.97-2.97-1.86Z"/><path class="cls-1" d="M5.11,52.05c-.28.09-2.43,2.18-2.67,2.53-.32.46-3.77,4.16-1.62,6.24,1.96.44,1.83-.8,2.54-1.64,1.31-1.53,2.92-3.25,3.75-5.12.69-1.57-.48-2.46-2-2Z"/><path class="cls-1" d="M34.57,63.48c-.28,1.77-.7,5.01-.07,6.72,1.59,4.34,4.09.3,4.09,0,.03-1.77-.47-4.83-1.13-6.58-.91-2.41-2.41-3.17-2.89-.13Z"/><path class="cls-1" d="M58.17,61.24c-.34-.69-1.73-2.95-2.63-2.49-.73.24-.86,1.6-.84,2.26.01.42.9,3.42,1.09,3.83.45,1,2.32,3.97,3.61,3.62,2.68-.73-.18-4.17-.82-5.49-.26-.53-.16-1.19-.42-1.72Z"/><path class="cls-1" d="M75.83,53.98c-1.06-.97-2.93-3.67-4.39-3.18-.96.32-.49,2.22.1,2.88.45.5,1.14.56,1.53.92.61.57,1.27,1.55,2.17,2.42.83.79,1.6,2.59,3.22,1.41,2.21-1.61-1.61-3.53-2.63-4.45Z"/></g></svg>