<?xml version="1.0" encoding="UTF-8"?><svg id="Layer_2" xmlns="http://www.w3.org/2000/svg" viewBox="0 0 84.33 69.58"><defs><style>.cls-1{fill:#f23d3d;}</style></defs><g id="Layer_3"><path class="cls-1" d="M28.23,46.16c.95-2.28-1.73-3.11-3.37-3.5-1.67-.4-5.94-1.05-7.56-1.01-2.97.08-2.71,1.89-3.83,3.54-.79,1.16-3.77,4.17-3.96,5.21-.25,1.34-.08,6.6.36,7.87.18.52.71.72.98,1.16.42.7,1.28,3.34,2.45,1.18,1.02-1.88,1.31-3.69,2.09-5.55.22-.52,1.59-4.19,2.15-5.04.23-.35,1.72-1.71,2.18-1.94,2.61-1.3,7.49.52,8.5-1.91Z"/><path class="cls-1" d="M12.86,33.26c1.96-.9,3.11,1.14,4.43,1.37,1.33.23,3.18-.17,4.59,0l.46-.75c-.62-2.49-2.02-1.93-3.68-2.45-.75-.23-3.07-1.43-3.95-1.86-.68-.32-1.19-1.54-2.13-1.84-2.41-.76-2.54.76-4.02,1.82-2.26,1.62-5.05,2.38-6.01,5.3-.17.52.01,1.17-.15,1.69-.69,2.25-1.99,3.87-.38,6.33,1.99,3.03,3.06-1.6,4.75-2.8.47-.33,2.63-3.79,3.21-5.1.17-.39,2.56-1.57,2.89-1.72Z"/><path class="cls-1" d="M4.44,25.14c.17-.03,2.52-1.71,2.89-2,1.22-.94,1.37-1.85,3.44-2.37,2.03-.51,2.21.4,3.84.94.55.18,1.28,0,1.94.21.78.24,1.96,1.6,2.82,2.07.29.16,2.93,1.19,3.11,1.17.45-.05,2.25-1.56,2.32-2.01.19-1.43-.71-1.68-1.43-2.4-1.26-1.25-2.76-2.07-3.95-3.24-2.92-2.86-1.58-4.21-6.63-2.67-.74.22-1.29.76-2.37,1-3.83.86-4.62.07-7.82,3.19C1.94,19.68-.08,22.02,0,22.85c.98,1.86,2.29,2.71,4.44,2.3Z"/><path class="cls-1" d="M75.29,44.82c-.86-1.49-1.76-3.85-3.43-4.52-.51-.2-4.72-.41-5.56-.39-1.4.04-4.02.51-5.24,1.18-.34.19-2.68,2.16-2.79,2.42-.55,1.21.63,2.59,1.82,2.76,2.65.36,6.05-.84,8.57-.95,3.93-.16,2.7,3.09,2.9,5.69.2,2.65.6,2.47,1.5,4.31.56,1.14,1.2,4.46,3.09,3.64.95-.41,1.25-2.98,1.26-3.98.02-2.29-.19-6.95-1.1-9.02-.14-.33-.75-.66-1.01-1.13Z"/><path class="cls-1" d="M31.97,52.39c-2.08,0-3.53-.74-6.03-.55-.62.05-2.25.18-2.69.37-.28.12-2.39,2.34-2.52,2.67-.29.71-.3,1.46-.24,2.22.28,3.07,2.93,8.35,5.34,10.25.18.14,2.54,1.16,2.78,1.2,3.63.66,1.88-2.69,1.11-4.48-.21-.48-1.52-3.77-1.59-4.24-.51-3.59,4.71-2.56,5.98-3.47.14-.1,1.97-2.7,2.04-2.86,1.08-2.47-2.92-1.12-4.2-1.11Z"/><path class="cls-1" d="M83.25,35.33c-1.76-3.5-5.34-5.12-8.6-6.69-1.1-.53-1.82-1.94-3.77-1.61-.18.03-2.37.9-2.65,1.04-1.45.71-4.77,2.95-5.97,4.12-3.49,3.39,1.91,3.3,4.29,2.15,1.63-.79,2.6-3.28,4.54-3.07,2.04.22,2.15,1.93,2.93,2.91.86,1.08,3.92,4.24,4.91,4.88.22.14,3.08,1.32,3.25,1.32.23,0,2-1,2.1-1.15.31-.49-.7-3.27-1.02-3.89Z"/><path class="cls-1" d="M51.67,3.92c.86.47,3.36,2.84,3.63,3.72.53,1.73-1.09,2.22-1.39,3.67-.15.73-.21,2.17.09,2.83.4.9,3.19,2.11,4.12,1.68,1.92-.89.87-3.75,1.29-5.14.12-.39,1.56-2.04,1.78-2.83.89-.46,3.75.94,5.02.78.23-.03,2.65-.95,2.91-1.09,1.22-.66,2.01-2.51.35-3.05-3.25-.23-6.75-1.23-9.97-1.37-1.19-.05-2.09.41-3.27.25-1.45-.2-5.3-3.16-6.13-2.95l-1.09,1.09c-.03,2.16,1.67,1.85,2.69,2.4Z"/><path class="cls-1" d="M61.1,53.2c-1.63-.46-3.4-1.44-5.05-1.67-1.1-.15-5.07-.28-5.98-.02-.89.26-.99,1.4-.76,2.17.45,1.53,4.8,2.64,5.16,2.8.94.42,3.62,1.01,3.9,1.91.67,2.18-1.55,3.31-2.01,5.21-.21.86-.66,5.44-.04,5.87.98.67,3.37-1.85,3.95-2.56.76-.92,3.17-5.13,3.34-6.14.3-1.83-.25-4.09.27-6.01-.66-1.86-1.49-1.18-2.77-1.54Z"/><path class="cls-1" d="M67.81,12.61c-.25.07-.55.89-.97,1.24-3.14,2.56-3.05,3.39-4.28,7.04-.3.9-1.64,1.52-1.38,2.72,2.88,1.05,3.18-.14,4.72-1.84.39-.43,1.82-3.28,3.25-4.09,2.87-1.63,3.38,1.02,5.3,1.98.45.23,2.34,1.04,2.79,1.18,1.71.53,4.41.62,4.74-1.65-.03-.31-1.23-1.92-1.52-2.18-2.9-2.56-5.67-2.15-8.9-3.03-1.37-.37-1.86-1.92-3.75-1.39Z"/><path class="cls-1" d="M20.71,8.86c1.94.72,1.57,1.69,2.28,2.95.16.29,2.32,3.07,2.54,3.27,1.77,1.58,3.3.47,3.24-1.69-.02-.66-.18-1.94-.49-3.31.11-.22.16-.47.08-.71-.51-1.56-.09-3.19,1.07-4.33,1.18-1.16,2.71-1.98,3.43-3.54.23-.49.14-1.08-.36-1.37-.43-.25-1.14-.13-1.37.36-.24.51-.59.93-.99,1.32-.1.08-.19.14-.25.17-.13.07-.27.11-.42.14,0,0,0,0,0,0-.12.02-.23.05-.35.08-.2.04-.39.08-.58.13-1.13.25-2.25.53-3.37.83-.03,0-.05,0-.07,0l-.26.08c-1.21.33-2.41.7-3.61,1.09-.03,0-.05,0-.08.01-.3-.15-.68-.26-1.32-.23-2.69.13-6.73-.08-7.15,3.29.1.19,3.4,2.08,3.72,2.14,1.39.22,2.92-1.21,4.31-.69Z"/></g></svg>