<?xml version="1.0" encoding="UTF-8"?><svg id="Layer_2" xmlns="http://www.w3.org/2000/svg" viewBox="0 0 62.93 71.62"><defs><style>.cls-1{fill:#000000;}</style></defs><g id="Layer_6"><path class="cls-1" d="M36,36.09c1.86,1.29,3.4-10.5,3.61-11.22.3-.99,1.48-4.88,1.7-5.95s2.49-8.65,4.13-12.07c.44-.91.29-2.86,2.53-1.75.91.45.7,4.41.62,5.52-.17,2.47-1.42,8.76-1.58,10.04-.66,5.23-2.77,11.8-2.74,16.86,0,.72.03,1.38.49,1.98,1.69,2.19,3.38-1.53,4.43-2.59,2.75-2.77,4.85-5.15,7.34-7.95,1.05-1.19,1.53-1.5,2.47-2.43.64-.64.47-1.77,1.99-2,3.36-.51,1.48,3.18.7,4.69-1.91,3.71-4.15,7.66-6.26,11.17-.4.66-1.66,2.17-1.8,2.48-.3.69-1.86,3.78-2.29,4.44-2.45,3.74-2.04,5.82-2.83,10.01-.34,1.77-1.22,3.92-1.41,5.62s.28,5.13-.82,6.52c-.27.34-2.35,1.49-2.76,1.54-.67.08-17.88.88-19.16.54-1.71-.44-2.45-2.09-3.59-3.15-3.8-3.55-13.39-12.62-15.21-16.9-.45-1.06-.63-1.49-1.13-2.54-.79-1.65-1.68-4.57-1.96-5.07-1.74-3.08-1.54-8.01-2.46-11.52l.74-.53c1.42-.12,7.57,8.96,9.76,11.97,1.15,1.57,2.37,4.46,3.4,5.77.88,1.12,3.41,2.26,4.44.8,1.22-1.71-.98-7.79-1.21-9.84-.28-2.46-.7-15.63-2.18-18l-.55-15.23c.14-.48.71-1.52,1.28-1.42,1.64.29,2.42,7.68,2.95,9.3,1.15,3.51,2.31,7.17,3.28,10.79.9,3.35,1.19,7.35,2.43,10.72.58,1.59,2.68,2.47,3.14.8,1.09-3.92.29-7.17.61-11.01.24-2.76.88-6.29,1.86-8.84l.3-16.21c.2-1.1,1.77-1.94,2.6-1.09,1.05,1.07,1.96,10.51,2.2,11.86.94,5.35.02,11.33.69,16.74.13,1.02.05,6.18.27,7.14Z"/></g></svg>