<?xml version="1.0" encoding="UTF-8"?><svg id="Layer_2" xmlns="http://www.w3.org/2000/svg" viewBox="0 0 71.93 70.05"><defs><style>.cls-1{fill:#000000;}</style></defs><g id="Layer_3"><path class="cls-1" d="M69.52,15.82C61.62,1.46,44.3-1.03,29.78.32c-3.48.32-10.18,2.25-11.18,2.58-2,.68-6.99,3.84-8.72,5.35-.81.71-5.18,5.45-5.49,6.13-.28.64-1.55,4.03-1.86,4.87C.48,24.96-.92,34.49.72,40.38c2.23,8.03,8.5,12.69,15.17,16.63.55.33,1.25.35,1.78.67,2.6,1.57.38,6.35,1.33,9.07.65,1.86,3.01,4.04,5.04,3.07.44-.21,1.71-2.18,1.9-2.69.53-1.45.45-5.94.32-7.65-.06-.85-.5-4.16-.69-4.82-.06-.21-1.21-1.7-1.45-1.91-2.36-2.17-4.07-.28-6.25-1.4l-7.98-8.54c-1.85-4.31-2.83-6.2-2.61-11.14.61-13.73,9.92-22.78,23.39-24,11.03-1,24.08.03,30.54,9.82,6.47,9.8,3.44,20.1-3.18,28.55-1.41,1.8-3.03,3.88-5.02,5.07-.76.46-3.2.7-3.77,1.27-.09.09-.88,2.08-.92,2.3-.31,1.66.56,8.83.89,10.9.21,1.33.8,2.55,2.12,3.08,2.59,1.05,4.39-3.5,4.57-5.5.26-2.8-1.03-6.18,2.03-7.76.73-.37,7.88-6.93,8.58-7.77,1.45-1.74,4.84-9.81,5.22-12.06.58-3.49-.14-15.95-2.22-19.73Z"/><path class="cls-1" d="M49,38.83c.36.06,3.22.21,3.46.16,3.19-.62,6.16-5.11,6.51-7.93.28-2.28-.11-5.46-1.99-7.02-1.25-1.04-5.39-4.05-6.95-4.05-2.83,0-8.1,4.35-8.1,8.63,0,.72.49,4.4.69,5.17.13.51,1.05,1.95,1.44,2.33.58.56,4.2,2.6,4.94,2.72Z"/><path class="cls-1" d="M28.06,25.88c-.52-.55-3.07-2.45-3.72-2.71-.43-.17-5.45-.59-5.82-.48-.2.06-2.9,2.4-3.14,2.68-.19.23-1.75,2.62-1.82,2.77-1.45,3.19.45,7.5,2.59,9.94,2.06,2.36,7.23,1.72,7.79,1.67.33-.03,2.75-1.08,2.94-1.35.32-.45,2.73-3.34,2.98-4.38.07-.3-.29-5.83-.41-6.17-.11-.33-1.09-1.65-1.39-1.97Z"/><path class="cls-1" d="M40.55,52.06c-.85.18-1.06.49-1.16,1.3-.51,4.31.39,9.58.48,13.92.52,1.18,2.55,1.25,3.35.31.11-.13,1.05-2.43,1.07-2.62.3-2.14-.1-7.41-.31-9.75-.19-2.13-.96-3.69-3.44-3.15Z"/><path class="cls-1" d="M31.66,52.65c-.57.19-1.42,1.94-1.45,2.56-.05,1,.56,2.04.63,3.06.19,2.69-.58,6.91.91,9.18.65.98,2.35,1.13,2.7-.07.62-2.12-.14-4.67-.24-6.67-.08-1.61.8-9.2-2.55-8.06Z"/><path class="cls-1" d="M41.56,42.07c-.6-.67-.81-1.72-1.28-2.42-.49-.73-1.14-.88-1.47-1.29-.68-.84-1.64-3.27-3.16-2.84-1.49.42-1.92,2.08-2.54,2.99-.92,1.35-2.71,2.76-1.48,4.59,1.87,2.8,3.39-1.56,4.84-1.51,2.13.08,3.72,4.47,5.1.47Z"/></g></svg>