<svg xmlns="http://www.w3.org/2000/svg" width="200" height="300" viewBox="0 0 200 300"><rect width="100%" height="100%" fill="#DDDDDD"/><path fill="#999999" d="M47.79 154.305q.93 0 1.67-.32.74-.31 1.24-.87.51-.57.78-1.37.27-.8.27-1.8v-10.39h3.23v10.39q0 1.55-.5 2.86-.5 1.32-1.43 2.27-.93.95-2.26 1.49-1.33.53-3 .53-1.68 0-3.01-.53-1.34-.54-2.27-1.49-.93-.95-1.42-2.27-.5-1.31-.5-2.86v-10.39h3.23v10.38q0 .99.27 1.8.27.8.78 1.37.51.57 1.24.88.74.32 1.68.32Zm13.33-6.11v5.52q.5.61 1.1.86.59.25 1.29.25.67 0 1.21-.25.54-.25.92-.77.38-.51.58-1.3.2-.78.2-1.85 0-1.08-.17-1.83t-.5-1.22q-.32-.47-.78-.68-.47-.22-1.05-.22-.93 0-1.58.39-.64.39-1.22 1.1Zm-.4-3.06.24 1.14q.76-.85 1.72-1.38.96-.53 2.26-.53 1 0 1.84.42.83.42 1.44 1.22.6.8.93 1.97.33 1.17.33 2.68 0 1.38-.37 2.55-.37 1.18-1.06 2.04-.69.87-1.67 1.35-.98.49-2.19.49-1.03 0-1.76-.32t-1.31-.88v5.04h-2.96v-16.33h1.81q.57 0 .75.54Zm11.1-6.06h2.97v17.83h-2.97v-17.83Zm11.38 5.33q1.37 0 2.49.44t1.92 1.26q.8.82 1.23 1.99.43 1.18.43 2.63 0 1.46-.43 2.64-.43 1.18-1.23 2-.8.83-1.92 1.28-1.12.44-2.49.44-1.38 0-2.51-.44-1.13-.45-1.92-1.28-.8-.82-1.24-2-.44-1.18-.44-2.64 0-1.45.44-2.63.44-1.17 1.24-1.99.79-.82 1.92-1.26 1.13-.44 2.51-.44Zm0 10.4q1.54 0 2.27-1.03.74-1.03.74-3.03 0-1.99-.74-3.03-.73-1.05-2.27-1.05-1.56 0-2.31 1.05t-.75 3.03q0 1.98.75 3.02t2.31 1.04Zm14.84-1.08v-2.08q-1.28.06-2.16.23-.87.16-1.4.41-.53.25-.76.59-.22.33-.22.73 0 .78.46 1.12.46.33 1.2.33.92 0 1.58-.33.67-.33 1.3-1Zm-6.26-6.47-.53-.95q2.13-1.94 5.11-1.94 1.08 0 1.94.35.85.36 1.44.99.58.63.89 1.5.31.88.31 1.92v7.78h-1.35q-.42 0-.65-.13-.22-.12-.36-.51l-.26-.88q-.47.42-.91.73-.45.32-.93.54-.48.21-1.02.33-.55.11-1.21.11-.78 0-1.44-.21-.66-.21-1.14-.63-.48-.42-.74-1.04-.27-.63-.27-1.45 0-.47.16-.93.16-.47.51-.89.35-.42.92-.79.56-.37 1.38-.65.83-.27 1.92-.45 1.09-.17 2.49-.21v-.72q0-1.23-.52-1.83-.53-.59-1.53-.59-.72 0-1.19.17-.48.17-.84.38t-.65.37q-.29.17-.65.17-.32 0-.53-.16-.22-.16-.35-.38Zm19.67 6v-5.52q-.51-.61-1.1-.86-.59-.25-1.28-.25-.67 0-1.21.25-.54.25-.92.76-.39.51-.59 1.3-.21.78-.21 1.85 0 1.08.18 1.83.17.75.5 1.22.32.48.79.69.47.21 1.04.21.93 0 1.57-.39.65-.38 1.23-1.09Zm0-14.18h2.96v17.83h-1.81q-.59 0-.74-.54l-.26-1.19q-.74.85-1.71 1.38-.96.53-2.25.53-1 0-1.84-.42-.84-.42-1.45-1.22t-.94-1.97q-.33-1.18-.33-2.69 0-1.37.38-2.54.37-1.18 1.06-2.04.7-.87 1.67-1.35.97-.49 2.19-.49 1.03 0 1.76.32.73.33 1.31.88v-6.49Zm23.13 3.05h-7.7v5.13h6.5v2.58h-6.5v7.07h-3.24v-17.35h10.94v2.57Zm2.27 2.47h2.98v12.31h-2.98v-12.31Zm3.39-3.59q0 .38-.16.72-.16.34-.41.59-.26.25-.61.4-.35.15-.74.15t-.73-.15q-.34-.15-.59-.4-.26-.25-.41-.59-.15-.34-.15-.72 0-.4.15-.74.15-.35.41-.6.25-.26.59-.41.34-.15.73-.15.39 0 .74.15t.61.41q.25.25.41.6.16.34.16.74Zm2.65-1.93h2.96v17.83h-2.96v-17.83Zm8.27 10.26h5.59q0-.58-.16-1.09-.17-.51-.49-.89-.32-.39-.82-.61-.5-.22-1.16-.22-1.28 0-2.02.73t-.94 2.08Zm7.56 1.79h-7.62q.07.94.33 1.63.27.69.7 1.14.43.45 1.02.68.6.22 1.32.22.72 0 1.24-.17t.91-.37l.69-.37q.29-.17.57-.17.37 0 .55.27l.85 1.08q-.49.58-1.1.97-.62.39-1.28.62-.67.24-1.36.33-.69.1-1.34.1-1.28 0-2.38-.43-1.11-.42-1.92-1.26-.82-.83-1.29-2.06-.47-1.23-.47-2.85 0-1.26.41-2.37t1.17-1.93q.76-.82 1.86-1.3 1.1-.48 2.48-.48 1.16 0 2.15.37.98.37 1.69 1.08.71.72 1.11 1.76.4 1.03.4 2.37 0 .67-.14.9-.15.24-.55.24Z"/></svg>