<svg xmlns="http://www.w3.org/2000/svg" viewBox="0 0 42.95 43"><defs><style>.cls-1{fill:#afa694}</style></defs><g id="Layer_2" data-name="Layer 2"><g id="nav"><path class="cls-1" d="M21.44 0A21.5 21.5 0 1 0 43 21.31 21.35 21.35 0 0 0 21.44 0zm0 40.78A19.48 19.48 0 0 1 2.15 21.41a19.48 19.48 0 0 1 19.4-19.25 19.31 19.31 0 0 1-.13 38.62z"/><path class="cls-1" d="M23.65 14.06c.87-.63 2.27-.53 3.47-.74V9.1c-2.5.12-5-.54-7.15 1-2.47 1.77-1.3 4.64-1.83 7l-2.32.16v4.06l2.47.21V33.8h5.12V21.42h3.42c.13-1.51.24-2.78.37-4.26h-3.85c.08-1.16-.22-2.73.3-3.1z"/></g></g></svg>