<svg xmlns="http://www.w3.org/2000/svg" viewBox="0 0 42.95 43"><defs><style>.cls-1{fill:#afa694}</style></defs><g id="Layer_2" data-name="Layer 2"><g id="nav"><path class="cls-1" d="M21.56 0A21.5 21.5 0 1 0 43 21.6 21.36 21.36 0 0 0 21.56 0zm-.07 40.78A19.45 19.45 0 0 1 2.15 21.5a19.44 19.44 0 0 1 19.3-19.34A19.49 19.49 0 0 1 40.8 21.45a19.46 19.46 0 0 1-19.31 19.33z"/><path class="cls-1" d="M31.66 13.3a4.37 4.37 0 0 1-4.22-.24 4.38 4.38 0 0 0-6.28 3.64c0 .41-.06.83-.1 1.32-3.66-.21-6.47-1.94-9-4.56-1.05 2.2-.54 3.92.8 5.67L11.44 19a4.75 4.75 0 0 0 2.8 4.12l-1.66.51 4.1 3.4-5.51 1.55a2.34 2.34 0 0 0 .36.27 12.63 12.63 0 0 0 18.27-8.27c.44-2 .17-4.24 2.25-5.63l-1.49.22z"/></g></g></svg>