<svg xmlns="http://www.w3.org/2000/svg" viewBox="0 0 42.95 42.91"><defs><style>.cls-1{fill:#afa694}</style></defs><g id="Layer_2" data-name="Layer 2"><g id="nav"><path class="cls-1" d="M22.2 0A21.56 21.56 0 0 0 0 21.29C-.12 32.77 9.28 42.65 20.54 42.9 33 43.18 42.71 34 43 21.74 43.17 10.18 33.65.21 22.2 0zm-1.05 40.75a19.26 19.26 0 1 1 1.5-38.49c9.93.4 18.44 9.51 18.13 19.41-.33 10.81-9.28 19.51-19.63 19.08z"/><path class="cls-1" d="M33.17 16.87a6.91 6.91 0 0 0-6.94-7.13c-3.16-.08-6.33-.08-9.49 0a6.79 6.79 0 0 0-6.85 6.36A97.2 97.2 0 0 0 9.91 27a6.73 6.73 0 0 0 6.69 6.15h9.82a6.83 6.83 0 0 0 6.73-6.65c.06-1.66 0-3.33 0-5 .03-1.5.04-3.07.02-4.63zM30.9 26a4.74 4.74 0 0 1-4.95 5h-8.84a4.74 4.74 0 0 1-5-5.08v-8.68c0-3.08 1.84-5.05 5-5.16 2.94-.1 5.89-.09 8.84 0 3.19.11 5 2 5 5.27-.02 2.82-.01 5.71-.05 8.65z"/><path class="cls-1" d="M21.58 15.79a5.82 5.82 0 0 0-.09 11.64 5.71 5.71 0 0 0 5.83-5.76 5.8 5.8 0 0 0-5.74-5.88zm-.08 9.47a3.63 3.63 0 0 1-.09-7.26 3.63 3.63 0 1 1 .09 7.26zM27.28 13.89c-.33.56-1 1.18-.92 1.65s.91.89 1.41 1.33c.41-.47 1.13-.93 1.14-1.41s-.64-1.06-1-1.6z"/></g></g></svg>