<svg xmlns="http://www.w3.org/2000/svg" viewBox="0 0 115.09 27.74"><defs><style>.cls-1{fill:#afa694}</style></defs><g id="Layer_2" data-name="Layer 2"><g id="nav"><path class="cls-1" d="M49.29 0h4.94l-9.65 27.55h-4.94zM59.18 0h4.94l-9.65 27.55h-4.94zM18.14.29a10.32 10.32 0 1 0 10.4 10.32A10.31 10.31 0 0 0 18.14.29zM4.34.28a32.62 32.62 0 0 1-3.28 0C.24.23 0 .52 0 1.33V26.77c0 .66.16 1 .89.95h3.46c.65 0 .88-.23.88-.87V1.13C5.24.47 5 .26 4.34.28zM114.83 18.21c-.14-1.15-.33-2.3-.56-3.44s-.53-2.33-.86-3.48a17 17 0 0 0-.65-2l-.05-.16v-.08a42.63 42.63 0 0 0-2.3-5.44.78.78 0 0 0-.24-.27 18.11 18.11 0 0 0-4.71-2.45 15.07 15.07 0 0 0-4-.84.77.77 0 0 0-.73.34c-.12.17-.08.22.09.27a25.69 25.69 0 0 1 3.07 1.14 21 21 0 0 1 4 2.21c.09.07.23.11.25.33l-.88-.41a24.48 24.48 0 0 0-3.56-1.33h-.18a.51.51 0 0 0-.15-.07 23.21 23.21 0 0 0-3.59-.78 14.08 14.08 0 0 0-2.43-.23h-.23a10.88 10.88 0 0 0-2.42 0 1.2 1.2 0 0 0-.38 0H94a37.62 37.62 0 0 0-4.33.48 11.87 11.87 0 0 0-1.93.49 1.42 1.42 0 0 0-.4.12 7.13 7.13 0 0 0-1.19.39 18 18 0 0 0-2.42 1h-.17a.49.49 0 0 0-.32.16.59.59 0 0 0-.31.12c-.1 0-.19.13-.33 0a16.72 16.72 0 0 1 1.83-1.23 26.69 26.69 0 0 1 6-2.57c.1 0 .32 0 .28-.16a.42.42 0 0 0-.38-.34h-.14a12.9 12.9 0 0 0-3.19.6 17.62 17.62 0 0 0-5.69 2.78.92.92 0 0 0-.27.32 37.92 37.92 0 0 0-1.67 3.75 13.83 13.83 0 0 0-.61 1.78v.1a.31.31 0 0 0 0 .1 45.38 45.38 0 0 0-1.48 5.49 8.29 8.29 0 0 0-.25 1.57v.1a.93.93 0 0 0 0 .13c-.1.74-.22 1.47-.28 2.21a11 11 0 0 0-.12 1.9.36.36 0 0 0 0 .23 10.39 10.39 0 0 0-.06 1.37.84.84 0 0 0 .16.48 9 9 0 0 0 1.37 1.52A12 12 0 0 0 82.55 27a10.11 10.11 0 0 0 2.56.51h.11c.69.13 1.4.32 1.83-.51v-.05l1.5-1.83c.16-.18.1-.25-.1-.3h-.13a11.37 11.37 0 0 1-4.74-2.91c-.19-.2-.36-.41-.54-.62.55.24 1 .54 1.55.8a24.78 24.78 0 0 0 6.13 2.19 11 11 0 0 0 2 .33h.16a.93.93 0 0 0 .52.07h.23a11.87 11.87 0 0 0 2.46.1h.11a8.64 8.64 0 0 0 1.8-.07h.47a20.53 20.53 0 0 0 2.33-.37 26.36 26.36 0 0 0 5.11-1.68 17 17 0 0 0 2.46-1.3c.07 0 .17-.16.18.05l-.09.1c-.29.31-.58.63-.89.92a11.9 11.9 0 0 1-4.45 2.47c-.36.11-.36.13-.13.41.54.66 1.1 1.3 1.6 2a.88.88 0 0 0 .87.38 14 14 0 0 0 5.71-1.55 11.29 11.29 0 0 0 3.61-3 1.18 1.18 0 0 0 .28-.81 39 39 0 0 0-.23-4.12zm-24.75-5.87a3.27 3.27 0 0 1 2.54 2 3.35 3.35 0 0 1 .38 1.54 3.56 3.56 0 0 1-3 3.64 3.11 3.11 0 0 1-3-1.19 3.66 3.66 0 0 1-.87-2.61 3.45 3.45 0 0 1 3.95-3.38zm9.68.59a3.22 3.22 0 0 1 4.67.94 3.75 3.75 0 0 1-.88 5.05 3.28 3.28 0 0 1-1.88.64 3.42 3.42 0 0 1-3.18-2.36 3.76 3.76 0 0 1 1.27-4.27z"/></g></g></svg>