<svg xmlns="http://www.w3.org/2000/svg" viewBox="0 0 1365 119.11"><path d="M1365 55v64.13H0V39.71c5.75-.69 11.05-2.34 17-1.78a28 28 0 0 1 16.44 7.32c3.35 3.08 7.61 7.85 9 12 .07.22.54.68.68 1 .88-.17 2.26-.52 2.26-.53A66 66 0 0 1 56 56.51a61.67 61.67 0 0 1 17.09 2.13A66.43 66.43 0 0 1 103 76.08a90.36 90.36 0 0 1 10.09 12.46c22.86.67 45.72 2.2 68.39 3.64l8.25.52c.18-15.17 1.32-30.31 3-45.41 1.5-13.48.84-31.94 14.11-41.63 13.52-9.88 34.21-6.74 39.21 8.67 2.19 6.72 1.45 14.11 1.44 21V95.17q5.18.07 10.35.08V30.59c0-6.64.91-13.68 7.13-18.37 6.37-4.8 15.62-4.69 23.56-3.53 8.6 1.26 14.67 6.25 15.58 13.67.94 7.67.53 15.61.64 23.33s.19 15.49.2 23.23q0 12-.11 23.9c14.82-1.59 29.51-3.94 44.27-7a109.57 109.57 0 0 1 44.76-.25c14.79 2.92 29.22 6.89 44.1 9.57 19.87 3.56 40 6 60.13 8.11 11.85.2 23.71.17 35.54 0 34.21-.35 68.43-1.51 102.63-.55 35.08 1 69.72 5.07 104.23 10.27 9.39 1.41 18.76 2.86 28.13 4.29q44.73.15 89.45-1.16a39.59 39.59 0 0 1 15.06-5.64c9-1.3 17.77-.37 26.59 1 2.28-23.26 30-42.84 58.28-38.12a8.27 8.27 0 0 1 3.48 1.44c6.06-6.6 14.39-11.42 23.87-14.13 12.14-3.47 24.24-2.07 35.87 1.92 4.55 1.55 10.25 4.22 15.29 3 3.49-.83 6.08-3.33 8.47-5.51 7.25-6.64 13.59-12.78 23.73-16.33s20.83-4.2 31.49-5.38c8.47-.94 17.91-2.11 24.8-6.76 4.8-3.23 8.58-7.36 13.6-10.41a34.05 34.05 0 0 1 14.53-4.63 39.7 39.7 0 0 1 19 3q1.27-2.93 2.41-5.91c1.68-4.37 6.48-6.49 11.69-5.6 8.83 1.5 14.92 8.82 15 16.25a15.25 15.25 0 0 1-1.64 7 13.69 13.69 0 0 1 5.22 4.28c5.21 7.27.14 15.58-8.08 19.21-1.5.66-3.11 1.1-4.63 1.72l-.39.15c1.43.53 3.64 1.31 4 1.38 3.2.58 6.2 1 9.09 1.51a73.13 73.13 0 0 0 13.91-5.2c12.76-6.26 27-13.41 42.2-8.71 3.45 1.07 7 3.08 10.63 3.66 2.17.34 2.92-.16 4.9-1.2 5.58-2.94 10.48-6.4 17.43-6.48 8.38-.11 13 5.48 19.53 8.86a53.53 53.53 0 0 0 17.59 5.19c11.11 1.49 22.75.62 34-.66z" style="fill:#e0dcd1" data-name="Layer 2"/></svg>