<svg xmlns="http://www.w3.org/2000/svg" viewBox="0 0 45.66 45.72"><defs><style>.cls-1{fill:#998f7e}</style></defs><g id="Layer_2" data-name="Layer 2"><g id="content"><path class="cls-1" d="M22.8 0a22.69 22.69 0 0 1 22.86 22.66A22.83 22.83 0 1 1 22.8 0zm0 43.36a20.53 20.53 0 0 0 .12-41.06A20.71 20.71 0 0 0 2.29 22.76a20.7 20.7 0 0 0 20.49 20.6z"/><path class="cls-1" d="M28.53 22.77h-3.64v13.17h-5.44v-13l-2.63-.23v-4.36l2.47-.17c.56-2.52-.69-5.57 1.94-7.45 2.28-1.63 4.95-.93 7.6-1.06v4.49c-1.27.23-2.75.12-3.68.79-.55.39-.23 2-.32 3.3h4.09z"/></g></g></svg>