<svg xmlns="http://www.w3.org/2000/svg" viewBox="0 0 45.78 45.72"><defs><style>.cls-1{fill:#998f7e}</style></defs><g id="Layer_2" data-name="Layer 2"><g id="content"><path class="cls-1" d="M22.78 45.72A22.84 22.84 0 0 1 0 22.55C.13 9.8 10.47-.1 23.55 0 35.6.09 45.87 10.67 45.78 22.89a22.94 22.94 0 0 1-23 22.83zm0-2.37a20.5 20.5 0 0 0 .51-41C12 2.2 2.49 11.24 2.39 22.25c-.1 11.75 8.79 20.98 20.4 21.1z"/><path class="cls-1" d="M33.67 33.74h-4.49v-7.9c-.05-2.25-1.23-3.29-3.07-2.8-1.47.39-1.9 1.54-1.92 2.89v7.71h-4.36V19.08c1.57.56 3.49-.94 4.63 1.25a13.79 13.79 0 0 1 2-1.22c3.35-1.35 6.8.48 7.12 4.08.33 3.45.09 6.94.09 10.55zM12.47 19.26H17v14.42h-4.53zM17.33 14.68a2.59 2.59 0 0 1-2.71 2.64 2.68 2.68 0 1 1 .06-5.32 2.6 2.6 0 0 1 2.65 2.68z"/></g></g></svg>