<svg xmlns="http://www.w3.org/2000/svg" xmlns:xlink="http://www.w3.org/1999/xlink" viewBox="0 0 2029.87 1267.37"><defs><style>.cls-1{fill:#fff;}.cls-2{fill:url(#linear-gradient);}.cls-3{fill:url(#linear-gradient-2);}.cls-4{fill:#d0ccc0;}.cls-5{fill:url(#linear-gradient-3);}.cls-6{fill:url(#linear-gradient-4);}</style><linearGradient id="linear-gradient" x1="1014.84" y1="1185.86" x2="1014.84" y2="47.72" gradientUnits="userSpaceOnUse"><stop offset="0.75" stop-color="#d0ccc0"/><stop offset="1" stop-color="#bcb4aa"/></linearGradient><linearGradient id="linear-gradient-2" x1="1014.83" y1="477.84" x2="1014.83" y2="243.41" gradientUnits="userSpaceOnUse"><stop offset="0" stop-color="#d0ccc0"/><stop offset="1" stop-color="#c6c2b7"/></linearGradient><linearGradient id="linear-gradient-3" x1="1014.83" y1="1021.75" x2="1014.83" y2="787.32" xlink:href="#linear-gradient-2"/><linearGradient id="linear-gradient-4" x1="1014.83" y1="747.59" x2="1014.83" y2="508.31" xlink:href="#linear-gradient-2"/></defs><g id="Layer_2" data-name="Layer 2"><g id="Layer_2-2" data-name="Layer 2"><rect class="cls-1" x="0.19" width="2029.47" height="216.03"/><path class="cls-2" d="M2028.41,185.9c-26.19,5.61-52.79,6.24-65.59,4.25l.07-4.25.2-13.32a.5.5,0,0,0,.36-.11,83.91,83.91,0,0,1,19.54-12c2-.89,4.12-1.7,6.23-2.43.62-.21.35-1.2-.27-1a84.86,84.86,0,0,0-21,10.66c-1.68,1.17-3.3,2.41-4.88,3.69l.19-12.57a14.7,14.7,0,0,1,1.91-2.19,18.69,18.69,0,0,1,6-3.49h13.17a.51.51,0,0,0,0-1h-10.79a13.23,13.23,0,0,0,1.63-.94,17.87,17.87,0,0,0,3-2.72c.48-.52,1-1.06,1.42-1.59a.52.52,0,0,0,.7.24,10.68,10.68,0,0,1,5.44-1.11c1.8.11,3.55.82,5.37.66,3.21-.28,5.64-2.68,7.75-4.88.45-.47-.27-1.2-.72-.72-2.17,2.27-4.74,4.84-8.14,4.58-1.79-.13-3.47-.73-5.27-.68a11.68,11.68,0,0,0-4.3,1l3.72-4.27,6.84-7.82c.43-.49-.29-1.22-.73-.72l-9.44,10.8a.49.49,0,0,0-.51.11l-.87.87c-.89-4.36-1.82-8.71-2.66-13.08a.45.45,0,0,0,.29-.13,25.76,25.76,0,0,1,7.56-4.93.52.52,0,0,0,.19-.7.53.53,0,0,0-.7-.18,26.39,26.39,0,0,0-7.54,4.88c-.61-3.37-1-7.31,1.37-10.1.42-.5-.3-1.23-.72-.72-2.57,3.08-2.31,7.25-1.66,11,.8,4.6,1.83,9.16,2.77,13.73a2.09,2.09,0,0,0-.43,1.47,2.07,2.07,0,0,0,.18.69.41.41,0,0,0,.1.13l-.28.32a18.38,18.38,0,0,1-3,2.93,17,17,0,0,1-3.76,1.9l-.1,0h-.25a.45.45,0,0,0-.44.28,18.69,18.69,0,0,0-5.66,3.32,13,13,0,0,0-1.37,1.41l.15-9.92a.85.85,0,0,1,.14-.19,9.81,9.81,0,0,0,8-6.88,7.92,7.92,0,0,0,.14-3.9c-.14-.64-1.13-.37-1,.27a7.74,7.74,0,0,1-2.2,6.89v-1a5.16,5.16,0,0,0,0-1.36V141h0s0-.09,0-.14a.38.38,0,0,0-.08-.17,66.59,66.59,0,0,1,5-16.62c.26-.59-.61-1.11-.88-.51a67.16,67.16,0,0,0-5.26,17.71,2.71,2.71,0,0,0-.25,1.68.49.49,0,0,0-.3.42,2.63,2.63,0,0,1-1.52,2.18,14,14,0,0,1-1.79.41l.17-11.44a1.8,1.8,0,0,0-1.24-1.84l-.59-1.21a9.69,9.69,0,0,1,.22-6.17,5.24,5.24,0,0,1,1.44-1.89c.7-.57,1.53-1,2.26-1.52,1.55-1.16,1.93-2.78,2-4.64a7.32,7.32,0,0,1,.54-3c.41-.8,1.16-1.63,2.16-1.4.63.15.91-.83.27-1-1.8-.42-3.13,1.11-3.65,2.67-.65,1.94.18,4.42-1.33,6a14.24,14.24,0,0,1-2.43,1.72,6.61,6.61,0,0,0-1.82,1.87,8.14,8.14,0,0,0-1,4.52q-2.1-4.36-4.21-8.72c-.31-.63-1.3,0-.8.65l5.36,10.83a26.74,26.74,0,0,0,.74,2.72c-.31,3.73-.59,7.45-.85,11.19,0,.25,0,.5,0,.75a.36.36,0,0,0-.07.1.38.38,0,0,0-.06-.13,11.87,11.87,0,0,0-4.6-3.6c-1.76-.91-3.73-1.79-5-3.43-1.54-2.05-1.37-4.78-1.19-7.21a17.07,17.07,0,0,0-.33-6.37,5.84,5.84,0,0,0-4.06-4.31c-.65-.14-.92.85-.28,1,1.92.42,3,2.12,3.45,3.91a19.47,19.47,0,0,1,.15,6.42c-.15,2.31-.13,4.81,1.18,6.82a11.31,11.31,0,0,0,4.38,3.48c1.8.94,3.81,1.83,5.09,3.46a.45.45,0,0,0,.27.56c.32.56.56,1,.87,1.55-.21,3-.39,5.93-.39,8.9v.22c-1.79-2.79-5.12-3.92-8-5.17a25.45,25.45,0,0,1-8.42-5.79.55.55,0,0,0,.56-.34,24,24,0,0,0,1.37-12.38c-.64-4.23-3.17-8.39-2.49-12.75.1-.65-.88-.92-1-.27-.68,4.32,1.53,8.25,2.34,12.39a23,23,0,0,1-1.23,12.74.27.27,0,0,0,0,.13c-.08-.1-.17-.18-.25-.27a24.7,24.7,0,0,1-2.65-3.7.44.44,0,0,0,0-.47l-.78-1.1a.56.56,0,0,0-.06-.33c.19.13.4.24.6.37-.16-.23-.31-.46-.46-.7s-.28-.41-.43-.61-.45-.49-.66-.74a21.89,21.89,0,0,0-14-1.84c-.65.13-.38,1.11.27,1a20.77,20.77,0,0,1,13.06,1.68.47.47,0,0,0,0,.54l.62.88s0,.06,0,.08a25.57,25.57,0,0,0,7,8.74,24.94,24.94,0,0,0,3.93,2.59,7.64,7.64,0,0,0-.82.1.43.43,0,0,0-.31.26,30,30,0,0,0-19.42,0,12.68,12.68,0,0,0-4.75-6.84c-.53-.39-1,.5-.51.88a11.56,11.56,0,0,1,4.41,6.75.54.54,0,0,0,.63.36,29.15,29.15,0,0,1,20.37.19.4.4,0,0,0,.54-.19l2.19-.12a.57.57,0,0,0,.34-.13c1,.41,2,.82,3,1.29a9.47,9.47,0,0,1,4.47,3.74.44.44,0,0,0,.62.19v7.71a1,1,0,0,1-.81,1.05,24.07,24.07,0,0,0-11.94-9.84c-.62-.23-.89.75-.28,1a23.08,23.08,0,0,1,12,10.4q-.13,8.51-.26,17c0,1.5,0,3-.07,4.5-1.89.09-3.77.18-5.66.24q-1.15-2.37-2.29-4.74l0-.07a.71.71,0,0,0-.44-.92c-.49-1-1-2-1.48-3.08a.47.47,0,0,0-.44-.25,3.92,3.92,0,0,0-1.13.33.49.49,0,0,0-.54.33,3.82,3.82,0,0,0-1.09,1.27c-.49-.44-1.22.41-.55.88l.09.22a9,9,0,0,0-.31,1.29,12.37,12.37,0,0,0-.15,2,12.08,12.08,0,0,0-.23,2.93c-8.06,0-16.16-.25-24.33-1-1.48-.13-3-.28-4.44-.43a190.3,190.3,0,0,1-20-1.63c-8.19-.36-16.39-1-24.54-1.9q-3.19-.36-6.38-.78c-3.32-.35-6.63-.7-9.93-1.13-22.44-1.85-17.54-4.3-39.89-7a23.18,23.18,0,0,0-8.31-5.4,11.7,11.7,0,0,0-6.26-.4c-2.55.55-4.59,2.32-7.09,3a2.65,2.65,0,0,0-.3.11q-21.18-2.7-42.34-5.48c-47.75-6.18-95.59-12-143.72-14.2a7,7,0,0,1-6.82-6.83c0-.09,0-.19,0-.29l-4.65-.25a6.89,6.89,0,0,1-6.7-5.92,5.14,5.14,0,0,1-.06-.88c-1.32-.27-2.63-.56-3.94-.87,2-.37,2.07-3.25.11-4-.6-.22-1.18-.46-1.77-.7a1.64,1.64,0,0,0,.1-2.19l-4.54-6-.79-2.15c.8.25,1.59.57,2.36.79l5.24,1.67a1.74,1.74,0,0,0,2.12-.68,26.06,26.06,0,0,1-8.48-7.84,27.49,27.49,0,0,1-5.15-6v-.14c0-.13,0-.25,0-.37a3.49,3.49,0,0,0,.79,0,1.58,1.58,0,0,0,1.48-1.13c0-.11,0-.22,0-.33a11.69,11.69,0,0,0,4.4-2,1.55,1.55,0,0,0-.78-2.86,34.8,34.8,0,0,1-6.14-1.32c0-1.68,0-3.36,0-5a16.65,16.65,0,0,1-1-6.79,2.21,2.21,0,0,0-1-.13c-1.37,12.13-3.23,25.4-16.12,29.88l-.19,0a2.07,2.07,0,0,0,1.9,1.47,25.48,25.48,0,0,0,7.16-.54l0,.06a2.09,2.09,0,0,0,1.49,3.05,9.05,9.05,0,0,0-.06,3.29,1.09,1.09,0,0,0,.07.24,15.26,15.26,0,0,1-2.54,1.39,1.86,1.86,0,0,0-1.93-2.25,24.44,24.44,0,0,1-18.22-8.09,34.72,34.72,0,0,0-1.92-3.36,41.26,41.26,0,0,0,3.73,2.66,22.56,22.56,0,0,0,2.87,1.66c2.35,1.11,4.42-2.3,2.07-3.53-.82-.43-1.62-.88-2.39-1.36a19.19,19.19,0,0,1-3.61-3.1c1.89,1.72,4.47,3.94,6.41,1.24,1.71-2.38,0-5.06-2.3-6.1a37.19,37.19,0,0,0-5.11-1.8c-.74-.8-1.45-1.63-2.13-2.48h.5l15.61.38a1.75,1.75,0,0,0,1.22-.43A30.81,30.81,0,0,1,1543.79,98l0,0a2.24,2.24,0,0,0-.36-.31,26,26,0,0,1-11.23-18.55,2.11,2.11,0,0,0-1.33-1.79,18.91,18.91,0,0,1-2.48,4.78l-.3.72,0,3.68a2.12,2.12,0,0,0-.26.38,46.44,46.44,0,0,1-6.92,9.89v0a27.25,27.25,0,0,1-5.48,7.79,62.09,62.09,0,0,1-5.34,3.89,1.85,1.85,0,0,0,2.45.38,51.23,51.23,0,0,0,9.17-7c-.22.58-.43,1.17-.63,1.76a1.76,1.76,0,0,0,.35,1.86,2.79,2.79,0,0,1,.8.48l.29.08-.1.1a2,2,0,0,1-.14,3.07c-1.1.87-2.21,1.7-3.34,2.5a2.46,2.46,0,0,1-1.34,1.29c-1.89.76-3.1,2.62-4.72,3.78a7.61,7.61,0,0,1-2.26,1.1,1.73,1.73,0,0,0,1.93,2.09,38.14,38.14,0,0,0,13.51-4.07q-3.4,4.09-6.59,8.34a1.6,1.6,0,0,0-.08,2c-.55.39-1.12.76-1.7,1.11-1.6,2.4-4.32,4-6.37,5.93-.3.3-.61.59-.92.88a2.19,2.19,0,0,0,1.63.81,18.07,18.07,0,0,0-2.55,1.14c-2,1.11-.65,4.44,1.57,3.74l8.46-2.66c3.94-.71,7.94-1.19,11.34-3.28-.11.16-.21.32-.31.49l-1.46.78,0,0a1.25,1.25,0,0,0-.12.08l-10,5.34c-2,1.07-.59,4.65,1.57,3.74l5.08-2.14v.08l-16.82,8-8.3.1-6.53-8.65c-1.71,0-3.43,0-5.14.09-2.07.08-5.72,0-8.2.68a.76.76,0,0,0,0,.21,1.51,1.51,0,0,0,.09.18,4.43,4.43,0,0,0-1.91,2.11,36.16,36.16,0,0,1-3.56,6l-2.84,0-7.7-.08c-.26-7.37-3-15.21-9-19.15-2.3-1.52-5.15-1.41-7.8-1.56l-8.91-.51c-3.22-.19-10.49-1.74-11.93,2.44-1.58,0-3.15-.07-4.73-.13l-2.48-2.48-.37-7c0-.52-.14-1.2-.23-1.9,1.11,0,2.21.11,3.32.2,2.23.19,2.8-2.59,1.65-4q-8.39-10.32-17.62-19.89c-2.58-2.67-5.15-5.73-8.28-7.8s-6.48-2.23-10-2.6l-2.22-.24-.41-10a2.44,2.44,0,0,0-2.78-2.27,2.38,2.38,0,0,0-2.71,2.23q-.2,3.38-.31,6.75-.09,1.31-.12,2.61l-2.54-.27c-.09-1.29-.19-2.57-.28-3.86-.13-1.81-.2-3.83-2.26-4.46a3.52,3.52,0,0,0-.52-.12,2.5,2.5,0,0,0-3.54,2.72h0a26.73,26.73,0,0,0-.88,4.91l-11.88-1.27a45.89,45.89,0,0,1-.44-7.86,2.37,2.37,0,0,0-2.34-2.33c-2.16-.07-4.72-.35-5.24,2.35a31.76,31.76,0,0,0-.08,7l-1.48-.16c-.18-1.38-.33-2.77-.42-4.17a2.39,2.39,0,0,0-2.4-2.34h-2.79a2.4,2.4,0,0,0-2.35,2.34c0,1.1,0,2.21,0,3.31l-6.07-.65a1.89,1.89,0,0,0-1.78.69c-1.29-1-3,0-3.37,1.5-1.91,1.86-3.39,5-4.52,6.59a219,219,0,0,1-20.77,24.43c-2.11,2.15,1.2,5.46,3.31,3.31,1-1,2-2.07,3-3.12q.51,4,1.09,7.91-.7,10.92-1.06,21.85-38.07,4.29-76.16,8.26a218.14,218.14,0,0,0-24.94,1.57l-.23.05a10.74,10.74,0,0,0-1.69.16q-8.67,1.48-17.36,2.74l-18.3,1.81c-58.17,2.48-122.23,5.25-165.51,7.09l-11.09-.28c-35.68-1-71.33-2.81-107-4.58-35.85-1.77-71.72-3.5-107.61-4.28-34.68-.75-66-26.49-100.63-24.63-.81-4-2.65-7.74-6.85-9.22a9.73,9.73,0,0,0-2.23-.48,26.9,26.9,0,0,0-.33-4.13c-.32-2.08-2.95-3.25-4.66-3l-2.53-.1a4.66,4.66,0,0,0-1.88-.06q-.78-13.62-1.91-27.22a8,8,0,0,0-.16-2.14,3.22,3.22,0,0,0-.52-1.12,7.68,7.68,0,0,0,.16-1.81,6.91,6.91,0,0,0-.79-3.53,6.9,6.9,0,0,0-1.9-3l-1.85-1.43a9.09,9.09,0,0,0-4.63-1.25l-2.44.33a9.11,9.11,0,0,0-4,2.35l-.4.4a6.9,6.9,0,0,0-1.9,3,6.83,6.83,0,0,0-.78,3.57,5,5,0,0,0-.27.51,1.16,1.16,0,0,0-.54,1.06q.2,18.92.38,37.81c0,3.39,0,6.79.08,10.19a7.82,7.82,0,0,0-4.48,2.33c0-1.88-.07-3.76-.1-5.63l-.63-31.87a1.12,1.12,0,0,0-.52-1,9.1,9.1,0,0,0-9-8.86,9.22,9.22,0,0,0-9,9q-1,21.52-.19,43.07c-3.8-.08-7.6-.14-11.4-.15a3.82,3.82,0,0,1-.73-2,2.46,2.46,0,0,1,.34-1.41,3.28,3.28,0,0,1-.34-1.31c-.34-6.34-.66-12.68-.82-19-2.93-3.07-5.56-6.4-8.29-9.65-6.79-5.81-13.6-11.61-20-17.83a8.55,8.55,0,0,0-1.3-.51l-1.57.29c-9.11,1.66-18.21,3.39-27.27,5.29l-4.91,1c-4.72,3.61-9.26,7.48-13.9,11.17l-2.31,1.85q-30.41-.09-60.76-2.39c-3.6-.27-7.19-.58-10.78-.89-.78-4.61-5.62-8.13-10.4-6.38a15.42,15.42,0,0,0-6.31,4.76q-18.6-2-37.1-4.68c-20.27-3-40.55-6.36-60.49-11-19.31-4.53-38.4-10.52-56.12-19.55-1.65-.83-3.27-1.71-4.89-2.59a22.09,22.09,0,0,0,.24-6.18,2.21,2.21,0,0,0,0-.37.06.06,0,0,0,0,0,1.72,1.72,0,0,0-2.3-1.36c-3.43-.31-6.88-.59-10.31-.85l-.6-6c-.26-2.67-5.91-1.72-1.21,3l-1.28,2.79q-19.32-1.4-38.71-1.76V49.2a1.53,1.53,0,0,0-3.06,0v4.61q-4.68-.08-9.36-.09a1.87,1.87,0,0,0-.49.07l-1.26-.12a1.72,1.72,0,0,0-1,.07,1.06,1.06,0,0,0-.48.73,7,7,0,0,0-.08,1.12v.29a15.33,15.33,0,0,0-.19,1.66,17.72,17.72,0,0,0-.76,4.28A152.8,152.8,0,0,1,184.58,87a289.35,289.35,0,0,1-23.51,20.75l.19.08-5.41,4.87a13.37,13.37,0,0,1-8.44-2.87,2.18,2.18,0,0,1-.68-.91,15,15,0,0,1-3.91-3.87,4,4,0,0,0-1.4-2.24,1.54,1.54,0,0,0-2.4,1.86c.26.51.55,1,.85,1.49a1.2,1.2,0,0,1-.92,1.26,1.57,1.57,0,0,0-1.06,1.89,4.66,4.66,0,0,1,0,1.58,3,3,0,0,0-1.18,3.19,1.57,1.57,0,0,0,2.16,1,1.65,1.65,0,0,0,1.35.89,8.44,8.44,0,0,0,1.73,2.07.22.22,0,0,1,0,.08,1.36,1.36,0,0,0-1.13-.49l-2.56,0a1.65,1.65,0,0,0-1.76-1.81,2.54,2.54,0,0,0-3.06,1,10.5,10.5,0,0,0-3.78,3.48c-1.09,1.65,1.57,3.19,2.65,1.55a6.82,6.82,0,0,1,1.36-1.51c.61.58,1.8.66,3.76-1l1.54-.06c.58.5.18,1.1.38,1.71a1.55,1.55,0,0,0,1.88,1.07l.72-.24a1,1,0,0,1,0,.17c-1.6,1.12-3.22,2.23-4.84,3.33a1.24,1.24,0,0,0-.68.18l-.51.3a36,36,0,0,0-4.77,1.57c.64-1.27-.54-3-2-2.12l-5.23,3.23a14.18,14.18,0,0,1-2.18,2.7,10.15,10.15,0,0,1-4,2.31,1.53,1.53,0,0,0,1.68-.12h.34a1.54,1.54,0,0,0,1.78.2l2.56-1.58a1.86,1.86,0,0,0,.53,1.47q-10.16,6.3-20.71,12-10.71,5.74-21.79,10.78A10.52,10.52,0,0,0,77,154.39c-.12-.94-.82-1.74-2.35-1.7l-.07-.21s0-.07-.06-.21a5.26,5.26,0,0,0,1.14-.93,8.22,8.22,0,0,1-1.88-2c-1.11-1.66-2.27-3.28-3.43-4.9l-.18,0c-1.23-4.52-7.2-7.65-11.09-3.87a6.19,6.19,0,0,0-1.77,5.52A19.12,19.12,0,0,1,54.91,150,7.45,7.45,0,0,0,50,151.19a11.48,11.48,0,0,0-1.82,1.13,2.57,2.57,0,0,0-.85,3.19,1.85,1.85,0,0,0,1.07,1.62A13.6,13.6,0,0,0,51,158a6.23,6.23,0,0,1-1.33,3.8,9.37,9.37,0,0,0-9,4.35,2.34,2.34,0,0,0,.36,2.79l.09.07a12,12,0,0,0-4.5,3.24,5.57,5.57,0,0,0-1,1.17,5.28,5.28,0,0,0-.67,1.43,1.14,1.14,0,0,0-.1.19,2.92,2.92,0,0,0-.28,1.29c-6.51,1.87-13,3.73-19.56,5.48-4.87,1.31-9.79,2.64-14.74,3.84H.14V240c0,.88-.08,1.76-.14,2.64l.14,0v943.22H2029.67V185.63ZM1528,100.47a20.33,20.33,0,0,1-2.17,4.29,2.64,2.64,0,0,0-.4,0,5.21,5.21,0,0,0-.57.09.71.71,0,0,0,.08-.15l1.44-3.56c.37-.77.77-1.52,1.21-2.26h0l.48.4C1528.07,99.67,1528,100.07,1528,100.47ZM124.44,159.22c1.32-.53,2.62-1.08,3.93-1.64a2.2,2.2,0,0,0,1.54.68,36.85,36.85,0,0,0,4.82-.07l-.34.48L134,159c-2.15.14-4.29.29-6.44.46a6.11,6.11,0,0,0-1.77-.26Zm20.84-17.61a.75.75,0,0,0,0-.26,3.19,3.19,0,0,0,.56.54.08.08,0,0,0,0,0,1.39,1.39,0,0,0-.4-.21Zm4.38,10.26a1.61,1.61,0,0,0,.9.91.61.61,0,0,0-.05.12,6.78,6.78,0,0,1-.84-.66A1.54,1.54,0,0,0,149.66,151.87Zm.09,4.16c0,.28-.06.55-.08.82a1,1,0,0,0,0,.39c-.06.17-.12.35-.19.53a6.42,6.42,0,0,0-.56.34,2,2,0,0,0-.44.12h-.16a1.45,1.45,0,0,0,0-.3,17.12,17.12,0,0,1,.34-2.6C149.06,155.58,149.4,155.81,149.75,156Zm19.81-16.47a9.5,9.5,0,0,0,4.88.89,2.58,2.58,0,0,0,.92,1.07,5.58,5.58,0,0,0,.59.31,12.54,12.54,0,0,0-1.45,1.94,1.43,1.43,0,0,0,.14,1.7c0,.09-.1.18-.14.27a31.6,31.6,0,0,0-4.58,1.37,3.33,3.33,0,0,0-2.78,0l-.07-.08.09-.08a5.55,5.55,0,0,0,1.05-6.54c-.75-1.5-2.69-.57-2.85.78a2.76,2.76,0,0,1-1.14,1.9,5.68,5.68,0,0,0-.66-4.08l5.24-3.11,11.13-6.65a3.71,3.71,0,0,0,.72,1,4.6,4.6,0,0,0,.52.38,2.26,2.26,0,0,0,.92.52,5.77,5.77,0,0,0,2.1.21,5,5,0,0,0,1.67,1.79l.09.28c0,.1-.07.2-.11.31a7.44,7.44,0,0,1-.86,1.45,6.27,6.27,0,0,0-2.95-.59,1.6,1.6,0,0,0-2.16-1.34c-3.45-2-8,1.14-10.62,3.88A1.55,1.55,0,0,0,169.56,139.56ZM164.1,157c-1.51.08-3,.17-4.51.28a12,12,0,0,0-1.57-3.34,5.23,5.23,0,0,0,1.67.45,6.52,6.52,0,0,0,1,0,1.61,1.61,0,0,0,.72,1.29A16.14,16.14,0,0,0,164.1,157Zm28.74-1c.06-.12.13-.25.18-.37a6.88,6.88,0,0,0,2.39-1.14,1.66,1.66,0,0,0,1,1.12l.33.13a5.09,5.09,0,0,0,.36.88,5.16,5.16,0,0,0-.39.78,1.3,1.3,0,0,0-.06.44C195.39,157.22,194.13,156.51,192.84,155.94Zm67.6-71.11c-3-.92-6.06-1.88-9.06-2.89q4.62-3.61,9.12-7.39Q260.46,79.7,260.44,84.83Zm.07,23.69q-8.1-4.63-16.41-8.94l16.07-8.72a1.2,1.2,0,0,0,.25-.16Q260.42,99.61,260.51,108.52Zm-.07-23.16c0,1,0,2.08,0,3.13a1.44,1.44,0,0,0-1.79-.27L240.8,97.89c-2.17-1.1-4.36-2.17-6.55-3.24q3-2.09,5.91-4.23,5.44-4,10.75-8.11Q255.65,83.92,260.44,85.36Zm-29,11.3c2,1,4.09,2,6.12,3l-14.27,7.75-.06-5.16Q227.32,99.49,231.4,96.66Zm-8.22,5c0-3-.07-5.92-.1-8.88,2.61,1.19,5.2,2.41,7.79,3.65Q227,99.05,223.18,101.64Zm20.7-14.59q-5,3.75-10.15,7.34c-3.54-1.71-7.11-3.39-10.7-5q-.12-9.12-.26-18.25a289.72,289.72,0,0,0,27.57,11Q247.13,84.62,243.88,87.05ZM451,136.45a7,7,0,0,1,2.21.14,4.45,4.45,0,0,1-1,2.56.24.24,0,0,0-.37-.21,9.48,9.48,0,0,1-1.84,1,5.25,5.25,0,0,0-1,.12l-.08-.32C450.89,140.24,452,137.88,451,136.45Zm-.29,4.42a5.31,5.31,0,0,1-.86.43,1.72,1.72,0,0,0,.07-.21A4.42,4.42,0,0,0,450.71,140.87Zm1123.81-5.7.55.32h-.71C1574.41,135.38,1574.47,135.28,1574.52,135.17Zm-1.15-7a2.76,2.76,0,0,0,.3.29l-.52,0C1573.22,128.37,1573.29,128.26,1573.37,128.16Zm-16,7.28h0a2.07,2.07,0,0,0,1.2.95,14.34,14.34,0,0,0,5.49.78,2,2,0,0,0,2.8.91l.93-.42c-3.3,3.28-8,5.29-12.45,6.85a2.13,2.13,0,0,0-.52-.88,65.39,65.39,0,0,1-6.2-7.73A39.79,39.79,0,0,0,1557.41,135.44ZM451.52,106.89a7.7,7.7,0,0,0,.09-2.24c3.47.3,6.94.59,10.41.85q30.17,2.28,60.43,2.42c-1.44,1.14-2.9,2.28-4.38,3.39-2.65,0-5.32,0-8,0-19.81-.13-39.63-1-59.42-2A9.25,9.25,0,0,0,451.52,106.89Zm-6.87,7.32c.56-.29,1.22-.43,1.79-.72a9.48,9.48,0,0,0,4-3.7c19.77,1.06,39.55,1.88,59.33,2q3.82,0,7.65,0c-1.46,1.07-2.94,2.1-4.47,3.06l-15.81,1.77c-4.65.52-8.72.86-12.82,3.25-4.65,2.72-9.27,5.51-13.9,8.27a2.07,2.07,0,0,0,.36,3.68,37.8,37.8,0,0,0,.62,4.89c.31,2.89.66,5.76,1,8.63-7.19.68-14.42.78-21.55,1.41l-1.27-4.84a5.76,5.76,0,0,0,2-1.08h.31l.1-.17c.09-.13.19-.26.29-.38l-.08,0a6,6,0,0,0,1.41-2.55,4.9,4.9,0,0,0,.13-1c2,.47,4.05,1.32,5.79,1.2,2.57-.19,4.68-1.44,5.48-4a2.05,2.05,0,0,0-.94-2.3c.26.16-.32-1.74-.39-1.9a7,7,0,0,0-1.12-1.8,7.18,7.18,0,0,0-4.26-2.41,2.07,2.07,0,0,0-2.3.94c-.56,1.28-1.12,2.57-1.67,3.85a9,9,0,0,1-1.88-.4c1.72-3,2.54-6.59,1.29-9.94a8.73,8.73,0,0,0-8.43-5.84,2.09,2.09,0,0,0-1.79,1.11h0A1.2,1.2,0,0,1,444.65,114.21ZM437,133.92a28.83,28.83,0,0,0,4.22,2.84.21.21,0,0,0,.09.32l.9.4.26.23a7.14,7.14,0,0,1-4.71-1.15,6.67,6.67,0,0,1-1.81-1.82.61.61,0,0,0-.05-.12c-.07-.18-.13-.37-.19-.55A5.85,5.85,0,0,1,437,133.92Zm-173.2-75q4.88.38,9.73.81a18.31,18.31,0,0,1-.05,2.67q-4.83,4.55-9.87,8.87Q263.66,65.08,263.78,58.91Zm-.19,13c3-2.61,6-5.27,9-8,.28-.26.55-.53.83-.78-.06.45-.13.9-.22,1.36-.4,1.92,2.55,2.75,2.95.81l0-.17c17.47,9.55,36.42,16,55.7,20.84,20.83,5.2,42.09,8.78,63.31,11.95q19.61,2.92,39.31,5a16.48,16.48,0,0,0-2.76,5.23h-.07c-25.23-1.48-50.47-3.2-75.62-5.75-23.85-2.42-47.66-5.73-71-11.1q-10.82-2.49-21.48-5.61Q263.51,78.85,263.59,71.94Zm-.1,14.34q7.06,2.09,14.22,3.86c23.73,5.93,48,9.58,72.29,12.2,25.9,2.79,51.91,4.59,77.91,6.16l3.65.22a9.82,9.82,0,0,0-.28,3.75,9.12,9.12,0,0,0,1.58,4c.43.63,1,1.26,1.49,1.92a5.89,5.89,0,0,0-6.4.92c-2,2-1.07,5-.08,7.57a19.93,19.93,0,0,1-2.57.13,2.05,2.05,0,0,0-2,2.58,12.81,12.81,0,0,0,8.47,7.95c1.15.33,2.76-.65,2.59-2a1.13,1.13,0,0,1,.63-1.22,6.84,6.84,0,0,0,1.69,3.08,8,8,0,0,0,5.64,2.36,11.75,11.75,0,0,0,1.68-.08,2.39,2.39,0,0,0,.43.67,11.32,11.32,0,0,1,1.31,4.78c-.22,0-.44-.08-.66-.1-17.28-2.19-34.7-4.39-52.15-3.39-16.9,1-33.21,5.31-49,11.21A298.77,298.77,0,0,1,302.56,162q-13.62-.45-27.22-1.07l-10.44-.47Q263.37,123.37,263.49,86.28Zm-1.66,74c-12.67-.59-25.35-1.17-38-1.65q-.28-24-.52-48a1.55,1.55,0,0,0,.72-.19l16.84-9.14q9.94,5.1,19.61,10.68l.1,0Q260.85,136.18,261.83,160.28ZM240.75,57.52v5.81a1.54,1.54,0,0,0,3.07,0V57.66q8.44.41,16.9,1-.15,7.6-.21,15.21-4.78,4-9.71,7.85a280.56,280.56,0,0,1-28-11.15q-.1-6.84-.22-13.66Q231.65,57.11,240.75,57.52Zm-20,101-1.9-.07c-.11-1-1.14-1.95-2.2-1.19a11.47,11.47,0,0,1-1.86,1.05l-1.2,0a5.57,5.57,0,0,0-3.23-2.16,3.92,3.92,0,0,0,.13-.49,1.55,1.55,0,0,0-1.06-1.88c-1.07-.26-2.14-.46-3.21-.64h0a3.43,3.43,0,0,1-1-.11c-1.24.09-2.51.11-3.78.11h-.19a18.55,18.55,0,0,1-2.78.45,22.07,22.07,0,0,1-2.92.8,6.73,6.73,0,0,0,.81-.79,5,5,0,0,1-3.8-1.8,2.91,2.91,0,0,1-.58-2.42,9.43,9.43,0,0,0,1.59.05,3,3,0,0,0,1.16.36c2.38.2,5-.55,5.67-3.15a2.36,2.36,0,0,0,0-1,24.52,24.52,0,0,1-2.77-1.94,4,4,0,0,1-.9-.26,9.21,9.21,0,0,0-7.53-4.09,10.67,10.67,0,0,1,.13-1.12,6.36,6.36,0,0,0,1.42.33,5.82,5.82,0,0,0,1.18,0,2.32,2.32,0,0,0,1,.24,1.92,1.92,0,0,0,.59-.09,2.44,2.44,0,0,0,.67-.32,6.15,6.15,0,0,1-2.77-.82,2.36,2.36,0,0,1-.89-3.08c0-.09,0-.19,0-.29a3,3,0,0,1,.42-1.06,2.71,2.71,0,0,1,0-1,4.41,4.41,0,0,1,.47-1.2c-.59-.85-1.19-1.7-1.84-2.52a3.32,3.32,0,0,1-.47-.77l-.69-.21a2.65,2.65,0,0,0-.3-.9,3.07,3.07,0,0,0-1.46-1.29c6.13-3.69,12.25-7.43,18.31-11.23q7.59-4.76,15.07-9.68Q220.45,131.39,220.74,158.51ZM209.57,56.79h0c3.29,0,6.58,0,9.87.09l.21,12.25-2-.94c-2.54-1.24-5.05-2.53-7.54-3.85a.19.19,0,0,0-.07-.14l-1-.91a1.77,1.77,0,0,0,0-.2,1.35,1.35,0,0,0-.67-.93A14.14,14.14,0,0,1,209.57,56.79Zm-55.25,57.34-.23.21a7.94,7.94,0,0,1,1-.2h.08a14.81,14.81,0,0,1,2-.11,1.51,1.51,0,0,0,1.28-1.36c-.61.06-1.21.08-1.82.09l5.14-4.63a.22.22,0,0,0,.06-.26c7-5.64,13.91-11.53,20.41-17.79A161.82,161.82,0,0,0,203.82,65c.5-.74,1-1.49,1.47-2.24,0,.51,0,1,.08,1.53a1.57,1.57,0,0,0,1.53,1.53A2,2,0,0,0,209.08,64l.53.47a.22.22,0,0,0,.13.24q4.92,2.61,9.95,5,.27,17,.45,34-5.38,3.57-10.84,7c-7.66,4.86-15.39,9.59-23.16,14.27a6.26,6.26,0,0,0-.73-.14,2.11,2.11,0,0,0-1.69-.81,2.57,2.57,0,0,0-1.85.93,3.65,3.65,0,0,0-1.44.87,3,3,0,0,0-.69,3l-6.26,3.74q-5.1,3-10.21,6.07a4.51,4.51,0,0,0-1.34-1.18,4.57,4.57,0,0,0-1.55-.58,32.45,32.45,0,0,0,5.37-1.84,1.34,1.34,0,0,0,.69-1.65,50.88,50.88,0,0,1-8.22-1.1,2,2,0,0,1-1.65-1.56,48,48,0,0,0-8.72.14,1.68,1.68,0,0,0-.55.17v-1.27a2.06,2.06,0,0,0-1.26-2,24.82,24.82,0,0,0,5.45-1.61,4.79,4.79,0,0,0,5,1.06,1.62,1.62,0,0,0,.61-2.63l1.4.12,4.81.45c2,.18,1.95-2.88,0-3.06l-5.83-.54h.4a1.54,1.54,0,0,0,0-3.07H147.9q3-2.15,5.86-4.35Zm-9.17,2h1.33a1.63,1.63,0,0,0,1.51-1.4,31.51,31.51,0,0,1,4.66-.67l.33,0c-2,1.49-3.95,3-5.94,4.4h-2C145,117.7,145.08,116.91,145.15,116.12Zm-1.63,23.26a1.45,1.45,0,0,0,.91-1.37,5.67,5.67,0,0,1,.11-1.12,2.71,2.71,0,0,0,.65-.4,2.34,2.34,0,0,0,1.54-.69l1.62.17a1.34,1.34,0,0,0,1.08,1.47l1.89.34a1.66,1.66,0,0,0,.9-.09,28.44,28.44,0,0,0,4.62-.19l-.31.19h-.09a1.54,1.54,0,0,0-1.4,1.18l-.67-.13-2-.39-3.39-.67a1.78,1.78,0,0,0-2.09-.36l-.28.11a2.45,2.45,0,0,0-1.68,2.22,2.93,2.93,0,0,0,0,.51,1.69,1.69,0,0,0-1-.45l-.49,0A1.64,1.64,0,0,0,143.52,139.38ZM142,122.7v.16a1.16,1.16,0,0,0-.47.21,3.59,3.59,0,0,0-1.69,2.2l-.37.53a1.55,1.55,0,0,0,1.33,2.31c.62,0,1.24,0,1.85,0l.18.92-.06.17a3.59,3.59,0,0,0-2.74,2.61,1.5,1.5,0,0,0-.2.23,2.32,2.32,0,0,0-.31.58,2.37,2.37,0,0,0-.19-.34,4.52,4.52,0,0,1-.64-4.94,1.36,1.36,0,0,0-.86-1.77C139.21,124.62,140.6,123.67,142,122.7ZM100.3,148q12.66-6.59,24.78-14.13a1.35,1.35,0,0,0,1.17-.23c.27-.19.55-.37.83-.55a1.56,1.56,0,0,0,2.29,1.59,62.52,62.52,0,0,0,5.84-4.24,7.35,7.35,0,0,0,1.08,2.85l-.64.63a1.62,1.62,0,0,0-.45,1.09,1.57,1.57,0,0,0,.45,1.08,1.55,1.55,0,0,0,1.09.45,1.6,1.6,0,0,0,1.08-.45l.22-.22h.07c.25,0,.49,0,.73,0a4.38,4.38,0,0,0-1.56,3.15,1.53,1.53,0,0,0,1.13,1.47c.3.06.59.1.87.13a3.21,3.21,0,0,0,.2.84,1.93,1.93,0,0,0,.3.53c-1.22.29-1.17,1.89-.37,2.62a24.56,24.56,0,0,0-3.31,1,1.58,1.58,0,0,0-.29-.74c.4-.13.79-.24,1.2-.34,1.92-.45,1.1-3.4-.82-3a17.63,17.63,0,0,0-9.27,5.51,52.79,52.79,0,0,0-5.19,2.9,1.54,1.54,0,0,0,.78,2.85c3.67,0,7-1.26,10.33-2.7a32.39,32.39,0,0,1,7.69-2.69c0,.22.07.44.09.65l-.22.16c-3.2,2.46-6.2,5.57-10.49,5.48a2.23,2.23,0,0,0-1.87,3.48c-1.65.71-3.3,1.41-5,2.07l-13.68,0a15.09,15.09,0,0,0-2.79-4.67,1.9,1.9,0,0,0-1.76-.68,8.74,8.74,0,0,0-2.49-1.66A4,4,0,0,0,96.86,154c-.94,1.95-.71,4.66-.55,7-3.24.49-6.49,1.06-9.71,1.7a12.62,12.62,0,0,0-4.06-6.13Q91.54,152.55,100.3,148Z"/><path class="cls-3" d="M2029.54,293.19V477.84H.13V293.66q40.59-2.28,82.36-4.63h0l11.86-.65h0q50.31-2.82,102.09-5.68h0l12.09-.67q50.22-2.76,101.56-5.51c4.11-.22,8.2-.45,12.32-.66h0q49.92-2.66,100.68-5.25h0l12.56-.64h0q49.53-2.5,99.6-4.9h0l12.75-.6h0q49-2.31,98.23-4.47h0l13-.56h0q48.24-2.1,96.59-4h0l13.16-.52h0q47.37-1.81,94.63-3.4h0l13.32-.44q46.32-1.52,92.37-2.78h0l13.43-.36q45.13-1.2,89.86-2.11h0l13.46-.26h0q43.77-.85,87-1.37h0l13.33-.16h0q42.33-.48,84-.61h0l13,0h0q40.72-.08,80.68.2h0q6.35,0,12.68.1h0q39.4.32,77.92,1h0l11.86.23h0q38.3.76,75.56,1.94h0l10.82.35h0q37.47,1.26,73.77,2.95h0l9.78.46h0q36.94,1.8,72.52,4.1c2.91.19,5.83.37,8.73.57q36.66,2.46,71.66,5.46h0l7.81.69h0q36.49,3.24,71,7.15h0l7,.8h0q36.51,4.25,70.55,9.28l6.33.95q36.56,5.55,70,12.1l5.78,1.15C2028.72,293,2029.12,293.1,2029.54,293.19Z"/><path class="cls-4" d="M94.37,288.38c-29.19,11-61.1,24.22-94.24,40.06v-4.31Q39.87,305.37,82.49,289h0Z"/><path class="cls-4" d="M208.59,282C148.36,304,73.71,336.88.13,383.85v-5q16-10.11,32.75-19.76c50.2-28.87,105.16-54.53,163.6-76.35h0Z"/><path class="cls-4" d="M322.47,275.86q-5.88,2.08-11.88,4.28c-87.33,32-208.11,88.66-310.46,181.6v-6.21C39.59,420.32,84.27,388,133.49,359c53.12-31.26,111.64-58.68,173.92-81.5l2.74-1C314.26,276.3,318.35,276.07,322.47,275.86Z"/><path class="cls-4" d="M435.74,270c-9.41,3.23-19.11,6.7-29,10.41C317,314,190.71,375.08,87,477.84H80.25c44.15-44,95.81-83.95,153.83-118.88,51.84-31.21,108.84-58.54,169.43-81.2q10-3.74,19.66-7.15h0Z"/><path class="cls-4" d="M548.12,264.47c-14.36,4.76-29.51,10.12-45.26,16.14C415.63,314,292.71,374.88,191,477.84h-6.69c43.3-44.1,93.8-84,150.39-118.93,50.55-31.16,106-58.38,164.93-80.9,12.31-4.71,24.26-9,35.76-12.94h0Z"/><path class="cls-4" d="M659.34,259.44c-18.61,5.94-38.9,13-60.34,21.41-84.71,33.17-204.3,93.84-304,197h-6.66c42.45-44.18,91.79-84.14,147-119a946.25,946.25,0,0,1,160.43-80.6c17.76-6.95,34.74-13,50.65-18.26h0Z"/><path class="cls-4" d="M769.12,255c-22,6.77-47.06,15.35-74,26.14C612.94,314,496.7,374.5,399,477.84h-6.64c41.6-44.26,89.79-84.23,143.5-119a908.71,908.71,0,0,1,155.94-80.31c23-9.19,44.55-16.79,64.13-23h0Z"/><path class="cls-4" d="M877.1,251.11a887.24,887.24,0,0,0-85.82,30.22C711.6,314.05,598.7,374.3,503,477.84h-6.61A764.57,764.57,0,0,1,636.46,358.78a872.55,872.55,0,0,1,151.45-80c27.76-11.39,53.47-20.31,75.85-27.21h0Z"/><path class="cls-4" d="M982.94,248a828.79,828.79,0,0,0-95.52,33.59C810.26,314.06,700.71,374.11,607,477.84h-6.58a756.17,756.17,0,0,1,136.6-119.11,846.75,846.75,0,0,1,232.45-110.4Z"/><path class="cls-4" d="M1086.27,245.6a772.37,772.37,0,0,0-102.7,36.2c-74.65,32.28-180.86,92.11-272.51,196h-6.55A748.8,748.8,0,0,1,837.66,358.68,804.3,804.3,0,0,1,980.1,279.26a791.67,791.67,0,0,1,92.7-33.4h0Z"/><path class="cls-4" d="M1186.64,244.07a718.45,718.45,0,0,0-106.93,38c-72.13,32.07-175,91.68-264.64,195.8h-6.51a742.4,742.4,0,0,1,129.69-119.2,771.27,771.27,0,0,1,138-79.12,734.14,734.14,0,0,1,97.11-35.29Z"/><path class="cls-4" d="M1283.67,243.43a665.66,665.66,0,0,0-107.83,38.85A738.53,738.53,0,0,0,919.1,477.84h-6.49a737,737,0,0,1,259.68-198.06,684.33,684.33,0,0,1,98.39-36.32h0Z"/><path class="cls-4" d="M1377.08,243.73A620.62,620.62,0,0,0,1272,282.52c-67.08,31.62-163.24,90.81-248.86,195.32h-6.47a733.33,733.33,0,0,1,122.79-119.28A711.51,711.51,0,0,1,1268.38,280a636.35,636.35,0,0,1,96-36.4h0Q1370.75,243.66,1377.08,243.73Z"/><path class="cls-4" d="M1466.9,245a579.43,579.43,0,0,0-98.78,37.77c-64.56,31.4-157.37,90.38-241,195.08h-6.44A731.52,731.52,0,0,1,1240,358.52a683.68,683.68,0,0,1,124.45-78.23A598,598,0,0,1,1455,244.76h0l11.86.23Z"/><path class="cls-4" d="M1553.32,247.28A546.54,546.54,0,0,0,1464.26,283c-62,31.18-151.5,89.95-233.08,194.84h-6.42a730.58,730.58,0,0,1,115.87-119.36,656.34,656.34,0,0,1,119.94-77.94,563.79,563.79,0,0,1,81.89-33.61h0l10.82.35Z"/><path class="cls-4" d="M1636.87,250.69a517.76,517.76,0,0,0-76.47,32.55c-59.52,31-145.63,89.52-225.2,194.6h-6.39a731.8,731.8,0,0,1,112.41-119.41,632.13,632.13,0,0,1,115.43-77.63,534.4,534.4,0,0,1,70.44-30.57h0Z"/><path class="cls-4" d="M1709.41,254.79a505.08,505.08,0,0,0-56.68,26.28,608.08,608.08,0,0,0-110.91,77.33c-39.31,34.26-75.89,74.38-109,119.44h6.38c77.55-105.25,160.3-163.61,217.29-194.35a494,494,0,0,1,61.61-28.13C1715.24,255.16,1712.32,255,1709.41,254.79Z"/><path class="cls-4" d="M1797.62,261.51a475,475,0,0,0-45,22.22c-54.47,30.53-133.87,88.67-209.4,194.11h-6.34c32.2-45.14,67.63-85.27,105.49-119.48,33.8-30.54,69.6-56.46,106.42-77,14.83-8.29,28.59-15,41-20.5Z"/><path class="cls-4" d="M1875.67,269.46c-8.44,4.2-17.43,9-26.88,14.52-51.94,30.31-128,88.23-201.49,193.86H1641c31.35-45.22,65.62-85.37,102-119.52,32.5-30.49,66.79-56.3,101.9-76.73q12.45-7.24,23.76-12.93Z"/><path class="cls-4" d="M1952.55,279.69c-2.49,1.46-5,3-7.62,4.55-49.42,30.1-122.11,87.8-193.59,193.6H1745c72.21-107.22,145.9-165.6,196-196,1.75-1.06,3.5-2.1,5.22-3.12Z"/><path class="cls-4" d="M2029.54,287v5.07c-.42.27-.83.57-1.24.84-46.22,31.82-109.52,88.16-172.93,184.9h-6.29c63.35-96.9,126.76-153.72,173.44-186C2024.9,290.14,2027.23,288.55,2029.54,287Z"/><path class="cls-4" d="M2029.54,375.11v7.5a817.23,817.23,0,0,0-70.13,95.23h-6.26C1979.17,436.76,2005,402.92,2029.54,375.11Z"/><path class="cls-5" d="M2029.54,837.09v184.66H.13V837.56l82.36-4.62h0l11.86-.66h0q50.31-2.82,102.09-5.68h0c4-.23,8.06-.45,12.09-.66q50.22-2.78,101.56-5.52l12.32-.65h0q49.92-2.67,100.68-5.25h0l12.56-.64h0q49.53-2.5,99.6-4.9h0c4.25-.2,8.49-.41,12.75-.6h0q49-2.31,98.23-4.48h0l13-.55h0q48.24-2.1,96.59-4h0l13.16-.51h0q47.37-1.83,94.63-3.41h0L877.1,795q46.32-1.51,92.37-2.78h0l13.43-.36q45.13-1.2,89.86-2.1h0l13.46-.27h0q43.77-.86,87-1.37h0l13.33-.16h0q42.33-.48,84-.6h0l13,0h0q40.72-.09,80.68.19h0l12.68.1h0q39.4.32,77.92,1h0l11.86.23h0q38.3.76,75.56,1.94h0l10.82.35h0q37.47,1.26,73.77,3h0l9.78.46h0q36.94,1.8,72.52,4.1l8.73.58q36.66,2.44,71.66,5.46h0l7.81.68h0q36.49,3.24,71,7.15h0c2.34.26,4.68.53,7,.81h0q36.51,4.23,70.55,9.28c2.13.31,4.24.62,6.33,1q36.56,5.53,70,12.09l5.78,1.15Z"/><path class="cls-4" d="M94.37,832.28c-29.19,11-61.1,24.23-94.24,40.06V868q39.74-18.76,82.36-35.09h0Z"/><path class="cls-4" d="M208.59,825.94C148.36,847.92,73.71,880.78.13,927.75v-5q16-10.11,32.75-19.75c50.2-28.87,105.16-54.53,163.6-76.36h0C200.51,826.37,204.56,826.15,208.59,825.94Z"/><path class="cls-4" d="M322.47,819.77q-5.88,2.09-11.88,4.28c-87.33,32-208.11,88.65-310.46,181.59v-6.21c39.46-35.21,84.14-67.55,133.36-96.52,53.12-31.26,111.64-58.68,173.92-81.5l2.74-1Z"/><path class="cls-4" d="M435.74,813.88c-9.41,3.23-19.11,6.69-29,10.4C317,857.89,190.71,919,87,1021.75H80.25c44.15-44,95.81-84,153.83-118.89,51.84-31.21,108.84-58.53,169.43-81.2q10-3.74,19.66-7.14h0Z"/><path class="cls-4" d="M548.12,808.38c-14.36,4.75-29.51,10.11-45.26,16.14C415.63,857.9,292.71,918.79,191,1021.75h-6.69c43.3-44.11,93.8-84,150.39-118.94,50.55-31.16,106-58.38,164.93-80.9,12.31-4.71,24.26-9,35.76-12.93h0C539.62,808.78,543.86,808.57,548.12,808.38Z"/><path class="cls-4" d="M659.34,803.35c-18.61,5.93-38.9,13-60.34,21.41-84.71,33.16-204.3,93.83-304,197h-6.66c42.45-44.19,91.79-84.14,147-119a945.54,945.54,0,0,1,160.43-80.61c17.76-6.94,34.74-13,50.65-18.26h0Z"/><path class="cls-4" d="M769.12,798.86c-22,6.76-47.06,15.34-74,26.13-82.2,33-198.44,93.41-296.13,196.76h-6.64c41.6-44.27,89.79-84.24,143.5-119a908.71,908.71,0,0,1,155.94-80.31c23-9.19,44.55-16.79,64.13-23h0Z"/><path class="cls-4" d="M877.1,795a887.24,887.24,0,0,0-85.82,30.22C711.6,858,598.7,918.21,503,1021.75h-6.61A764.23,764.23,0,0,1,636.46,902.68a872.55,872.55,0,0,1,151.45-80c27.76-11.39,53.47-20.3,75.85-27.21h0Z"/><path class="cls-4" d="M982.94,791.87a831,831,0,0,0-95.52,33.6C810.26,858,700.71,918,607,1021.75h-6.58a756.22,756.22,0,0,1,136.6-119.12,846.75,846.75,0,0,1,232.45-110.4Z"/><path class="cls-4" d="M1086.27,789.5a772.65,772.65,0,0,0-102.7,36.21c-74.65,32.27-180.86,92.1-272.51,196h-6.55A748.41,748.41,0,0,1,837.66,902.59,803,803,0,0,1,980.1,823.17a788,788,0,0,1,92.7-33.4h0Z"/><path class="cls-4" d="M1186.64,788a718.45,718.45,0,0,0-106.93,38c-72.13,32.07-175,91.68-264.64,195.81h-6.51a741.63,741.63,0,0,1,129.69-119.2,771.31,771.31,0,0,1,138-79.13,734.14,734.14,0,0,1,97.11-35.29Z"/><path class="cls-4" d="M1283.67,787.34a666.4,666.4,0,0,0-107.83,38.84A738.45,738.45,0,0,0,919.1,1021.75h-6.49a736.86,736.86,0,0,1,259.68-198.07,682.88,682.88,0,0,1,98.39-36.31h0Z"/><path class="cls-4" d="M1377.08,787.63A621.5,621.5,0,0,0,1272,826.42c-67.08,31.62-163.24,90.81-248.86,195.33h-6.47a733.39,733.39,0,0,1,122.79-119.29,711.51,711.51,0,0,1,128.94-78.53,638.55,638.55,0,0,1,96-36.4h0Z"/><path class="cls-4" d="M1466.9,788.89a580.29,580.29,0,0,0-98.78,37.77c-64.56,31.4-157.37,90.39-241,195.09h-6.44A731.19,731.19,0,0,1,1240,902.42a683.68,683.68,0,0,1,124.45-78.23A598,598,0,0,1,1455,788.66h0l11.86.23Z"/><path class="cls-4" d="M1553.32,791.18a547.46,547.46,0,0,0-89.06,35.72c-62,31.18-151.5,90-233.08,194.85h-6.42a730.25,730.25,0,0,1,115.87-119.37,656.87,656.87,0,0,1,119.94-77.94,564.93,564.93,0,0,1,81.89-33.61h0l10.82.35Z"/><path class="cls-4" d="M1636.87,794.59a518.85,518.85,0,0,0-76.47,32.55c-59.52,31-145.63,89.53-225.2,194.61h-6.39a731.8,731.8,0,0,1,112.41-119.41,632.69,632.69,0,0,1,115.43-77.64,534.4,534.4,0,0,1,70.44-30.57h0Z"/><path class="cls-4" d="M1709.41,798.69A508.69,508.69,0,0,0,1652.73,825a608.57,608.57,0,0,0-110.91,77.33c-39.31,34.26-75.89,74.39-109,119.45h6.38c77.55-105.26,160.3-163.61,217.29-194.35a494,494,0,0,1,61.61-28.13Z"/><path class="cls-4" d="M1797.62,805.41a472.85,472.85,0,0,0-45,22.23c-54.47,30.52-133.87,88.66-209.4,194.11h-6.34c32.2-45.15,67.63-85.28,105.49-119.49,33.8-30.53,69.6-56.45,106.42-77,14.83-8.29,28.59-15,41-20.5Z"/><path class="cls-4" d="M1875.67,813.37c-8.44,4.19-17.43,9-26.88,14.51-51.94,30.31-128,88.24-201.49,193.87H1641c31.35-45.23,65.62-85.37,102-119.53,32.5-30.48,66.79-56.3,101.9-76.73q12.45-7.23,23.76-12.93C1871,812.82,1873.35,813.09,1875.67,813.37Z"/><path class="cls-4" d="M1952.55,823.6c-2.49,1.46-5,3-7.62,4.54-49.42,30.1-122.11,87.8-193.59,193.61H1745c72.21-107.23,145.9-165.61,196-196,1.75-1.06,3.5-2.1,5.22-3.11C1948.35,823,1950.46,823.27,1952.55,823.6Z"/><path class="cls-4" d="M2029.54,830.93V836l-1.24.84c-46.22,31.82-109.52,88.16-172.93,184.91h-6.29c63.35-96.91,126.76-153.73,173.44-186.06C2024.9,834,2027.23,832.45,2029.54,830.93Z"/><path class="cls-4" d="M2029.54,919v7.5a816.56,816.56,0,0,0-70.13,95.24h-6.26C1979.17,980.66,2005,946.82,2029.54,919Z"/><path class="cls-6" d="M2029.54,563.4V747.59H.13V563.5q27.59-5,56.16-9.49l6.06-1q36.2-5.61,73.84-10.42h0l6.46-.82h0q36.36-4.58,74-8.46l6.93-.7h0q36.64-3.72,74.39-6.81h0l7.48-.61h0q37-3,75.05-5.38h0l8.12-.5h0q37.57-2.33,76-4.12h0l8.82-.41q38.29-1.73,77.45-3h0c3.18-.11,6.36-.2,9.54-.29h0q39.24-1.21,79.22-1.95h0l10.19-.18h0q40.37-.69,81.45-.95h0q5.33,0,10.69-.06h0q41.74-.23,84.15,0c3.72,0,7.42,0,11.15.06h0q43.13.24,86.84.9h0l11.56.17h0q44.6.71,89.7,1.79h0c3.92.09,7.88.18,11.82.29h0q46,1.14,92.38,2.64h0l12,.38h0q47.28,1.56,94.94,3.45h0l12,.48h0q48.54,2,97.35,4.2h0l12,.57h0q49.62,2.29,99.4,4.89h0l12,.63h0q50.55,2.63,101.19,5.51h0l11.85.67h0q51.38,2.94,102.71,6.05l11.76.72h0q52,3.18,103.87,6.5l11.66.75q52.51,3.36,104.78,6.84l11.49.76Q1979.51,560,2029.54,563.4Z"/><path class="cls-4" d="M2029.54,604.58v4.65a1123.9,1123.9,0,0,0-111.91-53.34l11.49.76C1964.19,571.34,1997.77,587.36,2029.54,604.58Z"/><path class="cls-4" d="M2029.54,668.72v5.5c-76.85-57.6-159.22-98.25-228.35-125.92l11.66.75a1078.68,1078.68,0,0,1,130.52,63.44A897.41,897.41,0,0,1,2029.54,668.72Z"/><path class="cls-4" d="M2015.45,746.79l-3,.8-2.27.6-.58-.6c-101.25-105-228.57-169.45-324-206.51l11.76.72h0a1050.6,1050.6,0,0,1,145.45,70.64C1909.15,651.5,1967.25,696.7,2015.45,746.79Z"/><path class="cls-4" d="M1911.11,746.8l-3.06.79-2.28.59-.55-.59C1799.27,635.5,1665.3,569.83,1571,534.36l11.85.67h0a1021.72,1021.72,0,0,1,159.33,77.36C1806.94,651.39,1863.78,696.61,1911.11,746.8Z"/><path class="cls-4" d="M1806.76,746.81l-3.07.78-2.28.58-.54-.58c-104.52-112.9-235.74-178.43-327.48-213.54q-7.91-3-15.61-5.83l12,.63h0q3.4,1.27,6.85,2.59c58.9,22.52,114.39,49.74,164.95,80.91C1704.73,651.28,1760.31,696.53,1806.76,746.81Z"/><path class="cls-4" d="M1702.42,746.82l-3.1.77-2.28.56-.51-.56C1593.91,634.38,1466.14,569.06,1377,534.18q-15.78-6.18-30.65-11.42l12,.57h0q10.85,3.95,22.17,8.36A947.5,947.5,0,0,1,1541,612.3C1602.53,651.18,1656.84,696.44,1702.42,746.82Z"/><path class="cls-4" d="M1598.07,746.84l-3.11.75-2.28.55-.5-.55c-100.57-113.35-224.64-178.43-311.07-213.06-15.43-6.18-30.23-11.64-44.21-16.45l12,.48h0c11.37,4,23.23,8.48,35.47,13.38a908.82,908.82,0,0,1,156,80.32C1500.32,651.07,1553.37,696.35,1598.07,746.84Z"/><path class="cls-4" d="M1493.73,746.85l-3.13.74-2.29.54-.47-.54C1389.24,634,1268.74,569.16,1185,534.76c-19.54-8-38-14.8-55-20.51h0l12,.38h0c14.59,5.07,30.14,10.89,46.4,17.56a872.87,872.87,0,0,1,151.45,80C1398.11,651,1449.9,696.26,1493.73,746.85Z"/><path class="cls-4" d="M1389.38,746.86l-3.16.73-2.28.52c-.14-.17-.29-.35-.45-.52-96.72-113.92-213.77-178.55-295-212.72-22.66-9.54-43.84-17.29-62.82-23.55,3.92.09,7.88.18,11.82.29h0c16.87,5.77,35.26,12.66,54.7,20.84a837.24,837.24,0,0,1,147,79.71A752.67,752.67,0,0,1,1389.38,746.86Z"/><path class="cls-4" d="M1285,746.87l-3.18.72-2.28.51-.43-.51c-94.66-114-208-178.42-286.46-212.35-25-10.8-48.08-19.28-68.29-25.88l11.56.17h0c18.24,6.19,38.53,13.82,60.17,23.17a803.49,803.49,0,0,1,142.46,79.42A746.72,746.72,0,0,1,1285,746.87Z"/><path class="cls-4" d="M1180.69,746.88l-3.19.71-2.29.5-.41-.5C1082,633.19,972.11,569,896.2,535.32a741.46,741.46,0,0,0-69.84-26.92c3.72,0,7.42,0,11.15.06h0c18.72,6.38,39.83,14.42,62.51,24.49a771.31,771.31,0,0,1,138,79.13A741.91,741.91,0,0,1,1180.69,746.88Z"/><path class="cls-4" d="M1076.35,746.89l-3.21.7-2.29.49-.39-.49A738.13,738.13,0,0,0,800.41,535.71a699.35,699.35,0,0,0-68.89-27.23q5.33,0,10.69-.06h0c18.4,6.38,39.26,14.52,61.75,24.79a737.57,737.57,0,0,1,272.39,213.68Z"/><path class="cls-4" d="M972,746.91l-3.23.68-2.29.48-.37-.48C877.26,632.71,774.5,569,703.89,535.77a657.66,657.66,0,0,0-64-26.16h0l10.19-.18h0c17.21,6.22,36.69,14.1,57.81,24A711.21,711.21,0,0,1,836.81,612,735.69,735.69,0,0,1,972,746.91Z"/><path class="cls-4" d="M867.66,746.92l-3.26.67-2.28.47-.36-.47C774.88,632.47,675.69,569,607.73,536c-20.74-10.07-39.88-18-56.68-24.15h0c3.18-.11,6.36-.2,9.54-.29,15.43,5.87,32.63,13.16,51.17,22.16A683.19,683.19,0,0,1,736.21,612,735.85,735.85,0,0,1,867.66,746.92Z"/><path class="cls-4" d="M763.31,746.93l-3.29.66-2.26.45-.34-.45C672.5,632.23,576.87,569,511.57,536.22c-16.86-8.46-32.59-15.36-46.79-21l8.82-.41c12.94,5.28,27,11.61,42.09,19.15a656.74,656.74,0,0,1,119.93,77.93C682.65,650.22,725.61,695.65,763.31,746.93Z"/><path class="cls-4" d="M659,746.94l-3.29.65-2.28.44-.32-.44C570.12,632,478.06,569,415.4,536.44c-12.29-6.38-24-11.87-34.82-16.58l8.12-.5h0c9.72,4.32,20,9.26,30.88,14.88A632.47,632.47,0,0,1,535,611.87C580.44,650.12,622.14,695.57,659,746.94Z"/><path class="cls-4" d="M554.61,747l-3.31.64L549,748c-.11-.14-.21-.29-.31-.43C467.74,631.75,379.25,569,319.24,536.66q-11-5.91-21.22-10.81l7.48-.61q8.72,4.28,18,9.26a608.29,608.29,0,0,1,110.92,77.33C478.24,650,518.67,695.48,554.61,747Z"/><path class="cls-4" d="M450.26,747l-3.35.63-2.25.42-.28-.42C365.52,631.76,280.8,569.23,223.59,537.17q-3.5-2-6.92-3.81l6.93-.7h0l3.8,2.1c36.82,20.58,72.63,46.5,106.42,77C376,649.92,415.2,695.39,450.26,747Z"/><path class="cls-4" d="M345.92,747l-3.36.61-2.26.41-.27-.41C267.22,637.67,190.57,576,136.19,542.64h0l6.46-.82a574.63,574.63,0,0,1,90.58,69.94C273.82,649.81,311.73,695.31,345.92,747Z"/><path class="cls-4" d="M241.58,747l-3.39.6-2.25.4c-.09-.14-.16-.27-.25-.4C172,648.83,106.49,589.15,56.29,554l6.06-1C112.76,588.59,178.2,648.5,241.58,747Z"/><path class="cls-4" d="M137.22,747l-3.42.58-2.23.38-.23-.38C86,675.11,40.15,623.78.13,587.76v-6.13C41.63,618.08,89.69,671,137.22,747Z"/><path class="cls-1" d="M2028.19,1122.65a2.06,2.06,0,0,0-2.74-2,4,4,0,0,1-5-2.17c-1.23-2.61-5.08-.55-4.1,2l-1.48-.12c.37-2.68-3.78-3.84-4.45-1.06.07-.28-2.58-2-3.21-2.4a5.21,5.21,0,0,0-4.53-.43,6.46,6.46,0,0,0-2.71,2.34c-.31.44-1.32,2.63-1.75,2.66a2.6,2.6,0,0,0-.92.26,2.27,2.27,0,0,0-2.15.61c0-.2.05-.36.07-.44l.84-3.77a9,9,0,0,0,1.82-.8,2.32,2.32,0,0,0-.76-4.27,4.92,4.92,0,0,0,.45-.24,2.34,2.34,0,0,0,.9-3.12,2.48,2.48,0,0,0-2-1.18,2.15,2.15,0,0,0,.34-1.15,2.37,2.37,0,0,0-.63-1.64l-.67-.69a2.34,2.34,0,0,0-1.61-.71,1.76,1.76,0,0,0-.88.17,1.89,1.89,0,0,0-2.52-1.1,9.65,9.65,0,0,0-4.12,2.69,6.88,6.88,0,0,0-7.42.75c-2.1,1.5-4.15,3.08-6.22,4.62-1,.75-4.94,4.37-6.28,2.92-1.07-1.16-3.56-.82-3.86.93-.25,1.45-.54,2.9-.86,4.34a5.69,5.69,0,0,0-5.1,4.71c-.76,3.78,2.38,6.6,5.72,7.58a11.15,11.15,0,0,0-1.82,3,22.72,22.72,0,0,0-1.07,6.42,2.56,2.56,0,0,0-.4.16,3.55,3.55,0,0,0-1.42,1.24c-.93.13-1.85.28-2.78.42a73.06,73.06,0,0,0-22.56.92c-3.54.71-9.72,1.31-11.13,5.31-.8,2.27.34,4.3,1.63,6.07l0,0q-11.19,1.1-22.35,2.34c-40.94,4.54-81.8,9.88-122.68,14.93l-18,2.22c4.58-7.74,9.39-16.47,8.86-25.77-.46-7.89-5.61-17-14.87-14.76-4,1-7.27,3.93-10.07,6.82-3.48,3.6-6.9,7.25-10.34,10.88q-10.62,11.15-21.23,22.31a9.18,9.18,0,0,1-.57,1,2.47,2.47,0,0,1-.68,1.27c-1.47,1.46-3.06,2.79-4.54,4.24l-.19.16c-3.75,4.18-14.85,3.29-18.8,3.09a145.54,145.54,0,0,1-25.3-3.19l-.14,0-2.24-.1c-1.76-20.2-3.66-40.56-7.58-60.46a162.63,162.63,0,0,1,13.55,47c.26,2,2.81,3.25,4.65,2.78,2.19-.56,3-2.58,2.78-4.65a167.52,167.52,0,0,0-27.51-72.23,4.48,4.48,0,0,0-.55-.66c-1.43-4.44-3-8.84-4.77-13.19-2.58-6.39-6.43-13.42-13.35-15.85-7.19-2.52-14.77,1.77-18.18,8.19-4.14,7.78-2.77,17.11-1.74,25.47,0,.34.09.67.13,1a42.73,42.73,0,0,0-1.34,8.87c-3.24,8.71-6.49,17.44-10.29,25.87-3.9,8.67-9.54,18.21-19.56,20.3-4.82,1-3,8.44,1.87,7.44,11.62-2.43,18.93-12.5,23.72-22.65,2.54-5.39,4.82-10.91,7-16.5l3.22,4.65c2.77,16.79,4.43,34.33-.75,50.66h-10.5c-7.94-1-15.88-2.08-23.82-3-21.81.74-43.62,1.35-65.43.88a16.81,16.81,0,0,1-6.56-1.48c-5.84-1.08-11.65-2.4-17.6-2.7a4.19,4.19,0,0,1-1.21-.23c-31.56-1.78-63.17-2.09-94.75.13-5.48-.23-11-.42-16.45-.54l-150.43-6.21-9-.37-1.39-.22h0a88.38,88.38,0,0,0-20-.73,92.82,92.82,0,0,0-14.25.13,32.33,32.33,0,0,0-5.78,1.15,5.81,5.81,0,0,0-2.94-.82l-24.31-.49a10.1,10.1,0,0,0-5.27-1.29,5,5,0,0,0-.49-1.16c-1.42-2.56-5.37-4.11-8-2.29l-3.29,2.29a6.68,6.68,0,0,0-.87-.37,6,6,0,0,0-3.56-5,6.87,6.87,0,0,0-.64-3.3l-2.61-5.61c-1.34-2.88-5.35-3.76-8-2.29a6,6,0,0,0-2.29,8l.06.11-4.67,2.4-.53-.25-6-2.59a6.26,6.26,0,0,0-.43-4.67,6.76,6.76,0,0,0-.55-.81c-.5-4.25-2.66-7.86-6.81-9.46q-3.3-14.55-5.94-29.25c-1-5.71-8.58-5.42-10.9-1.16a70.74,70.74,0,0,0-4-8.86c-2.84-5.25-10.72-3-11,2.71,0,.36,0,.72-.07,1.08-3.76-1.68-7.84-2-11.92.65a20.72,20.72,0,0,0-4.81,4.4,25,25,0,0,0-5.59,3.13c-2,1.51-4,3.54-3.12,6.23a18.07,18.07,0,0,0-2.63-3.56c-1.51-1.59-3.71,0-3.45,1.91l.06.53c-3-.48-6.12,1.54-6.7,5.5a130.19,130.19,0,0,0,.28,38.67,1.8,1.8,0,0,0-2.47-.46c-1,.7-2.1,1.53-3.3,2.27l-.21,0a11.48,11.48,0,0,0-.9-6c-1.39-3.42-4.34-8.42-8.34-9-3-.45-5.17,1.57-7,3.88a5.16,5.16,0,0,0-4.47,2.7l-2.8,5.76a12.66,12.66,0,0,1-4.78,3.63,5.57,5.57,0,0,0-2.82,6.33c-1-.25-2-.46-3-.63a3.82,3.82,0,0,0-2.14-1.94,10.84,10.84,0,0,1-1.16-.52,6.26,6.26,0,0,0-2.89-1.82c-1.86-1.39-3.6-3-5.17-4.45-.58-.53-1.12-1.07-1.65-1.61a2.57,2.57,0,0,0-.2-.46,19,19,0,0,1-2.19-14.65,2.07,2.07,0,0,0-2.95-2.38,7.9,7.9,0,0,1-1.15.53,6.3,6.3,0,0,0-4.4-1,2.12,2.12,0,0,0-3.56.11,9.6,9.6,0,0,1-2.34-2.17,1.75,1.75,0,0,0-1.16-.71,2,2,0,0,0-.57-2.34l0-.19c1.54,2,5,3.42,6.9,3.91,2.54.68,3.72-3.23,1.18-3.91a14.53,14.53,0,0,1-2.71-1l-.46-.22a2.25,2.25,0,0,0,.19-.38c.76-2-1-3.48-2.75-3.56a1.56,1.56,0,0,0-.52-.43l-.52-.24,3.18-1.72a2,2,0,0,0-.08-3.58,1.16,1.16,0,0,0,.16-.21,16.62,16.62,0,0,1,8-6.31,2.08,2.08,0,0,0,1.29-3l-2-3.91c-1.21-2.34-4.79-.36-3.57,2l1,2c-.42.22-.84.44-1.25.68a6.63,6.63,0,0,0-.11-1.44,7,7,0,0,0-2.61-4.12c1.4-1.24.38-4.12-1.82-3.52a5.45,5.45,0,0,1-5.44-1.42c0-.45-.06-.91-.1-1.36l.06-.11c.06-.16.11-.32.17-.49a3.79,3.79,0,0,0,3.54,2.67,3.89,3.89,0,0,0,3.92-3.74l.06-2.72a3.86,3.86,0,0,0-3.74-3.92,4.18,4.18,0,0,0-2.3.75,21.7,21.7,0,0,0,0-2.55c-.06-1.24.05-3.11-.84-4.08s-2.45-1.35-3.5-2.14a16.73,16.73,0,0,1-6.27-15.9c.32-2.08-2.24-2.53-3.47-1.31a1.66,1.66,0,0,0-1.12-.21,5.89,5.89,0,0,0-5.19,4.09,11.48,11.48,0,0,0-.47,5.21c-1.17.37-2.08,1.5-1.16,2.77l1.41,1.95a3.45,3.45,0,0,1-1.93,2.72,15.3,15.3,0,0,0-3.36,2,4.73,4.73,0,0,0-.49,6.61,2,2,0,0,0,.82.57q-1.35,2.18-2.72,4.34a7.47,7.47,0,0,0-2.7-2.74c-2.27-1.34-4.41,2.14-2.14,3.48a3.2,3.2,0,0,1,1.59,3.64,22,22,0,0,0-8,5.66,2.1,2.1,0,0,0-.37,2.47l.86,1.18a2.12,2.12,0,0,0-.83,1.09,2.08,2.08,0,0,0,1.37,2.55l.93.35a4.46,4.46,0,0,0,.61.62,6.89,6.89,0,0,0,.84.61,13.07,13.07,0,0,0,1.21,4.82c.68,1.5,2.49,1.21,3.37.18a5.22,5.22,0,0,1-.92,3.92c-1.56,2.13,1.93,4.25,3.48,2.14a8.31,8.31,0,0,0,1.47-3.44c.28.8.6,1.58.94,2.34q-.6,3-1.48,6c-.35,1.1-.7,2.19-1.06,3.29a1.81,1.81,0,0,0,.79,2.21c-.09.27-.19.55-.29.82a2.15,2.15,0,0,0-1.77-1.52,26.11,26.11,0,0,0-11.62.91,41.37,41.37,0,0,0,2.32-8.92,1.63,1.63,0,0,0,.42.31l6.6,3.22c2.35,1.14,4.5-2.33,2.14-3.48l-4.76-2.33a6.82,6.82,0,0,0-.79-5.49c-2.16-3.66-6.39-4-9.81-5.79a9.21,9.21,0,0,1-1.52-1q-2-6.23-4.15-12.38c0-1.92.14-3.8.28-5.46.21-2.63-3.88-2.71-4.09-.1l0,.34a1.74,1.74,0,0,0-1.16.75,1.92,1.92,0,0,0-1.46-.45c.84-1.55,1.83-3.26,3.51-3.7,2.54-.65,1.56-4.62-1-4-3.71,1-5.34,4.48-7.13,7.53l-2.85,4.86-.26.07a2.26,2.26,0,0,0-3.41.1q-3.8,4.77-7.57,9.56a1.59,1.59,0,0,0,0,2.11,4.91,4.91,0,0,0-.3.94,5,5,0,0,0,1.31,4.45c.49.51,4.8,3,4.34,3.33-2.1,1.58.75,4.52,2.83,3a3.63,3.63,0,0,0,.65-.65,4.93,4.93,0,0,0,2.87.81h.27c0,.17,0,.34,0,.5a1.6,1.6,0,0,0-1.5,1.42c-.06.32-.11.65-.17,1a5.25,5.25,0,0,1-3.16.4,148.91,148.91,0,0,1-14.94.24,2.07,2.07,0,0,0-2.09,2,6,6,0,0,0,6.71,6.13l0,.08a5.93,5.93,0,0,0,2.24,7.39,4.41,4.41,0,0,1,1.85,4.45,5.42,5.42,0,0,0,1.67,4.19,25,25,0,0,1-11.8,5.09,1.75,1.75,0,0,0-1.39,2.45,3.25,3.25,0,0,0,0,.54q-6.74.88-13.42,2.2a5,5,0,0,0-.58-.52c-2.19-1.6-4.62.52-6.61,1.56l-.1.07a15.53,15.53,0,0,0-15.89,2.88,2,2,0,0,0-.54,2.06l-1.75.56a78.38,78.38,0,0,0-3.06-8.48,3.34,3.34,0,0,0-4.52-1.3l-.15.11a3.62,3.62,0,0,0-2-.9c-5.19-.57-10.37-.85-15.56-.92a4.4,4.4,0,0,0-.62,0,3,3,0,0,0-3.9-2.57l-.28.08a5.46,5.46,0,0,0-2.07-3.66c-4-3.33-10.53,1.23-14.12,3.36a3.34,3.34,0,0,0-.51.37,17.3,17.3,0,0,0-7.56.84,4,4,0,0,0-2.55,3.3c-5,.5-10,1.06-15,1.62a2.61,2.61,0,0,0-1.33.52h-1.68a2.73,2.73,0,0,0-2.11-2,3.23,3.23,0,0,0-3.11-3.68c-1.56-.07-3.11-1.83-4.48-2.53a6.58,6.58,0,0,0-6.17-.24,7.35,7.35,0,0,0-2.74,2.91,3.54,3.54,0,0,0-5.69-2.11,6.24,6.24,0,0,1-1.21.81,3.32,3.32,0,0,0-5.53-2.87,54.73,54.73,0,0,1-10.31,6.39l-.49.22-3.28.16.48-.63a2.84,2.84,0,0,0-.56-4,2.28,2.28,0,0,0,.38-.92c.47-2.94-1.8-5.9-5-4.63s-2.94,6.2-3.34,9a2.53,2.53,0,0,0,0,.87c-.21.28-.43.56-.64.85l-.41,0c.72-2.92-4-5.25-6.25-2.29a31.64,31.64,0,0,1-5.29,5.37,4,4,0,0,0-1.69-.51l.15,0a3.32,3.32,0,0,0,.1-6.35,3,3,0,0,0-.29-2.42,9,9,0,0,0-3-3c1.16-1.78.73-4.46-1.56-5,1.74-2.64-1.09-6.88-4.23-4.81a5.92,5.92,0,0,0-2.46,3.36,3.39,3.39,0,0,0-.76-1.08l-4.08-3.95c-1.37-1.33-4.28-1.48-5.22.56a21.67,21.67,0,0,1-2.76,4.81,4.62,4.62,0,0,1-1.67,1.35c-2.47-.38-4.95-.7-7.44-.93a2.72,2.72,0,0,0-1.42.27,3.42,3.42,0,0,0-4-.76c-2.6,1.09-6.36-1.21-6.59-4a3.36,3.36,0,0,0-1.67-2.7q6.54-1.69,13-3.89c4-1.36,2.56-7.59-1.62-6.44l-1.67.46c.63-.54,1.25-1.09,1.85-1.66a7.89,7.89,0,0,0,7.09-2.21,3.34,3.34,0,0,0-.83-5.36,3.23,3.23,0,0,0-.4-3.94,5.87,5.87,0,0,0-1.37-1.09,5.57,5.57,0,0,0,.89-1.09c1.32-2.14.72-4.45-.24-6.57-1.38-3.07-2.91-6.08-4.36-9.12-1.35-2.8-4.8-1.85-5.85.36a3.08,3.08,0,0,0-3.56,1.4l-4.23,6.72a3.86,3.86,0,0,0-.43,1,3.62,3.62,0,0,0,0,3.18,10.63,10.63,0,0,0,4.63,4.83c-1,1.31-2,2.61-3,3.91a7.25,7.25,0,0,1-2.72-2.25c-1.3-1.78-4.36-2.56-5.66-.25a3.36,3.36,0,0,0-2.83,4.1,4.91,4.91,0,0,1-1.29,4.66c-.72.23-1.43.47-2.15.72l.25-.33a3.33,3.33,0,0,0-3.63-5.56,11,11,0,0,0-5.71,6.71,3.39,3.39,0,0,0,.41,2.77l-1.21.59a2.94,2.94,0,0,0-1.81-1.3l.55-.52a11,11,0,0,0,.66-5.56l.13-.23.92-1.14,0,0a3.31,3.31,0,0,0,3-.85c1.63-1.84,1.77-4.47-.28-6.12a3.86,3.86,0,0,0-2.41-.9,15.7,15.7,0,0,1-3.82-6.13,3.33,3.33,0,0,0-6.49.41,3.33,3.33,0,0,1-.34.33c-.27.21-.59.38-.87.58a12.9,12.9,0,0,0-2.11,1.72,7.67,7.67,0,0,0-1.93,5.88,9.25,9.25,0,0,0,.68,2.83,29,29,0,0,0-20.11,5.35c-.47.34-.92.7-1.36,1.06-1.64.55-3.25,1.15-4.86,1.82l-.1.05c-1.87-1.32-5.33-.15-5.43,2.64-.11,3.44-.36,6.86-.72,10.27-.32.23-.63.47-.93.73l-6.61-1a2.77,2.77,0,0,0-2.43,1,3.41,3.41,0,0,0-1.44-1l-7.07-2.56c-1-.36-2.08-.66-3.06-1.11L542,1136a3.26,3.26,0,0,0,1.23-2.4q.54-.15,1.08-.33a3.35,3.35,0,0,0,.14-6.4l-.1,0a2.66,2.66,0,0,0-2.33-2.62l-.62-.12,1.36-.6c3.31-1.47,1.38-5.87-1.54-6.22a31.29,31.29,0,0,1-6.74-1.64c-.32-1.89-2-3.29-4.16-4.34l1-.12a3.22,3.22,0,0,0,2.48-2.86c1,.29,1.94.73,2.67,1l4.7,1.48,9.38,3c4.08,1.28,6-5.08,1.91-6.36l-11.26-3.54c-3.54-1.11-7.21-2.86-11-2.15a3,3,0,0,0-1.68.87,3.49,3.49,0,0,0-2,.64l-.8-.09a3.28,3.28,0,0,0-1.7-1.33l-2.82-1a28.94,28.94,0,0,1,4.27.73c4.15.91,6-5,1.91-6.36a17.19,17.19,0,0,1-5.26-2.92,13,13,0,0,1,5.8-.24,3.41,3.41,0,0,0,4-4.4,23.42,23.42,0,0,0,13.73-.72c1.68-.67,2.07-3.09,1.3-4.52-.94-1.74-2.86-2-4.52-1.29a12.54,12.54,0,0,1-5.37.74,3.23,3.23,0,0,0-2.59-1.55c-1.76-.15-3.52-.21-5.28-.21-1.21-.41-2.37-.86-3.45-1.27a53.53,53.53,0,0,1-13.28-7.49,24.93,24.93,0,0,1-.36-4.21c0-.41.1-.81.14-1.22a12.37,12.37,0,0,0,2.89-6.74l-.36-1.06a41.11,41.11,0,0,1-1.75-10.65,3.37,3.37,0,0,0-1.36.34c-2.4,1.16-3.14,3.43-2.83,5.93-.56,1.75-1.12,3.51-1.67,5.26a2.49,2.49,0,0,0-.54.62,2.75,2.75,0,0,0-3.43.7,59.07,59.07,0,0,1-14.89,12.19c-3.14,1.8-1.26,7.38,2.42,6.12l7.33-2.49a3.4,3.4,0,0,0,2.72,1,2.69,2.69,0,0,0,.16.29l-11.42,5c-2.64,1.15-2,4.48,0,5.73l-1.09,1a3.37,3.37,0,0,0-.13,4.62l-1.72.62c-3.95,1.41-2.64,7.42,1.61,6.44l1.44-.36a3.39,3.39,0,0,0,4,.78,63.52,63.52,0,0,0,7.75-4c.71-.29,1.42-.56,2.14-.83.14.47.28.93.44,1.39a30.14,30.14,0,0,0-7.22,4.94,2.88,2.88,0,0,0-1,2.7l-.3.15-4.27,2.28-8.62,3.48c-1.75.7-3.71,1.3-5.55,2.09a9.68,9.68,0,0,0-1.77-.11l-.15,0c-.53-2.18-3.82-3-5.64-1.37l0-.63c-.09-3-.17-6-.26-8.92,3.53-.18,7.08-.89,9.56-3.63a3.91,3.91,0,0,0,.94-2.81c4.17-.14,3.93-6-.08-6.63a23.6,23.6,0,0,0-5.2-.27,2.9,2.9,0,0,0-2-.57l-3.25.19-.3,0c-.08-3.85-.16-7.69-.23-11.54.09-.17.18-.34.25-.51l2.68-6.48c1-2.43-1-4.08-3.11-4.07,0-.26,0-.53,0-.8h0a3,3,0,0,0,4.6-1.42,16.28,16.28,0,0,1,6.73,2.93c1.86,1.41,4.28,0,4.93-2,.61.07,1.23.1,1.85.11a3.21,3.21,0,0,0,1.81-.49c.21.21.41.42.61.64a2.65,2.65,0,0,0,1,.71,2.58,2.58,0,0,0,1.28.31,2.46,2.46,0,0,0,1.28-.26,2.42,2.42,0,0,0,1.09-.66l.53-.66a3.25,3.25,0,0,0,.49-1.66l-.1-.89a3.29,3.29,0,0,0-.82-1.48l-.66-.7a2.52,2.52,0,0,0-1.06-.71,2.42,2.42,0,0,0-1.27-.31,2.45,2.45,0,0,0-1.28.25,2.73,2.73,0,0,0-.52.23,3,3,0,0,0-2.28-1,12.74,12.74,0,0,1-3.71-.59,5.08,5.08,0,0,0-5.61-.55,2.34,2.34,0,0,0-.93.72,32.79,32.79,0,0,0-4.08-.84c-1.26-.18-2.64-.38-4.05-.51,0-1.44,0-2.87,0-4.31a2.82,2.82,0,0,0,2.26-.35,2.1,2.1,0,0,1,2.88,0,3.07,3.07,0,0,0,2.88.27,1.82,1.82,0,0,0,.33,0,2.43,2.43,0,0,0,1.28-.25,2.61,2.61,0,0,0,1.09-.66l.53-.66a3.28,3.28,0,0,0,.49-1.67l-.09-.88a3.34,3.34,0,0,0-.83-1.49l-.66-.69a3.72,3.72,0,0,0-2.32-1,2.48,2.48,0,0,0-1.29.26l-.14,0a8.73,8.73,0,0,0-6.47.43c0-.49,0-1,0-1.45q0-8.17,0-16.36a14.16,14.16,0,0,0,2.31.9,6.47,6.47,0,0,0,3.09-.11,6.31,6.31,0,0,0,.92-.37,15.68,15.68,0,0,0,6.4,1.51,62.56,62.56,0,0,1,6.54.21,3.23,3.23,0,0,0,2.63,1.45l1.58,0a2.77,2.77,0,0,0,.86,0l1.65,0a3.18,3.18,0,0,0,1.35-.28,3.22,3.22,0,0,0,1.37.34l.68,0a2.58,2.58,0,0,0,1.29-.26,2.63,2.63,0,0,0,1.08-.66,3.78,3.78,0,0,0,1-2.33l-.1-.88a3.42,3.42,0,0,0-.82-1.49l-.66-.53a3.28,3.28,0,0,0-1.67-.49l-.68,0a2.46,2.46,0,0,0-1.28.26l-.07,0a3.26,3.26,0,0,0-1.37-.34l-1.29,0a19.45,19.45,0,0,0-8.52-1.66c-2.49,0-5.7.38-7.73-1.34a3.42,3.42,0,0,0-.36-1,8.87,8.87,0,0,0-8.2-4.51q0-4.92,0-9.85a4.1,4.1,0,0,0-.05-.62c0-.13.08-.26.11-.39a3,3,0,0,0,1.94.7l2-.13a3.57,3.57,0,0,0,2.37-.92,3.5,3.5,0,0,0,1-2,3.29,3.29,0,0,0,3.66-4.82,2.92,2.92,0,0,0,1-.35l0,0a25,25,0,0,1-2.93-3.13c-.77-1-1.48-2-2.14-3a2.8,2.8,0,0,0-.39.86l-.14.88a3.51,3.51,0,0,0,.07.72,2,2,0,0,0-.48.09l-.46.13a14,14,0,0,0-2.71-9.06,3.87,3.87,0,0,0,.37-.53,51.66,51.66,0,0,1-2-5.47c-.34-1.13-.63-2.27-.89-3.42a3.41,3.41,0,0,0-1.15-.22c-3.47-.08-4.23,4.29-2.1,6v0l0,1.36a12.16,12.16,0,0,1,0,5.63A85.39,85.39,0,0,1,453,998.84l-.81,1.07a3,3,0,0,0-.85,0q-2.13,1.33-4.33,2.52a17.51,17.51,0,0,1-4,1.56,3.31,3.31,0,0,0-.87,4.2,3.36,3.36,0,0,0,4.51,1.29l.57-.37a2.89,2.89,0,0,0,2.09-.38l4.15-2.62a3.66,3.66,0,0,0,1-1,3.33,3.33,0,0,0,3.08-1.37l3.58-4.77a21.77,21.77,0,0,1-1.58,4.37,4,4,0,0,0,1.36,4.79c-.06.46-.12.92-.17,1.38a2.81,2.81,0,0,0,.81,2.43c0,1.78,0,3.57,0,5.35a8.29,8.29,0,0,0-4.52,2c-1.5,1.2-2.17,2.34-4.2,2a11.67,11.67,0,0,0-6.39.36c-1.4.56-3.55,2.31-4.95,1.75-4-1.6-5.84,4.78-1.91,6.36a7.94,7.94,0,0,0,6.34-.53c2.18-1,3.35-1.83,5.78-1.43a8.89,8.89,0,0,0,6.45-.94c.88-.54,2.14-2.13,3.27-2.76l.11.1q0,10.15.07,20.32a2.8,2.8,0,0,0-2.55,3.09c0,1,.35,2.92-.28,3.77s-2.33.7-3.31,1a17.48,17.48,0,0,0-7.08,4.26,32.68,32.68,0,0,0-12.33,2.94c-2.39,1.07-2.05,3.58-.62,5.07-2.66,1.56-2.45,6.7,1.3,6.28l.88-.11h0l.05,0a77,77,0,0,0,24.13-7q.06,4.2.14,8.42a13.42,13.42,0,0,0-6.67,3.28,3.26,3.26,0,0,0-.47.38,14.68,14.68,0,0,1-5.52,3.48c-4,1.35-2.55,7.63,1.61,6.44a34.75,34.75,0,0,1,10.86-1.35,1.94,1.94,0,0,0,.23.27l.2.21c.07,3.57.16,7.13.25,10.69l-9.07.07a3.35,3.35,0,0,0-1.82,6.15,7.28,7.28,0,0,0,1,.59,97.28,97.28,0,0,0-9.43,2.55,3.27,3.27,0,0,0-2.23,2.37,9.23,9.23,0,0,1-5.69,1,3.34,3.34,0,0,0-3.39,3.24,3.39,3.39,0,0,0,3.24,3.4c.46.05.93.08,1.4.09a3.32,3.32,0,0,0,4.33,1l.44-.23.16,0,.45.06.47,0a3.31,3.31,0,0,0,3.32-2.81,3.2,3.2,0,0,0,0-1.23,2.81,2.81,0,0,0,.36-.84A95.84,95.84,0,0,1,462,1107.6a3.34,3.34,0,0,0,.77-.19q.28,10,.65,19.9c.11,3,.24,6,.36,9a3.61,3.61,0,0,0,.12,3c.08,1.76.14,3.52.22,5.27l.12,2.85-2.46-.75a3.08,3.08,0,0,0-2.26.11,3.61,3.61,0,0,0-4.5-1.59l-7.77,3.17a2.94,2.94,0,0,0-1.47,3.89,50.85,50.85,0,0,1-4,3.49c-4-1.94-8.95-1-13.55,1.14a3.44,3.44,0,0,0-2.37-5.55,11.47,11.47,0,0,1-5.25-2.22,49.87,49.87,0,0,1-1.45-8.15c-.39-4.36.13-9-1.27-13.17-1.13-3.42-4.87-8.08-8.61-4.38a4.84,4.84,0,0,0-1,1.54c0-.83,0-1.65,0-2.48q1-16.44.94-32.93c0-3-4.38-3-4.59-.1l-.06.85a2.12,2.12,0,0,0-1.11-.71,11.17,11.17,0,0,1-1.43-.4,3.62,3.62,0,0,0,.17-.87,15.62,15.62,0,0,0-2.61-9.26c.13-1.62.2-3.25.17-4.86-.08-4.53-1.37-9.13-5.51-11.54-3.17-1.86-6.19,2.06-4.62,4.57-.09.88-.15,1.77-.17,2.65,0,.47-.07.93-.1,1.4l0-.43c0-.1,0-.2,0-.31l-.15-1.86c-.24-2.9-4.79-3.08-4.6-.1q.21,3.17.48,6.33c-1.24-1.35-4-.94-4,1.4,0,3.37,0,6.74,0,10.12l-.06,2.82c-.15-2.4-.25-4.81-.34-7.21a2.3,2.3,0,0,0-4.59-.11l-2.42,20-.81,6.79a2.56,2.56,0,0,0-.56.61l-3.75,5.74a2.42,2.42,0,0,0,.76,3.17l-.12.61a2.22,2.22,0,0,0-1.43.63,4.4,4.4,0,0,0-1.42,3.13,1.81,1.81,0,0,0-.65.3l-1,.7a2.6,2.6,0,0,0-.72-1,4.25,4.25,0,0,0,2.12-3.6,2.18,2.18,0,0,0-2.27-2.27,2.11,2.11,0,0,0,.58-1.45,1,1,0,0,1,.74-1.48,13.16,13.16,0,0,1,3.77-4.29,2.35,2.35,0,0,0,.9-3.12,2.49,2.49,0,0,0-2.22-1.2,3.5,3.5,0,0,0-.62-.37,2.09,2.09,0,0,1-1-2.09c.32-1.54-1-3.54-2.76-2.89a7.49,7.49,0,0,0-5,5.39,2.35,2.35,0,0,0,1.54,2.86,2.32,2.32,0,0,0,2.81-1.41,7.25,7.25,0,0,0,1.2,1.34,17.53,17.53,0,0,0-2.52,3.37c-.05.09-.09.18-.13.27a.09.09,0,0,0,0,0,2.33,2.33,0,0,0-2.79-1.67l-2.06.63a2.36,2.36,0,0,0-1.67,2.79,2.33,2.33,0,0,0,2.79,1.67l1.34-.41a4,4,0,0,0-.78,3.24s0,0,0,0a5.92,5.92,0,0,0-2.18,0,5.62,5.62,0,0,0-1.57.63,8.11,8.11,0,0,0-.17-3.06,7,7,0,0,0-.49-1.3,2.52,2.52,0,0,0,.74-1.61,5.38,5.38,0,0,1,1.15-2.89,2.3,2.3,0,0,0-.52-3,2,2,0,0,0,.22-.92l.08-3.4a2.3,2.3,0,0,0-4.59-.11l-.08,3.4a2.38,2.38,0,0,0,.83,1.81,9.28,9.28,0,0,0-1.37,3,5.3,5.3,0,0,1-1-.91c-.94-1.18-.51-1.31-.15-2.44.45-1.41,1-2.59-.31-3.79a2.71,2.71,0,0,0-3.82.24,2.42,2.42,0,0,0-.53,2.55,4.09,4.09,0,0,0-.53,1.13,5.48,5.48,0,0,0,.32,2.89c.89,2.34,2.83,3.25,4.53,4.88s1.3,4.29-.42,6a8.38,8.38,0,0,1-3.53,1.91l1.21-2c1.58-2.56-2.17-4.74-3.91-2.41a.75.75,0,0,1-1,0,2.34,2.34,0,0,0-2.3-1.12,43.54,43.54,0,0,0-1.32-9.21,2.12,2.12,0,0,0-1.86-1.65c-.05-.14-.09-.28-.14-.42-1-2.75-5.47-1.66-4.46,1.12a7,7,0,0,1,.15,5c-.47,1.33-1.36,2.4-1.57,3.83s.28,2.32.65,3.6a3.93,3.93,0,0,1,.17,1.16,1.9,1.9,0,0,0-1.72,1.1,18.77,18.77,0,0,1-1,1.65c-.06-1.54-.13-3.08-.19-4.61a2.33,2.33,0,0,0-2.85-2.29,4.71,4.71,0,0,0-2.32,1.41,33.82,33.82,0,0,0-1.13-3.35,13.28,13.28,0,0,0,1.22-2.74c.74-2.41-2.71-4.07-4.08-2a2.31,2.31,0,0,0-2.88.88.41.41,0,0,1-.05.09,2.51,2.51,0,0,0-2.06.59,128.47,128.47,0,0,0-6.19-13.84,2.2,2.2,0,0,0-1-1l-.44-.89c.41-.88.79-1.77,1.12-2.69a9.54,9.54,0,0,0,6.59-.74h0a2.28,2.28,0,0,0,2.31.06c3.11-2.21,6.62-6.11,3.64-10-1.24-1.61-3.24-2-5.4-1.82l1.61-2.4c1.77,1.11,4.56-.83,3.26-3a1.31,1.31,0,0,1-.26-1.42c1.18-2.63-2.22-4.94-3.92-2.41l-2.26,3.37a2.49,2.49,0,0,0-1.61-1.54,40.5,40.5,0,0,0-1.92-5.45,2.65,2.65,0,0,0,.52-2l.22,0a2.41,2.41,0,0,0,.88-.32,2.08,2.08,0,0,0,.5.07,1.7,1.7,0,0,0,.89-.18,1.61,1.61,0,0,0,.75-.45,2.34,2.34,0,0,0,.71-1.61,2.38,2.38,0,0,0-.64-1.64l-.66-.7a2.34,2.34,0,0,0-1.61-.71,1.7,1.7,0,0,0-.89.18,1.63,1.63,0,0,0-.75.46,2.25,2.25,0,0,0-.35.45c-2.13.33-4.23.72-6.33,1.14l-.11-.06-3.06-1.74a2.16,2.16,0,0,0-1.1-.29,2.21,2.21,0,0,0-1.15-3.49c-.52-.14-1-.25-1.59-.35l0-.08a2.46,2.46,0,0,0-.3-1.88,2,2,0,0,0-1.46-2.69,9.29,9.29,0,0,0-5.85.61c-1.14.47-3.4,2-5,1.78.89-2.19,3.62-3.37,5.67-4.24,2.63-1.11,5.14-2.17,7.19-4.22a2.32,2.32,0,0,0-.92-3.86,12.74,12.74,0,0,0-13.43,3.85,2.36,2.36,0,0,0-.41,2.42,14.63,14.63,0,0,0-3.75,2.83l-3.11-.79c.93-.94,3-2.59,3.28-3a4.58,4.58,0,0,0,.49-5.14,2.22,2.22,0,0,0-.46-.61c1.54-1.73-.5-4.92-2.81-3.54-2.63,1.56-2.58,3.92-3.19,6.61-.43,1.87-1.44,2.38-3.22,2.86a9.79,9.79,0,0,1-2.28.44,2.77,2.77,0,0,1-1.45-.19v-.09a2.31,2.31,0,0,0,.6-3.59c-1.35-1.64-3-3.17-5.31-3a4.55,4.55,0,0,0-2.74,1.1,4.61,4.61,0,0,0-4.8,2.92,2.23,2.23,0,0,0,.54,2.25,16.25,16.25,0,0,1,4,5.8c-1,.34-2.08.72-3.1,1.12a9.41,9.41,0,0,0-3.46.1c.34-1.69-1.61-3.68-3.39-2.55-.91.57-1.82,1.14-2.72,1.72a8.35,8.35,0,0,1-2.61.59,2.42,2.42,0,0,0-2.25,2.6,2.17,2.17,0,0,0-.56,1.51l-.91.44c.38-2.37-2.67-3.62-4-2.16a5.6,5.6,0,0,1,.23-1.52,22.87,22.87,0,0,0,.53-2.86,5.72,5.72,0,0,0-1.24-4.22,4.6,4.6,0,0,0-2.47-1.41c-.05-.3-.11-.6-.19-.91a2.32,2.32,0,0,0-3.34-1.45,21.41,21.41,0,0,0-4.09,2.86c-3.13,1.22-5.07,4.72-5.77,7.88l-.06.29a21.46,21.46,0,0,0-1.63,9.48,2.32,2.32,0,0,0,1.43,2.13c0,.1,0,.2.05.3a42.5,42.5,0,0,0-3.86,8.82,2.06,2.06,0,0,0,.05,1.37c-.5,1.27-1,2.52-1.58,3.77l-.45.25c-.09-.23-.18-.46-.28-.69-.73-1.81-2.87-1.37-3.83-.11a2.39,2.39,0,0,0-3.55-.76c-1.1-.7-1.75-1.36-1.47-1.87a2.84,2.84,0,0,0-4-3.52,2.26,2.26,0,0,0-2.15-2.46,6.69,6.69,0,0,0-6,3,3,3,0,0,0-1.15,1.4,31.49,31.49,0,0,0-1.32,3.63,23.83,23.83,0,0,0-5.62,3.47,2.21,2.21,0,0,0-.64,2.22,16.87,16.87,0,0,0,5.78,7.61l-.43,1.56a10.83,10.83,0,0,0-1.73,6.48,23.82,23.82,0,0,0-6.45,1.78c-2.26,1-1,4.13,1.06,4.31a4.59,4.59,0,0,1,3.35,1.88,2.37,2.37,0,0,0,3.13.89,2.31,2.31,0,0,0,.9-3.12,10.61,10.61,0,0,0-1-1.25c.39,0,.78-.06,1.17-.07,1.64.56,3.76-.55,3-2.55a1.87,1.87,0,0,1-.07-.22,2.7,2.7,0,0,0-.19-.63,6.46,6.46,0,0,1,.38-4.43,2.51,2.51,0,0,0,.68-.94l.12-.29a5.09,5.09,0,0,1,.56-.58,3.88,3.88,0,0,0,.71-.15,13.57,13.57,0,0,1,.31,2c-.37,1.42-.75,2.85-1.14,4.27a2.44,2.44,0,0,0-.07.92,7.59,7.59,0,0,1-.85,1.08c-2,2.14,1.14,5.48,3.18,3.32l.4-.45a1.8,1.8,0,0,0,.19.2c0,.34-.05.69-.07,1.06a18.24,18.24,0,0,0-.83,2.25,3.4,3.4,0,0,0,1.26,3.56,6.53,6.53,0,0,0,1.48,2.85c1.83,1.89,5.16,1.12,5.79-1.26l.18-.13a24.06,24.06,0,0,0,3.29-3.41,4.19,4.19,0,0,0,1.72.8,15.46,15.46,0,0,0,2.43-.06c.21.8.44,1.59.67,2.38a5.74,5.74,0,0,0-1.29,2.16c-.8.89-1.61,1.69-1.94,2.16a8.88,8.88,0,0,0-1.7,4.33,36.92,36.92,0,0,0-4.29.52c-2.8.5-1.87,4.63.79,4.49a1.94,1.94,0,0,0,1.81.91c3.14-.09,6-1.1,9-2a16.49,16.49,0,0,1,3-.68,2.48,2.48,0,0,0,1.27,0c.25,0,.49,0,.73.08a2.35,2.35,0,0,0,3.42,1.81l.2-.11,0,0a9.47,9.47,0,0,0,7.32,1.83L247,1148.21q-11.35.35-22.69.74a355.14,355.14,0,0,0-66.4,2,5.88,5.88,0,0,0-.07-2.25,6.78,6.78,0,0,0-3.93-4.44,5.61,5.61,0,0,0-.49-.86c.15-.42.31-.85.47-1.27.73-2-1.45-3.26-3.11-2.74l.17-3.48a2.31,2.31,0,0,0-4.25-1.26,13.83,13.83,0,0,1-4.24,4.4l-.36-5.78a2.3,2.3,0,0,0-4.6-.1,6.86,6.86,0,0,1-4.51,5.63,1.78,1.78,0,0,0-1.7-.67,4.56,4.56,0,0,0-3.64,2h0a9.84,9.84,0,0,0-1.23-4.41c-.83-1.68-2.38-3.4-1.79-5.39a2.31,2.31,0,0,0-3.79-2.32,14.24,14.24,0,0,0-2.49,3.35,1.79,1.79,0,0,0-1.49.7,9,9,0,0,0-2.34,5v0a16.51,16.51,0,0,1-1.24-3.75,2.21,2.21,0,0,0-3.54-1.24L107,1127.6c-1.29-2.11-5.12-.91-4.24,1.67a12.51,12.51,0,0,1,.66,5.47l-.88.24a2.22,2.22,0,0,0-2.3-.07,22.46,22.46,0,0,0-3.49,2.17,10.36,10.36,0,0,0-3-4.89,3.49,3.49,0,0,0-1.92-1l-.59-.29a48.87,48.87,0,0,0-3.27-6.81c-1-1.68-3.78-2.5-5.2-.79a90.48,90.48,0,0,0-6.53,8.64,11.36,11.36,0,0,0-2,2.35,6.6,6.6,0,0,0-1.09-.46,2.14,2.14,0,0,0-2.72,1.35,4,4,0,0,0-2.07-.5,5.12,5.12,0,0,0-3.5,1.7,10.62,10.62,0,0,0-1.16,1.53c-.24.38-.47.76-.71,1.13l-.17.18a2,2,0,0,0-1-1.28l-5.19-2.85c-1.66-.91-4.05.49-3.44,2.52,1,3.17-3,4.67-5.28,5.65a2.29,2.29,0,0,0-1.11,2.57c0,.08,0,.18.07.29l-.77.68c-.33-1.09.19-2.63.43-3.6.53-2.15-2.08-4-3.79-2.32a5.28,5.28,0,0,0-1.71,4,11.44,11.44,0,0,1-4.53,1.14h-.93v0l-.62.05-.37.08a23.4,23.4,0,0,0-5.24-1.82,1.81,1.81,0,0,0-1.62-1.85l-.29-.06a1.77,1.77,0,0,0-1.8-.78,4,4,0,0,1-3.73-1.24c-1-1.16-.87-2.83-1.74-4.09a5.46,5.46,0,0,0-3-2.06c-.38-.11-3.84-.44-3.82-.95a2.33,2.33,0,0,0-3.42-2.06l-8.13,4.21a11.41,11.41,0,0,0-1.39.48v131.36H2029.87V1121.82A12.47,12.47,0,0,0,2028.19,1122.65ZM911.6,1124.23a1.89,1.89,0,0,1-.09,1.82C911.56,1125.44,911.58,1124.84,911.6,1124.23Zm-716.69-43.78a7.19,7.19,0,0,0-.79-3.61,2.4,2.4,0,0,1,1.36-.34,2.11,2.11,0,0,0,1.21-.27C196.1,1077.64,195.5,1079,194.91,1080.45Zm13,28.25c-.14-.09-.09-.51,0-.93l.18.83C207.92,1108.64,207.84,1108.68,207.87,1108.7Zm1.65,15.19a4.48,4.48,0,0,1,.69-1.59,2.4,2.4,0,0,0,1.8-.37c.13.36.27.72.41,1.07C211.45,1123.26,210.49,1123.57,209.52,1123.89Zm12.4-.51c0-.16,0-.32,0-.48l.32.39Zm8.53-62c0-.2,0-.4,0-.6a3.91,3.91,0,0,0,.6.4Zm-108.93,76.22c0-.14,0-.27,0-.41s0-.46.07-.68c.23.42.47.89.7,1.38A4.38,4.38,0,0,0,121.52,1137.61Zm132-6.93-2.19,15.3-15.26-14q.49-.15,1-.27a1.86,1.86,0,0,0,.41.17,10.17,10.17,0,0,0,7-.51,11.48,11.48,0,0,0,3.43,3.55,2.31,2.31,0,0,0,3.5-1.9c0-1.14-.13-2.26-.28-3.37a9.35,9.35,0,0,0,3.17-.38A2.59,2.59,0,0,0,253.53,1130.68Zm4.34-1.19a.56.56,0,0,0-.05.08,2.11,2.11,0,0,0-.28-.41c.32-.16.64-.33.95-.51Zm.84,18.39a41.24,41.24,0,0,0,.64-6.17,3.62,3.62,0,0,0,2.76.13,3,3,0,0,0,2.07-2.87c0-1.09-.56-1.4-1.22-2.14a8.47,8.47,0,0,1-1.2-1.64,132.18,132.18,0,0,0,11.82-11.12l.16.24a24,24,0,0,0-1.61,8.26,8,8,0,0,0,.27,2.33,3.33,3.33,0,0,0-2.78,4.85,18.46,18.46,0,0,0,2.57,4.07,6.82,6.82,0,0,0,.27.84,5.21,5.21,0,0,0,3,2.81Q267.05,1147.65,258.71,1147.88Zm79.74-23.78a2.59,2.59,0,0,0-1.74.49l-.31.25a13.15,13.15,0,0,0-1.63.35,2.52,2.52,0,0,0-.69-.69,11.6,11.6,0,0,0,.55-2.08c0-.13,0-.26.06-.39a1.7,1.7,0,0,0,.89.5,5.56,5.56,0,0,0,2.88-.07,6.79,6.79,0,0,0,.75.41Zm47.21-38.78c0-1.13,0-2.26,0-3.39.07.64.13,1.27.2,1.91s.15,1.24.22,1.86A2,2,0,0,0,385.66,1085.32Zm82.21-84.82a2.73,2.73,0,0,0-.25-.23c.2-.79.36-1.6.49-2.42a3.83,3.83,0,0,0,1.2.73,3.24,3.24,0,0,0,.27,1,3.16,3.16,0,0,0-1.56.8ZM486.69,1139c-.47.34-.93.68-1.39,1s-.89.58-1.35.84a2.9,2.9,0,0,0-4.23-1.06,8.4,8.4,0,0,0-4,5.46,4,4,0,0,0-.09.75,15.77,15.77,0,0,0-4.79.58c0-.63-.07-1.25-.1-1.88l-.18-4.55,1.88-.52a3.21,3.21,0,0,0,.52-.11l8.21-2.5,3.86-1.17a12.35,12.35,0,0,0,1.82-.55l.1,0a2.68,2.68,0,0,0,1.61,1.72A3.49,3.49,0,0,0,486.69,1139Zm8.85-24.72s0,.08,0,.12l-.24.25a3.36,3.36,0,0,0-.9,2.34c-.28.3-.56.59-.86.87a19.9,19.9,0,0,1-3.49,2.82,3.33,3.33,0,0,0-4.73.84,4.09,4.09,0,0,0,.73,5.39l-1.72.89-.69.34a3.28,3.28,0,0,0-2.19-.63,3.45,3.45,0,0,0-3.25,2.37v0c-.59.34-1.21.66-1.83,1a3.39,3.39,0,0,0-3.24.55l-2,1.54-.86.28q-.3-7.73-.56-15.45a6.78,6.78,0,0,0,1.29.83c-1.56,3.91,4.76,5.75,6.38,1.86a1.36,1.36,0,0,1,.64-.5,32.07,32.07,0,0,0,3.39-.17,3.53,3.53,0,0,0,2.4.1,3.6,3.6,0,0,0,1.24-.65,35,35,0,0,0,5.33-1.56,3.53,3.53,0,0,0,2.51-3.32l1.57-.84,1.23-.5A2.82,2.82,0,0,0,495.54,1114.3Zm32.51,18.63a4.28,4.28,0,0,0,.64.33l2.41,1a2.78,2.78,0,0,0,2.18.08q.68.09,1.35.15a6.28,6.28,0,0,0,.53,3.94h0c-.82-.11-1.65-.17-2.48-.2l-.16-.06a2.91,2.91,0,0,0-2.3-2.94c-1.32-.36-2.64-.74-3.95-1.13A3.35,3.35,0,0,0,528.05,1132.93Zm19.62,18.35c-.47.6-.93,1.21-1.39,1.82a121.79,121.79,0,0,0-16.42-4.34,3.7,3.7,0,0,0-.73-3.77c.42,0,.83-.09,1.25-.11a9.68,9.68,0,0,0,2.68.42,72.46,72.46,0,0,0,16.94,2.81Zm56.53-32.39c-.92-1-2.21-2.58-1.74-3.92a2.46,2.46,0,0,1,1-1.14,23.25,23.25,0,0,0,2.3,3.1A25.17,25.17,0,0,0,604.2,1118.89Zm69.26,39.37a3.12,3.12,0,0,0,.22-1l1.38.46C674.53,1157.92,674,1158.08,673.46,1158.26Zm4.33,6.16-.28-.06c.38-.1.76-.19,1.14-.3Zm202.62-29.53a9.05,9.05,0,0,1-2.49-.61,4.6,4.6,0,0,0-2.46-.23,2,2,0,0,0-2.35-.3,1.33,1.33,0,0,0-.19.14,1.9,1.9,0,0,0-.43-.42q4.11,0,8.22-.28C880.59,1133.75,880.49,1134.32,880.41,1134.89Zm10-33.27c.13-.24.27-.47.41-.71,0,.28,0,.56,0,.85A2.3,2.3,0,0,0,890.4,1101.62Zm11.11,31.16c-.2-.38-.41-.76-.62-1.14l1.86-2.72a16.78,16.78,0,0,1,.31,2.74C902.55,1132,902,1132.41,901.51,1132.78Zm5.55-3.69-.2,0c-.09-.57-.2-1.13-.33-1.69a.18.18,0,0,1,.05-.07l.42.42a1,1,0,0,0,.22.18C907.17,1128.33,907.12,1128.71,907.06,1129.09Zm.24-6.83c-.59-.62-1.18-1.25-1.77-1.9.67.23,1.36.44,2,.68Zm9.47,21.46-.34,0a2.3,2.3,0,0,0-1.06-.82l-2-.74a2.06,2.06,0,0,0,.64-.85,24,24,0,0,1,6.21.09A29.61,29.61,0,0,0,916.77,1143.72Zm10.7-53.83h0c-.18-.2.1-.54.58-.91C927.86,1089.28,927.67,1089.59,927.47,1089.89Zm18-.21,0-.79c.41.26.82.51,1.25.74,0,.43.08.86.1,1.29A2.3,2.3,0,0,0,945.48,1089.68Zm5.4,20.07a5.11,5.11,0,0,1,2.53.32,1.73,1.73,0,0,0-1.13.56c-.46.51-.92,1-1.37,1.54a1.74,1.74,0,0,0-.26-1.77C950.73,1110.18,950.81,1110,950.88,1109.75Zm1.11,10.66a1.93,1.93,0,0,0,1.06,1.71l-3,1.62C950.73,1122.65,951.38,1121.54,952,1120.41Zm55.55,31.55a4.86,4.86,0,0,0-2.11-2.48c1-.78,1.93-.81,3.19.37a12.43,12.43,0,0,1,1.87,2.31A5.34,5.34,0,0,0,1007.54,1152Zm29-34.24c-.18-.53-.39-1-.62-1.56a5.33,5.33,0,0,0,.89,1Zm17.33-14.15a8.47,8.47,0,0,1,3.51.14A31.5,31.5,0,0,0,1053.84,1103.57Zm564.51-12a5,5,0,0,1-.87.63,2.59,2.59,0,0,1-2.15.63,2.79,2.79,0,0,1-1.24-.53,2.63,2.63,0,0,1-1.13-.7,3.1,3.1,0,0,1-.65-1.16,2.62,2.62,0,0,1,.42-2.15,3,3,0,0,1,.8-1.81,2.45,2.45,0,0,1,1.51-.68,2.48,2.48,0,0,1,1,.09,3.54,3.54,0,0,1,3.16,2.77A3.15,3.15,0,0,1,1618.35,1091.62Zm9-5.35a6,6,0,0,1,.6-1.19s0,0,0,0l0,0a2.76,2.76,0,0,1,.7-.86,3.13,3.13,0,0,1,1.46-1,2.72,2.72,0,0,1,2.62.77,2.92,2.92,0,0,1,.44.59,2.68,2.68,0,0,1,.68,3.46,2.33,2.33,0,0,1-1.23,1,2.61,2.61,0,0,1-4.9-.46A2.5,2.5,0,0,1,1627.39,1086.27Zm-2.15,93.53q.63-8,1.25-15.91l.48-6c0-.72-.19-2.47.24-3.05s3.26-.54,4-.59a39.71,39.71,0,0,1,4.22-.11c2.42.07,5.07.44,7,2.09,2.16,1.88,3,5,3.83,7.68a67.45,67.45,0,0,1,2.89,16.57Q1637.15,1180.07,1625.24,1179.8Zm115.87-2.89.2-.13a.74.74,0,0,0,.12.13Zm6.82-21.9a2.47,2.47,0,0,1,0,.38l0,.24a4.92,4.92,0,0,1-.62,1.21,2.14,2.14,0,0,1-.1.22,3.7,3.7,0,0,1-1.39,1.33,2.69,2.69,0,0,1-3.15-.4,2.61,2.61,0,0,1-.73-2.2,3.24,3.24,0,0,1,0-.44c0-.33,0-.67,0-1a2.64,2.64,0,0,1,2.6-2.6,2.43,2.43,0,0,1,1.83.77,2.92,2.92,0,0,1,.36.17l0,0a2.42,2.42,0,0,1,1,1c.06.11.11.23.16.34a1,1,0,0,1,.06.16l0,0s0,0,0,0a2.06,2.06,0,0,1,.08.66Zm9.51,9.49-.28,0a2.67,2.67,0,0,1-.93,0,2.66,2.66,0,0,1-2.81-3.31,3,3,0,0,1,.24-.55,2.76,2.76,0,0,1,.33-1,2.72,2.72,0,0,1,2.3-1.3h.12a2.52,2.52,0,0,1,.48-.05,2.7,2.7,0,0,1,1.84.76,2.62,2.62,0,0,1,.65,1.1,2.73,2.73,0,0,1,.67,1.69A2.62,2.62,0,0,1,1757.44,1164.5ZM1963.82,1142c0-.32.07-.64.1-1a9.3,9.3,0,0,0,.43.9Zm28.28-32.7a5,5,0,0,0-.79-1.3l.22-.09.24-.09a2,2,0,0,0,.33.45l.66.7.18.15A2.43,2.43,0,0,0,1992.1,1109.25Z"/></g></g></svg>