<svg xmlns="http://www.w3.org/2000/svg" viewBox="0 0 2029.67 1267.96"><defs><style>.cls-1{fill:#d0ccc0;}.cls-2{fill:#fff;}</style></defs><g id="Layer_2" data-name="Layer 2"><g id="Layer_2-2" data-name="Layer 2"><rect class="cls-1" x="0.19" width="2029.47" height="216.03"/><path class="cls-2" d="M2028.41,185.9c-26.19,5.61-52.79,6.24-65.59,4.25l.07-4.25.2-13.32a.5.5,0,0,0,.36-.11,83.91,83.91,0,0,1,19.54-12c2-.89,4.12-1.7,6.23-2.43.62-.21.35-1.2-.27-1a84.86,84.86,0,0,0-21,10.66c-1.68,1.17-3.3,2.41-4.88,3.69l.19-12.57a14.7,14.7,0,0,1,1.91-2.19,18.69,18.69,0,0,1,6-3.49h13.17a.51.51,0,0,0,0-1h-10.79a13.23,13.23,0,0,0,1.63-.94,17.87,17.87,0,0,0,3-2.72c.48-.52,1-1.06,1.42-1.59a.52.52,0,0,0,.7.24,10.68,10.68,0,0,1,5.44-1.11c1.8.11,3.55.82,5.37.66,3.21-.28,5.64-2.68,7.75-4.88.45-.47-.27-1.2-.72-.72-2.17,2.27-4.74,4.84-8.14,4.58-1.79-.13-3.47-.73-5.27-.68a11.68,11.68,0,0,0-4.3,1l3.72-4.27,6.84-7.82c.43-.49-.29-1.22-.73-.72l-9.44,10.8a.49.49,0,0,0-.51.11l-.87.87c-.89-4.36-1.82-8.71-2.66-13.08a.45.45,0,0,0,.29-.13,25.76,25.76,0,0,1,7.56-4.93.52.52,0,0,0,.19-.7.53.53,0,0,0-.7-.18,26.39,26.39,0,0,0-7.54,4.88c-.61-3.37-1-7.31,1.37-10.1.42-.5-.3-1.23-.72-.72-2.57,3.08-2.31,7.25-1.66,11,.8,4.6,1.83,9.16,2.77,13.73a2.09,2.09,0,0,0-.43,1.47,2.07,2.07,0,0,0,.18.69.41.41,0,0,0,.1.13l-.28.32a18.38,18.38,0,0,1-3,2.93,17,17,0,0,1-3.76,1.9l-.1,0h-.25a.45.45,0,0,0-.44.28,18.69,18.69,0,0,0-5.66,3.32,13,13,0,0,0-1.37,1.41l.15-9.92a.85.85,0,0,1,.14-.19,9.81,9.81,0,0,0,8-6.88,7.92,7.92,0,0,0,.14-3.9c-.14-.64-1.13-.37-1,.27a7.74,7.74,0,0,1-2.2,6.89v-1a5.16,5.16,0,0,0,0-1.36V141h0s0-.09,0-.14a.38.38,0,0,0-.08-.17,66.59,66.59,0,0,1,5-16.62c.26-.59-.61-1.11-.88-.51a67.16,67.16,0,0,0-5.26,17.71,2.71,2.71,0,0,0-.25,1.68.49.49,0,0,0-.3.42,2.63,2.63,0,0,1-1.52,2.18,14,14,0,0,1-1.79.41l.17-11.44a1.8,1.8,0,0,0-1.24-1.84l-.59-1.21a9.69,9.69,0,0,1,.22-6.17,5.24,5.24,0,0,1,1.44-1.89c.7-.57,1.53-1,2.26-1.52,1.55-1.16,1.93-2.78,2-4.64a7.32,7.32,0,0,1,.54-3c.41-.8,1.16-1.63,2.16-1.4.63.15.91-.83.27-1-1.8-.42-3.13,1.11-3.65,2.67-.65,1.94.18,4.42-1.33,6a14.24,14.24,0,0,1-2.43,1.72,6.61,6.61,0,0,0-1.82,1.87,8.14,8.14,0,0,0-1,4.52q-2.1-4.36-4.21-8.72c-.31-.63-1.3,0-.8.65l5.36,10.83a26.74,26.74,0,0,0,.74,2.72c-.31,3.73-.59,7.45-.85,11.19,0,.25,0,.5,0,.75a.36.36,0,0,0-.07.1.38.38,0,0,0-.06-.13,11.87,11.87,0,0,0-4.6-3.6c-1.76-.91-3.73-1.79-5-3.43-1.54-2.05-1.37-4.78-1.19-7.21a17.07,17.07,0,0,0-.33-6.37,5.84,5.84,0,0,0-4.06-4.31c-.65-.14-.92.85-.28,1,1.92.42,3,2.12,3.45,3.91a19.47,19.47,0,0,1,.15,6.42c-.15,2.31-.13,4.81,1.18,6.82a11.31,11.31,0,0,0,4.38,3.48c1.8.94,3.81,1.83,5.09,3.46a.45.45,0,0,0,.27.56c.32.56.56,1,.87,1.55-.21,3-.39,5.93-.39,8.9v.22c-1.79-2.79-5.12-3.92-8-5.17a25.45,25.45,0,0,1-8.42-5.79.55.55,0,0,0,.56-.34,24,24,0,0,0,1.37-12.38c-.64-4.23-3.17-8.39-2.49-12.75.1-.65-.88-.92-1-.27-.68,4.32,1.53,8.25,2.34,12.39a23,23,0,0,1-1.23,12.74.27.27,0,0,0,0,.13c-.08-.1-.17-.18-.25-.27a24.7,24.7,0,0,1-2.65-3.7.44.44,0,0,0,0-.47l-.78-1.1a.56.56,0,0,0-.06-.33c.19.13.4.24.6.37-.16-.23-.31-.46-.46-.7s-.28-.41-.43-.61-.45-.49-.66-.74a21.89,21.89,0,0,0-14-1.84c-.65.13-.38,1.11.27,1a20.77,20.77,0,0,1,13.06,1.68.47.47,0,0,0,0,.54l.62.88s0,.06,0,.08a25.57,25.57,0,0,0,7,8.74,24.94,24.94,0,0,0,3.93,2.59,7.64,7.64,0,0,0-.82.1.43.43,0,0,0-.31.26,30,30,0,0,0-19.42,0,12.68,12.68,0,0,0-4.75-6.84c-.53-.39-1,.5-.51.88a11.56,11.56,0,0,1,4.41,6.75.54.54,0,0,0,.63.36,29.15,29.15,0,0,1,20.37.19.4.4,0,0,0,.54-.19l2.19-.12a.57.57,0,0,0,.34-.13c1,.41,2,.82,3,1.29a9.47,9.47,0,0,1,4.47,3.74.44.44,0,0,0,.62.19v7.71a1,1,0,0,1-.81,1.05,24.07,24.07,0,0,0-11.94-9.84c-.62-.23-.89.75-.28,1a23.08,23.08,0,0,1,12,10.4q-.13,8.51-.26,17c0,1.5,0,3-.07,4.5-1.89.09-3.77.18-5.66.24q-1.15-2.37-2.29-4.74l0-.07a.71.71,0,0,0-.44-.92c-.49-1-1-2-1.48-3.08a.47.47,0,0,0-.44-.25,3.92,3.92,0,0,0-1.13.33.49.49,0,0,0-.54.33,3.82,3.82,0,0,0-1.09,1.27c-.49-.44-1.22.41-.55.88l.09.22a9,9,0,0,0-.31,1.29,12.37,12.37,0,0,0-.15,2,12.08,12.08,0,0,0-.23,2.93c-8.06,0-16.16-.25-24.33-1-1.48-.13-3-.28-4.44-.43a190.3,190.3,0,0,1-20-1.63c-8.19-.36-16.39-1-24.54-1.9q-3.19-.36-6.38-.78c-3.32-.35-6.63-.7-9.93-1.13-22.44-1.85-17.54-4.3-39.89-7a23.18,23.18,0,0,0-8.31-5.4,11.7,11.7,0,0,0-6.26-.4c-2.55.55-4.59,2.32-7.09,3a2.65,2.65,0,0,0-.3.11q-21.18-2.7-42.34-5.48c-47.75-6.18-95.59-12-143.72-14.2a7,7,0,0,1-6.82-6.83c0-.09,0-.19,0-.29l-4.65-.25a6.89,6.89,0,0,1-6.7-5.92,5.14,5.14,0,0,1-.06-.88c-1.32-.27-2.63-.56-3.94-.87,2-.37,2.07-3.25.11-4-.6-.22-1.18-.46-1.77-.7a1.64,1.64,0,0,0,.1-2.19l-4.54-6-.79-2.15c.8.25,1.59.57,2.36.79l5.24,1.67a1.74,1.74,0,0,0,2.12-.68,26.06,26.06,0,0,1-8.48-7.84,27.49,27.49,0,0,1-5.15-6v-.14c0-.13,0-.25,0-.37a3.49,3.49,0,0,0,.79,0,1.58,1.58,0,0,0,1.48-1.13c0-.11,0-.22,0-.33a11.69,11.69,0,0,0,4.4-2,1.55,1.55,0,0,0-.78-2.86,34.8,34.8,0,0,1-6.14-1.32c0-1.68,0-3.36,0-5a16.65,16.65,0,0,1-1-6.79,2.21,2.21,0,0,0-1-.13c-1.37,12.13-3.23,25.4-16.12,29.88l-.19,0a2.07,2.07,0,0,0,1.9,1.47,25.48,25.48,0,0,0,7.16-.54l0,.06a2.09,2.09,0,0,0,1.49,3.05,9.05,9.05,0,0,0-.06,3.29,1.09,1.09,0,0,0,.07.24,15.26,15.26,0,0,1-2.54,1.39,1.86,1.86,0,0,0-1.93-2.25,24.44,24.44,0,0,1-18.22-8.09,34.72,34.72,0,0,0-1.92-3.36,41.26,41.26,0,0,0,3.73,2.66,22.56,22.56,0,0,0,2.87,1.66c2.35,1.11,4.42-2.3,2.07-3.53-.82-.43-1.62-.88-2.39-1.36a19.19,19.19,0,0,1-3.61-3.1c1.89,1.72,4.47,3.94,6.41,1.24,1.71-2.38,0-5.06-2.3-6.1a37.19,37.19,0,0,0-5.11-1.8c-.74-.8-1.45-1.63-2.13-2.48h.5l15.61.38a1.75,1.75,0,0,0,1.22-.43A30.81,30.81,0,0,1,1543.79,98l0,0a2.24,2.24,0,0,0-.36-.31,26,26,0,0,1-11.23-18.55,2.11,2.11,0,0,0-1.33-1.79,18.91,18.91,0,0,1-2.48,4.78l-.3.72,0,3.68a2.12,2.12,0,0,0-.26.38,46.44,46.44,0,0,1-6.92,9.89v0a27.25,27.25,0,0,1-5.48,7.79,62.09,62.09,0,0,1-5.34,3.89,1.85,1.85,0,0,0,2.45.38,51.23,51.23,0,0,0,9.17-7c-.22.58-.43,1.17-.63,1.76a1.76,1.76,0,0,0,.35,1.86,2.79,2.79,0,0,1,.8.48l.29.08-.1.1a2,2,0,0,1-.14,3.07c-1.1.87-2.21,1.7-3.34,2.5a2.46,2.46,0,0,1-1.34,1.29c-1.89.76-3.1,2.62-4.72,3.78a7.61,7.61,0,0,1-2.26,1.1,1.73,1.73,0,0,0,1.93,2.09,38.14,38.14,0,0,0,13.51-4.07q-3.4,4.09-6.59,8.34a1.6,1.6,0,0,0-.08,2c-.55.39-1.12.76-1.7,1.11-1.6,2.4-4.32,4-6.37,5.93-.3.3-.61.59-.92.88a2.19,2.19,0,0,0,1.63.81,18.07,18.07,0,0,0-2.55,1.14c-2,1.11-.65,4.44,1.57,3.74l8.46-2.66c3.94-.71,7.94-1.19,11.34-3.28-.11.16-.21.32-.31.49l-1.46.78,0,0a1.25,1.25,0,0,0-.12.08l-10,5.34c-2,1.07-.59,4.65,1.57,3.74l5.08-2.14v.08l-16.82,8-8.3.1-6.53-8.65c-1.71,0-3.43,0-5.14.09-2.07.08-5.72,0-8.2.68a.76.76,0,0,0,0,.21,1.51,1.51,0,0,0,.09.18,4.43,4.43,0,0,0-1.91,2.11,36.16,36.16,0,0,1-3.56,6l-2.84,0-7.7-.08c-.26-7.37-3-15.21-9-19.15-2.3-1.52-5.15-1.41-7.8-1.56l-8.91-.51c-3.22-.19-10.49-1.74-11.93,2.44-1.58,0-3.15-.07-4.73-.13l-2.48-2.48-.37-7c0-.52-.14-1.2-.23-1.9,1.11,0,2.21.11,3.32.2,2.23.19,2.8-2.59,1.65-4q-8.39-10.32-17.62-19.89c-2.58-2.67-5.15-5.73-8.28-7.8s-6.48-2.23-10-2.6l-2.22-.24-.41-10a2.44,2.44,0,0,0-2.78-2.27,2.38,2.38,0,0,0-2.71,2.23q-.2,3.38-.31,6.75-.09,1.31-.12,2.61l-2.54-.27c-.09-1.29-.19-2.57-.28-3.86-.13-1.81-.2-3.83-2.26-4.46a3.52,3.52,0,0,0-.52-.12,2.5,2.5,0,0,0-3.54,2.72h0a26.73,26.73,0,0,0-.88,4.91l-11.88-1.27a45.89,45.89,0,0,1-.44-7.86,2.37,2.37,0,0,0-2.34-2.33c-2.16-.07-4.72-.35-5.24,2.35a31.76,31.76,0,0,0-.08,7l-1.48-.16c-.18-1.38-.33-2.77-.42-4.17a2.39,2.39,0,0,0-2.4-2.34h-2.79a2.4,2.4,0,0,0-2.35,2.34c0,1.1,0,2.21,0,3.31l-6.07-.65a1.89,1.89,0,0,0-1.78.69c-1.29-1-3,0-3.37,1.5-1.91,1.86-3.39,5-4.52,6.59a219,219,0,0,1-20.77,24.43c-2.11,2.15,1.2,5.46,3.31,3.31,1-1,2-2.07,3-3.12q.51,4,1.09,7.91-.7,10.92-1.06,21.85-38.07,4.29-76.16,8.26a218.14,218.14,0,0,0-24.94,1.57l-.23.05a10.74,10.74,0,0,0-1.69.16q-8.67,1.48-17.36,2.74l-18.3,1.81c-58.17,2.48-122.23,5.25-165.51,7.09l-11.09-.28c-35.68-1-71.33-2.81-107-4.58-35.85-1.77-71.72-3.5-107.61-4.28-34.68-.75-66-26.49-100.63-24.63-.81-4-2.65-7.74-6.85-9.22a9.73,9.73,0,0,0-2.23-.48,26.9,26.9,0,0,0-.33-4.13c-.32-2.08-2.95-3.25-4.66-3l-2.53-.1a4.66,4.66,0,0,0-1.88-.06q-.78-13.62-1.91-27.22a8,8,0,0,0-.16-2.14,3.22,3.22,0,0,0-.52-1.12,7.68,7.68,0,0,0,.16-1.81,6.91,6.91,0,0,0-.79-3.53,6.9,6.9,0,0,0-1.9-3l-1.85-1.43a9.09,9.09,0,0,0-4.63-1.25l-2.44.33a9.11,9.11,0,0,0-4,2.35l-.4.4a6.9,6.9,0,0,0-1.9,3,6.83,6.83,0,0,0-.78,3.57,5,5,0,0,0-.27.51,1.16,1.16,0,0,0-.54,1.06q.2,18.92.38,37.81c0,3.39,0,6.79.08,10.19a7.82,7.82,0,0,0-4.48,2.33c0-1.88-.07-3.76-.1-5.63l-.63-31.87a1.12,1.12,0,0,0-.52-1,9.1,9.1,0,0,0-9-8.86,9.22,9.22,0,0,0-9,9q-1,21.52-.19,43.07c-3.8-.08-7.6-.14-11.4-.15a3.82,3.82,0,0,1-.73-2,2.46,2.46,0,0,1,.34-1.41,3.28,3.28,0,0,1-.34-1.31c-.34-6.34-.66-12.68-.82-19-2.93-3.07-5.56-6.4-8.29-9.65-6.79-5.81-13.6-11.61-20-17.83a8.55,8.55,0,0,0-1.3-.51l-1.57.29c-9.11,1.66-18.21,3.39-27.27,5.29l-4.91,1c-4.72,3.61-9.26,7.48-13.9,11.17l-2.31,1.85q-30.41-.09-60.76-2.39c-3.6-.27-7.19-.58-10.78-.89-.78-4.61-5.62-8.13-10.4-6.38a15.42,15.42,0,0,0-6.31,4.76q-18.6-2-37.1-4.68c-20.27-3-40.55-6.36-60.49-11-19.31-4.53-38.4-10.52-56.12-19.55-1.65-.83-3.27-1.71-4.89-2.59a22.09,22.09,0,0,0,.24-6.18,2.21,2.21,0,0,0,0-.37.06.06,0,0,0,0,0,1.72,1.72,0,0,0-2.3-1.36c-3.43-.31-6.88-.59-10.31-.85l-.6-6c-.26-2.67-5.91-1.72-1.21,3l-1.28,2.79q-19.32-1.4-38.71-1.76V49.2a1.53,1.53,0,0,0-3.06,0v4.61q-4.68-.08-9.36-.09a1.87,1.87,0,0,0-.49.07l-1.26-.12a1.72,1.72,0,0,0-1,.07,1.06,1.06,0,0,0-.48.73,7,7,0,0,0-.08,1.12v.29a15.33,15.33,0,0,0-.19,1.66,17.72,17.72,0,0,0-.76,4.28A152.8,152.8,0,0,1,184.58,87a289.35,289.35,0,0,1-23.51,20.75l.19.08-5.41,4.87a13.37,13.37,0,0,1-8.44-2.87,2.18,2.18,0,0,1-.68-.91,15,15,0,0,1-3.91-3.87,4,4,0,0,0-1.4-2.24,1.54,1.54,0,0,0-2.4,1.86c.26.51.55,1,.85,1.49a1.2,1.2,0,0,1-.92,1.26,1.57,1.57,0,0,0-1.06,1.89,4.66,4.66,0,0,1,0,1.58,3,3,0,0,0-1.18,3.19,1.57,1.57,0,0,0,2.16,1,1.65,1.65,0,0,0,1.35.89,8.44,8.44,0,0,0,1.73,2.07.22.22,0,0,1,0,.08,1.36,1.36,0,0,0-1.13-.49l-2.56,0a1.65,1.65,0,0,0-1.76-1.81,2.54,2.54,0,0,0-3.06,1,10.5,10.5,0,0,0-3.78,3.48c-1.09,1.65,1.57,3.19,2.65,1.55a6.82,6.82,0,0,1,1.36-1.51c.61.58,1.8.66,3.76-1l1.54-.06c.58.5.18,1.1.38,1.71a1.55,1.55,0,0,0,1.88,1.07l.72-.24a1,1,0,0,1,0,.17c-1.6,1.12-3.22,2.23-4.84,3.33a1.24,1.24,0,0,0-.68.18l-.51.3a36,36,0,0,0-4.77,1.57c.64-1.27-.54-3-2-2.12l-5.23,3.23a14.18,14.18,0,0,1-2.18,2.7,10.15,10.15,0,0,1-4,2.31,1.53,1.53,0,0,0,1.68-.12h.34a1.54,1.54,0,0,0,1.78.2l2.56-1.58a1.86,1.86,0,0,0,.53,1.47q-10.16,6.3-20.71,12-10.71,5.74-21.79,10.78A10.52,10.52,0,0,0,77,154.39c-.12-.94-.82-1.74-2.35-1.7l-.07-.21s0-.07-.06-.21a5.26,5.26,0,0,0,1.14-.93,8.22,8.22,0,0,1-1.88-2c-1.11-1.66-2.27-3.28-3.43-4.9l-.18,0c-1.23-4.52-7.2-7.65-11.09-3.87a6.19,6.19,0,0,0-1.77,5.52A19.12,19.12,0,0,1,54.91,150,7.45,7.45,0,0,0,50,151.19a11.48,11.48,0,0,0-1.82,1.13,2.57,2.57,0,0,0-.85,3.19,1.85,1.85,0,0,0,1.07,1.62A13.6,13.6,0,0,0,51,158a6.23,6.23,0,0,1-1.33,3.8,9.37,9.37,0,0,0-9,4.35,2.34,2.34,0,0,0,.36,2.79l.09.07a12,12,0,0,0-4.5,3.24,5.57,5.57,0,0,0-1,1.17,5.28,5.28,0,0,0-.67,1.43,1.14,1.14,0,0,0-.1.19,2.92,2.92,0,0,0-.28,1.29c-6.51,1.87-13,3.73-19.56,5.48-4.87,1.31-9.79,2.64-14.74,3.84H.14V240c0,.88-.08,1.76-.14,2.64l.14,0V1268H2029.67V185.63ZM1528,100.47a20.33,20.33,0,0,1-2.17,4.29,2.64,2.64,0,0,0-.4,0,5.21,5.21,0,0,0-.57.09.71.71,0,0,0,.08-.15l1.44-3.56c.37-.77.77-1.52,1.21-2.26h0l.48.4C1528.07,99.67,1528,100.07,1528,100.47ZM124.44,159.22c1.32-.53,2.62-1.08,3.93-1.64a2.2,2.2,0,0,0,1.54.68,36.85,36.85,0,0,0,4.82-.07l-.34.48L134,159c-2.15.14-4.29.29-6.44.46a6.11,6.11,0,0,0-1.77-.26Zm20.84-17.61a.75.75,0,0,0,0-.26,3.19,3.19,0,0,0,.56.54.08.08,0,0,0,0,0,1.39,1.39,0,0,0-.4-.21Zm4.38,10.26a1.61,1.61,0,0,0,.9.91.61.61,0,0,0-.05.12,6.78,6.78,0,0,1-.84-.66A1.54,1.54,0,0,0,149.66,151.87Zm.09,4.16c0,.28-.06.55-.08.82a1,1,0,0,0,0,.39c-.06.17-.12.35-.19.53a6.42,6.42,0,0,0-.56.34,2,2,0,0,0-.44.12h-.16a1.45,1.45,0,0,0,0-.3,17.12,17.12,0,0,1,.34-2.6C149.06,155.58,149.4,155.81,149.75,156Zm19.81-16.47a9.5,9.5,0,0,0,4.88.89,2.58,2.58,0,0,0,.92,1.07,5.58,5.58,0,0,0,.59.31,12.54,12.54,0,0,0-1.45,1.94,1.43,1.43,0,0,0,.14,1.7c0,.09-.1.18-.14.27a31.6,31.6,0,0,0-4.58,1.37,3.33,3.33,0,0,0-2.78,0l-.07-.08.09-.08a5.55,5.55,0,0,0,1.05-6.54c-.75-1.5-2.69-.57-2.85.78a2.76,2.76,0,0,1-1.14,1.9,5.68,5.68,0,0,0-.66-4.08l5.24-3.11,11.13-6.65a3.71,3.71,0,0,0,.72,1,4.6,4.6,0,0,0,.52.38,2.26,2.26,0,0,0,.92.52,5.77,5.77,0,0,0,2.1.21,5,5,0,0,0,1.67,1.79l.09.28c0,.1-.07.2-.11.31a7.44,7.44,0,0,1-.86,1.45,6.27,6.27,0,0,0-2.95-.59,1.6,1.6,0,0,0-2.16-1.34c-3.45-2-8,1.14-10.62,3.88A1.55,1.55,0,0,0,169.56,139.56ZM164.1,157c-1.51.08-3,.17-4.51.28a12,12,0,0,0-1.57-3.34,5.23,5.23,0,0,0,1.67.45,6.52,6.52,0,0,0,1,0,1.61,1.61,0,0,0,.72,1.29A16.14,16.14,0,0,0,164.1,157Zm28.74-1c.06-.12.13-.25.18-.37a6.88,6.88,0,0,0,2.39-1.14,1.66,1.66,0,0,0,1,1.12l.33.13a5.09,5.09,0,0,0,.36.88,5.16,5.16,0,0,0-.39.78,1.3,1.3,0,0,0-.06.44C195.39,157.22,194.13,156.51,192.84,155.94Zm67.6-71.11c-3-.92-6.06-1.88-9.06-2.89q4.62-3.61,9.12-7.39Q260.46,79.7,260.44,84.83Zm.07,23.69q-8.1-4.63-16.41-8.94l16.07-8.72a1.2,1.2,0,0,0,.25-.16Q260.42,99.61,260.51,108.52Zm-.07-23.16c0,1,0,2.08,0,3.13a1.44,1.44,0,0,0-1.79-.27L240.8,97.89c-2.17-1.1-4.36-2.17-6.55-3.24q3-2.09,5.91-4.23,5.44-4,10.75-8.11Q255.65,83.92,260.44,85.36Zm-29,11.3c2,1,4.09,2,6.12,3l-14.27,7.75-.06-5.16Q227.32,99.49,231.4,96.66Zm-8.22,5c0-3-.07-5.92-.1-8.88,2.61,1.19,5.2,2.41,7.79,3.65Q227,99.05,223.18,101.64Zm20.7-14.59q-5,3.75-10.15,7.34c-3.54-1.71-7.11-3.39-10.7-5q-.12-9.12-.26-18.25a289.72,289.72,0,0,0,27.57,11Q247.13,84.62,243.88,87.05ZM451,136.45a7,7,0,0,1,2.21.14,4.45,4.45,0,0,1-1,2.56.24.24,0,0,0-.37-.21,9.48,9.48,0,0,1-1.84,1,5.25,5.25,0,0,0-1,.12l-.08-.32C450.89,140.24,452,137.88,451,136.45Zm-.29,4.42a5.31,5.31,0,0,1-.86.43,1.72,1.72,0,0,0,.07-.21A4.42,4.42,0,0,0,450.71,140.87Zm1123.81-5.7.55.32h-.71C1574.41,135.38,1574.47,135.28,1574.52,135.17Zm-1.15-7a2.76,2.76,0,0,0,.3.29l-.52,0C1573.22,128.37,1573.29,128.26,1573.37,128.16Zm-16,7.28h0a2.07,2.07,0,0,0,1.2.95,14.34,14.34,0,0,0,5.49.78,2,2,0,0,0,2.8.91l.93-.42c-3.3,3.28-8,5.29-12.45,6.85a2.13,2.13,0,0,0-.52-.88,65.39,65.39,0,0,1-6.2-7.73A39.79,39.79,0,0,0,1557.41,135.44ZM451.52,106.89a7.7,7.7,0,0,0,.09-2.24c3.47.3,6.94.59,10.41.85q30.17,2.28,60.43,2.42c-1.44,1.14-2.9,2.28-4.38,3.39-2.65,0-5.32,0-8,0-19.81-.13-39.63-1-59.42-2A9.25,9.25,0,0,0,451.52,106.89Zm-6.87,7.32c.56-.29,1.22-.43,1.79-.72a9.48,9.48,0,0,0,4-3.7c19.77,1.06,39.55,1.88,59.33,2q3.82,0,7.65,0c-1.46,1.07-2.94,2.1-4.47,3.06l-15.81,1.77c-4.65.52-8.72.86-12.82,3.25-4.65,2.72-9.27,5.51-13.9,8.27a2.07,2.07,0,0,0,.36,3.68,37.8,37.8,0,0,0,.62,4.89c.31,2.89.66,5.76,1,8.63-7.19.68-14.42.78-21.55,1.41l-1.27-4.84a5.76,5.76,0,0,0,2-1.08h.31l.1-.17c.09-.13.19-.26.29-.38l-.08,0a6,6,0,0,0,1.41-2.55,4.9,4.9,0,0,0,.13-1c2,.47,4.05,1.32,5.79,1.2,2.57-.19,4.68-1.44,5.48-4a2.05,2.05,0,0,0-.94-2.3c.26.16-.32-1.74-.39-1.9a7,7,0,0,0-1.12-1.8,7.18,7.18,0,0,0-4.26-2.41,2.07,2.07,0,0,0-2.3.94c-.56,1.28-1.12,2.57-1.67,3.85a9,9,0,0,1-1.88-.4c1.72-3,2.54-6.59,1.29-9.94a8.73,8.73,0,0,0-8.43-5.84,2.09,2.09,0,0,0-1.79,1.11h0A1.2,1.2,0,0,1,444.65,114.21ZM437,133.92a28.83,28.83,0,0,0,4.22,2.84.21.21,0,0,0,.09.32l.9.4.26.23a7.14,7.14,0,0,1-4.71-1.15,6.67,6.67,0,0,1-1.81-1.82.61.61,0,0,0-.05-.12c-.07-.18-.13-.37-.19-.55A5.85,5.85,0,0,1,437,133.92Zm-173.2-75q4.88.38,9.73.81a18.31,18.31,0,0,1-.05,2.67q-4.83,4.55-9.87,8.87Q263.66,65.08,263.78,58.91Zm-.19,13c3-2.61,6-5.27,9-8,.28-.26.55-.53.83-.78-.06.45-.13.9-.22,1.36-.4,1.92,2.55,2.75,2.95.81l0-.17c17.47,9.55,36.42,16,55.7,20.84,20.83,5.2,42.09,8.78,63.31,11.95q19.61,2.92,39.31,5a16.48,16.48,0,0,0-2.76,5.23h-.07c-25.23-1.48-50.47-3.2-75.62-5.75-23.85-2.42-47.66-5.73-71-11.1q-10.82-2.49-21.48-5.61Q263.51,78.85,263.59,71.94Zm-.1,14.34q7.06,2.09,14.22,3.86c23.73,5.93,48,9.58,72.29,12.2,25.9,2.79,51.91,4.59,77.91,6.16l3.65.22a9.82,9.82,0,0,0-.28,3.75,9.12,9.12,0,0,0,1.58,4c.43.63,1,1.26,1.49,1.92a5.89,5.89,0,0,0-6.4.92c-2,2-1.07,5-.08,7.57a19.93,19.93,0,0,1-2.57.13,2.05,2.05,0,0,0-2,2.58,12.81,12.81,0,0,0,8.47,7.95c1.15.33,2.76-.65,2.59-2a1.13,1.13,0,0,1,.63-1.22,6.84,6.84,0,0,0,1.69,3.08,8,8,0,0,0,5.64,2.36,11.75,11.75,0,0,0,1.68-.08,2.39,2.39,0,0,0,.43.67,11.32,11.32,0,0,1,1.31,4.78c-.22,0-.44-.08-.66-.1-17.28-2.19-34.7-4.39-52.15-3.39-16.9,1-33.21,5.31-49,11.21A298.77,298.77,0,0,1,302.56,162q-13.62-.45-27.22-1.07l-10.44-.47Q263.37,123.37,263.49,86.28Zm-1.66,74c-12.67-.59-25.35-1.17-38-1.65q-.28-24-.52-48a1.55,1.55,0,0,0,.72-.19l16.84-9.14q9.94,5.1,19.61,10.68l.1,0Q260.85,136.18,261.83,160.28ZM240.75,57.52v5.81a1.54,1.54,0,0,0,3.07,0V57.66q8.44.41,16.9,1-.15,7.6-.21,15.21-4.78,4-9.71,7.85a280.56,280.56,0,0,1-28-11.15q-.1-6.84-.22-13.66Q231.65,57.11,240.75,57.52Zm-20,101-1.9-.07c-.11-1-1.14-1.95-2.2-1.19a11.47,11.47,0,0,1-1.86,1.05l-1.2,0a5.57,5.57,0,0,0-3.23-2.16,3.92,3.92,0,0,0,.13-.49,1.55,1.55,0,0,0-1.06-1.88c-1.07-.26-2.14-.46-3.21-.64h0a3.43,3.43,0,0,1-1-.11c-1.24.09-2.51.11-3.78.11h-.19a18.55,18.55,0,0,1-2.78.45,22.07,22.07,0,0,1-2.92.8,6.73,6.73,0,0,0,.81-.79,5,5,0,0,1-3.8-1.8,2.91,2.91,0,0,1-.58-2.42,9.43,9.43,0,0,0,1.59.05,3,3,0,0,0,1.16.36c2.38.2,5-.55,5.67-3.15a2.36,2.36,0,0,0,0-1,24.52,24.52,0,0,1-2.77-1.94,4,4,0,0,1-.9-.26,9.21,9.21,0,0,0-7.53-4.09,10.67,10.67,0,0,1,.13-1.12,6.36,6.36,0,0,0,1.42.33,5.82,5.82,0,0,0,1.18,0,2.32,2.32,0,0,0,1,.24,1.92,1.92,0,0,0,.59-.09,2.44,2.44,0,0,0,.67-.32,6.15,6.15,0,0,1-2.77-.82,2.36,2.36,0,0,1-.89-3.08c0-.09,0-.19,0-.29a3,3,0,0,1,.42-1.06,2.71,2.71,0,0,1,0-1,4.41,4.41,0,0,1,.47-1.2c-.59-.85-1.19-1.7-1.84-2.52a3.32,3.32,0,0,1-.47-.77l-.69-.21a2.65,2.65,0,0,0-.3-.9,3.07,3.07,0,0,0-1.46-1.29c6.13-3.69,12.25-7.43,18.31-11.23q7.59-4.76,15.07-9.68Q220.45,131.39,220.74,158.51ZM209.57,56.79h0c3.29,0,6.58,0,9.87.09l.21,12.25-2-.94c-2.54-1.24-5.05-2.53-7.54-3.85a.19.19,0,0,0-.07-.14l-1-.91a1.77,1.77,0,0,0,0-.2,1.35,1.35,0,0,0-.67-.93A14.14,14.14,0,0,1,209.57,56.79Zm-55.25,57.34-.23.21a7.94,7.94,0,0,1,1-.2h.08a14.81,14.81,0,0,1,2-.11,1.51,1.51,0,0,0,1.28-1.36c-.61.06-1.21.08-1.82.09l5.14-4.63a.22.22,0,0,0,.06-.26c7-5.64,13.91-11.53,20.41-17.79A161.82,161.82,0,0,0,203.82,65c.5-.74,1-1.49,1.47-2.24,0,.51,0,1,.08,1.53a1.57,1.57,0,0,0,1.53,1.53A2,2,0,0,0,209.08,64l.53.47a.22.22,0,0,0,.13.24q4.92,2.61,9.95,5,.27,17,.45,34-5.38,3.57-10.84,7c-7.66,4.86-15.39,9.59-23.16,14.27a6.26,6.26,0,0,0-.73-.14,2.11,2.11,0,0,0-1.69-.81,2.57,2.57,0,0,0-1.85.93,3.65,3.65,0,0,0-1.44.87,3,3,0,0,0-.69,3l-6.26,3.74q-5.1,3-10.21,6.07a4.51,4.51,0,0,0-1.34-1.18,4.57,4.57,0,0,0-1.55-.58,32.45,32.45,0,0,0,5.37-1.84,1.34,1.34,0,0,0,.69-1.65,50.88,50.88,0,0,1-8.22-1.1,2,2,0,0,1-1.65-1.56,48,48,0,0,0-8.72.14,1.68,1.68,0,0,0-.55.17v-1.27a2.06,2.06,0,0,0-1.26-2,24.82,24.82,0,0,0,5.45-1.61,4.79,4.79,0,0,0,5,1.06,1.62,1.62,0,0,0,.61-2.63l1.4.12,4.81.45c2,.18,1.95-2.88,0-3.06l-5.83-.54h.4a1.54,1.54,0,0,0,0-3.07H147.9q3-2.15,5.86-4.35Zm-9.17,2h1.33a1.63,1.63,0,0,0,1.51-1.4,31.51,31.51,0,0,1,4.66-.67l.33,0c-2,1.49-3.95,3-5.94,4.4h-2C145,117.7,145.08,116.91,145.15,116.12Zm-1.63,23.26a1.45,1.45,0,0,0,.91-1.37,5.67,5.67,0,0,1,.11-1.12,2.71,2.71,0,0,0,.65-.4,2.34,2.34,0,0,0,1.54-.69l1.62.17a1.34,1.34,0,0,0,1.08,1.47l1.89.34a1.66,1.66,0,0,0,.9-.09,28.44,28.44,0,0,0,4.62-.19l-.31.19h-.09a1.54,1.54,0,0,0-1.4,1.18l-.67-.13-2-.39-3.39-.67a1.78,1.78,0,0,0-2.09-.36l-.28.11a2.45,2.45,0,0,0-1.68,2.22,2.93,2.93,0,0,0,0,.51,1.69,1.69,0,0,0-1-.45l-.49,0A1.64,1.64,0,0,0,143.52,139.38ZM142,122.7v.16a1.16,1.16,0,0,0-.47.21,3.59,3.59,0,0,0-1.69,2.2l-.37.53a1.55,1.55,0,0,0,1.33,2.31c.62,0,1.24,0,1.85,0l.18.92-.06.17a3.59,3.59,0,0,0-2.74,2.61,1.5,1.5,0,0,0-.2.23,2.32,2.32,0,0,0-.31.58,2.37,2.37,0,0,0-.19-.34,4.52,4.52,0,0,1-.64-4.94,1.36,1.36,0,0,0-.86-1.77C139.21,124.62,140.6,123.67,142,122.7ZM100.3,148q12.66-6.59,24.78-14.13a1.35,1.35,0,0,0,1.17-.23c.27-.19.55-.37.83-.55a1.56,1.56,0,0,0,2.29,1.59,62.52,62.52,0,0,0,5.84-4.24,7.35,7.35,0,0,0,1.08,2.85l-.64.63a1.62,1.62,0,0,0-.45,1.09,1.57,1.57,0,0,0,.45,1.08,1.55,1.55,0,0,0,1.09.45,1.6,1.6,0,0,0,1.08-.45l.22-.22h.07c.25,0,.49,0,.73,0a4.38,4.38,0,0,0-1.56,3.15,1.53,1.53,0,0,0,1.13,1.47c.3.06.59.1.87.13a3.21,3.21,0,0,0,.2.84,1.93,1.93,0,0,0,.3.53c-1.22.29-1.17,1.89-.37,2.62a24.56,24.56,0,0,0-3.31,1,1.58,1.58,0,0,0-.29-.74c.4-.13.79-.24,1.2-.34,1.92-.45,1.1-3.4-.82-3a17.63,17.63,0,0,0-9.27,5.51,52.79,52.79,0,0,0-5.19,2.9,1.54,1.54,0,0,0,.78,2.85c3.67,0,7-1.26,10.33-2.7a32.39,32.39,0,0,1,7.69-2.69c0,.22.07.44.09.65l-.22.16c-3.2,2.46-6.2,5.57-10.49,5.48a2.23,2.23,0,0,0-1.87,3.48c-1.65.71-3.3,1.41-5,2.07l-13.68,0a15.09,15.09,0,0,0-2.79-4.67,1.9,1.9,0,0,0-1.76-.68,8.74,8.74,0,0,0-2.49-1.66A4,4,0,0,0,96.86,154c-.94,1.95-.71,4.66-.55,7-3.24.49-6.49,1.06-9.71,1.7a12.62,12.62,0,0,0-4.06-6.13Q91.54,152.55,100.3,148Z"/></g></g></svg>