<svg xmlns="http://www.w3.org/2000/svg" viewBox="0 0 2029.52 291.62"><defs><style>.cls-1{fill:#d0ccc0;}</style></defs><g id="Layer_2" data-name="Layer 2"><g id="Layer_2-2" data-name="Layer 2"><path class="cls-1" d="M2027.84,146.9a2.06,2.06,0,0,0-2.73-2,4,4,0,0,1-5-2.17c-1.23-2.61-5.08-.55-4.1,2l-1.48-.12c.37-2.68-3.78-3.84-4.45-1.06.07-.28-2.57-2-3.21-2.4a5.21,5.21,0,0,0-4.53-.43,6.37,6.37,0,0,0-2.7,2.34c-.32.44-1.33,2.63-1.76,2.66a2.6,2.6,0,0,0-.92.26,2.27,2.27,0,0,0-2.15.61c0-.2,0-.36.07-.44l.84-3.77a9,9,0,0,0,1.82-.8,2.32,2.32,0,0,0-.76-4.27,4.92,4.92,0,0,0,.45-.24,2.34,2.34,0,0,0,.9-3.12,2.48,2.48,0,0,0-2-1.18,2.15,2.15,0,0,0,.34-1.15,2.37,2.37,0,0,0-.63-1.64l-.67-.69a2.34,2.34,0,0,0-1.61-.71,1.76,1.76,0,0,0-.88.17,1.89,1.89,0,0,0-2.52-1.1,9.65,9.65,0,0,0-4.12,2.69,6.88,6.88,0,0,0-7.42.75c-2.1,1.5-4.15,3.08-6.22,4.62-1,.75-4.93,4.37-6.28,2.92-1.07-1.16-3.56-.82-3.86.93-.25,1.45-.54,2.9-.86,4.34a5.69,5.69,0,0,0-5.1,4.71c-.76,3.78,2.38,6.6,5.73,7.58a10.94,10.94,0,0,0-1.83,3,22.72,22.72,0,0,0-1.07,6.42,2.14,2.14,0,0,0-.39.16,3.52,3.52,0,0,0-1.43,1.24c-.93.13-1.85.28-2.78.42a73.07,73.07,0,0,0-22.56.92c-3.54.71-9.72,1.31-11.13,5.31-.8,2.27.34,4.3,1.63,6.07l0,.05q-11.19,1.09-22.35,2.34c-40.94,4.54-81.8,9.88-122.68,14.93l-18,2.22c4.58-7.74,9.4-16.47,8.86-25.77-.46-7.89-5.61-17.05-14.87-14.76-4,1-7.27,3.93-10.07,6.82-3.48,3.6-6.9,7.25-10.34,10.88q-10.62,11.15-21.23,22.31a7.71,7.71,0,0,1-.57.95,2.47,2.47,0,0,1-.68,1.27c-1.47,1.46-3.06,2.79-4.54,4.24l-.19.16c-3.75,4.18-14.85,3.29-18.8,3.09a145.54,145.54,0,0,1-25.3-3.19l-.13,0-2.25-.1c-1.76-20.2-3.66-40.56-7.58-60.46a162.32,162.32,0,0,1,13.55,47c.26,2,2.81,3.25,4.65,2.78,2.19-.56,3-2.58,2.78-4.65a167.39,167.39,0,0,0-27.51-72.23,4.48,4.48,0,0,0-.55-.66c-1.43-4.44-3-8.84-4.77-13.19-2.58-6.39-6.43-13.42-13.34-15.85-7.2-2.52-14.78,1.77-18.19,8.19-4.14,7.78-2.77,17.11-1.74,25.47,0,.34.09.67.13,1a42.73,42.73,0,0,0-1.34,8.87c-3.23,8.71-6.49,17.44-10.29,25.87-3.9,8.67-9.53,18.21-19.56,20.3-4.82,1-3,8.44,1.87,7.44,11.62-2.43,18.93-12.5,23.72-22.65,2.54-5.39,4.82-10.91,7-16.5l3.22,4.65c2.78,16.79,4.43,34.33-.75,50.66h-10.5c-7.94-1-15.87-2.08-23.82-3-21.8.74-43.62,1.35-65.43.88a16.81,16.81,0,0,1-6.56-1.48c-5.84-1.08-11.65-2.4-17.6-2.7a4.06,4.06,0,0,1-1.2-.23c-31.57-1.78-63.18-2.09-94.76.13-5.48-.23-11-.42-16.45-.54L1223.84,188l-8.95-.37-1.39-.22h0a88.38,88.38,0,0,0-20-.73,92.82,92.82,0,0,0-14.25.13,32.33,32.33,0,0,0-5.78,1.15,5.81,5.81,0,0,0-2.94-.82l-24.31-.49a10.1,10.1,0,0,0-5.27-1.29,5,5,0,0,0-.49-1.16c-1.42-2.56-5.36-4.11-8-2.29l-3.29,2.29a6.68,6.68,0,0,0-.87-.37,6,6,0,0,0-3.56-5,7,7,0,0,0-.63-3.3l-2.62-5.61c-1.34-2.88-5.35-3.76-8-2.29a6,6,0,0,0-2.28,8,.37.37,0,0,0,0,.11l-4.67,2.4-.53-.25-6-2.59a6.26,6.26,0,0,0-.43-4.67,6.76,6.76,0,0,0-.55-.81c-.5-4.25-2.66-7.86-6.81-9.46q-3.3-14.55-5.94-29.25c-1-5.71-8.58-5.42-10.9-1.16a70.74,70.74,0,0,0-4-8.86c-2.84-5.25-10.72-3-11,2.71,0,.36,0,.72-.07,1.08-3.76-1.68-7.84-2-11.92.65a20.72,20.72,0,0,0-4.81,4.4,25,25,0,0,0-5.59,3.13c-2,1.51-4,3.54-3.12,6.24a18.19,18.19,0,0,0-2.62-3.57c-1.52-1.59-3.72,0-3.46,1.91l.06.53c-3-.48-6.12,1.54-6.7,5.5a130.19,130.19,0,0,0,.29,38.67,1.81,1.81,0,0,0-2.48-.46c-1,.7-2.1,1.53-3.3,2.27l-.21,0a11.48,11.48,0,0,0-.9-6c-1.39-3.42-4.34-8.42-8.34-9-3-.45-5.17,1.57-7,3.88a5.16,5.16,0,0,0-4.47,2.7l-2.8,5.76a12.66,12.66,0,0,1-4.78,3.63,5.57,5.57,0,0,0-2.82,6.33c-1-.25-2-.46-3-.63a3.82,3.82,0,0,0-2.14-1.94,10.84,10.84,0,0,1-1.16-.52,6.26,6.26,0,0,0-2.89-1.82c-1.86-1.39-3.6-3-5.17-4.45-.58-.53-1.12-1.07-1.65-1.61a2.57,2.57,0,0,0-.2-.46,19,19,0,0,1-2.19-14.65,2.07,2.07,0,0,0-3-2.38,7.44,7.44,0,0,1-1.15.53,6.29,6.29,0,0,0-4.39-1,2.13,2.13,0,0,0-3.57.11,9.6,9.6,0,0,1-2.34-2.17,1.75,1.75,0,0,0-1.16-.71,2,2,0,0,0-.57-2.34l0-.19c1.54,2,5.05,3.42,6.9,3.91,2.54.68,3.72-3.23,1.18-3.91a14.53,14.53,0,0,1-2.71-.95l-.46-.22a2.25,2.25,0,0,0,.19-.38c.76-2-1-3.48-2.75-3.56a1.56,1.56,0,0,0-.52-.43l-.52-.24,3.18-1.72a2,2,0,0,0-.08-3.58,1.16,1.16,0,0,0,.16-.21,16.62,16.62,0,0,1,8-6.31,2.08,2.08,0,0,0,1.29-3l-2-3.91c-1.21-2.34-4.79-.36-3.57,2,.34.65.68,1.3,1,1.95-.42.22-.84.44-1.25.68a6.06,6.06,0,0,0-.11-1.44,7,7,0,0,0-2.61-4.12c1.4-1.24.38-4.12-1.82-3.52a5.45,5.45,0,0,1-5.44-1.42c0-.45-.06-.91-.1-1.36l.06-.11c.06-.16.11-.32.17-.49a3.79,3.79,0,0,0,3.54,2.67,3.89,3.89,0,0,0,3.92-3.74l.06-2.72a3.86,3.86,0,0,0-3.74-3.92,4.18,4.18,0,0,0-2.3.75,21.7,21.7,0,0,0,0-2.55c-.06-1.24.05-3.11-.84-4.08s-2.45-1.35-3.5-2.14A16.73,16.73,0,0,1,940,93.1c.32-2.08-2.24-2.53-3.47-1.31a1.72,1.72,0,0,0-1.12-.21,5.89,5.89,0,0,0-5.19,4.09,11.48,11.48,0,0,0-.47,5.21c-1.17.37-2.08,1.5-1.15,2.77L930,105.6a3.52,3.52,0,0,1-1.94,2.73,15.11,15.11,0,0,0-3.36,2,4.73,4.73,0,0,0-.49,6.61,2,2,0,0,0,.82.57q-1.35,2.17-2.72,4.34a7.47,7.47,0,0,0-2.7-2.74c-2.27-1.34-4.41,2.14-2.14,3.48a3.22,3.22,0,0,1,1.6,3.64,21.92,21.92,0,0,0-8.06,5.66,2.1,2.1,0,0,0-.37,2.47l.86,1.18a2.12,2.12,0,0,0-.83,1.09,2.08,2.08,0,0,0,1.37,2.55l.93.35a4.46,4.46,0,0,0,.61.62,6.89,6.89,0,0,0,.84.61,13.07,13.07,0,0,0,1.21,4.82c.68,1.5,2.49,1.21,3.38.18a5.27,5.27,0,0,1-.93,3.92c-1.56,2.13,1.93,4.25,3.48,2.14a8.31,8.31,0,0,0,1.47-3.44c.28.8.6,1.58.94,2.34q-.6,3-1.47,6L921.39,160a1.81,1.81,0,0,0,.79,2.21c-.09.27-.19.55-.29.82a2.15,2.15,0,0,0-1.77-1.52,26.11,26.11,0,0,0-11.62.91,41.37,41.37,0,0,0,2.32-8.92,1.63,1.63,0,0,0,.42.31l6.6,3.22c2.35,1.14,4.51-2.33,2.14-3.48l-4.76-2.33a6.82,6.82,0,0,0-.79-5.49c-2.16-3.66-6.39-3.95-9.81-5.79a9.21,9.21,0,0,1-1.52-1q-2-6.21-4.15-12.38c0-1.92.14-3.8.28-5.46.21-2.63-3.88-2.71-4.09-.1,0,.11,0,.23,0,.34a1.74,1.74,0,0,0-1.17.75,1.92,1.92,0,0,0-1.46-.45c.84-1.55,1.83-3.26,3.51-3.7,2.54-.65,1.56-4.62-1-4-3.71,1-5.34,4.48-7.13,7.53L885,126.36l-.26.07a2.27,2.27,0,0,0-3.42.1q-3.79,4.77-7.57,9.56a1.59,1.59,0,0,0,0,2.11,5.73,5.73,0,0,0-.3.94,5,5,0,0,0,1.31,4.45c.49.51,4.8,3,4.35,3.33-2.11,1.58.74,4.52,2.82,3a4.07,4.07,0,0,0,.66-.65,4.9,4.9,0,0,0,2.86.81h.27c0,.17,0,.34,0,.5a1.61,1.61,0,0,0-1.5,1.42c-.06.32-.11.65-.17,1a5.25,5.25,0,0,1-3.16.4,148.91,148.91,0,0,1-14.94.24,2.08,2.08,0,0,0-2.09,2,6,6,0,0,0,6.71,6.13l0,.08a5.93,5.93,0,0,0,2.24,7.39,4.41,4.41,0,0,1,1.85,4.45,5.39,5.39,0,0,0,1.68,4.19,25,25,0,0,1-11.81,5.09,1.75,1.75,0,0,0-1.39,2.45,3.25,3.25,0,0,0,0,.54q-6.74.88-13.42,2.2a5,5,0,0,0-.58-.52c-2.19-1.6-4.62.52-6.61,1.56l-.1.07a15.53,15.53,0,0,0-15.89,2.88,2,2,0,0,0-.54,2.06l-1.75.56a78.38,78.38,0,0,0-3.06-8.48,3.33,3.33,0,0,0-4.51-1.3l-.16.11a3.62,3.62,0,0,0-2-.9c-5.19-.57-10.37-.85-15.56-.92a4.4,4.4,0,0,0-.62,0,3,3,0,0,0-3.9-2.57l-.28.08a5.46,5.46,0,0,0-2.07-3.66c-4-3.32-10.53,1.23-14.12,3.36a3.34,3.34,0,0,0-.51.37,17.47,17.47,0,0,0-7.56.84,4,4,0,0,0-2.55,3.3c-5,.5-10,1.06-15,1.62A2.61,2.61,0,0,0,751,187h-1.68a2.73,2.73,0,0,0-2.11-2,3.23,3.23,0,0,0-3.11-3.68c-1.56-.07-3.11-1.83-4.48-2.53a6.58,6.58,0,0,0-6.17-.24,7.35,7.35,0,0,0-2.74,2.91,3.54,3.54,0,0,0-5.69-2.11,6.24,6.24,0,0,1-1.21.81,3.32,3.32,0,0,0-5.52-2.87A55.13,55.13,0,0,1,708,183.69l-.48.22-3.29.16.48-.63a2.84,2.84,0,0,0-.56-4,2.28,2.28,0,0,0,.38-.92c.47-2.94-1.8-5.9-5-4.63s-2.94,6.2-3.34,9a2.47,2.47,0,0,0,0,.86l-.64.85-.41,0c.72-2.92-4-5.25-6.25-2.29a31.27,31.27,0,0,1-5.29,5.37,4,4,0,0,0-1.69-.51l.16-.05a3.32,3.32,0,0,0,.09-6.35,3,3,0,0,0-.29-2.42,8.86,8.86,0,0,0-3-3c1.16-1.78.73-4.46-1.56-5,1.75-2.64-1.09-6.88-4.23-4.81a5.92,5.92,0,0,0-2.46,3.36,3.39,3.39,0,0,0-.76-1.08l-4.08-4c-1.37-1.33-4.28-1.48-5.22.56a21.28,21.28,0,0,1-2.76,4.81,4.54,4.54,0,0,1-1.67,1.35c-2.47-.38-4.95-.7-7.44-.93a2.72,2.72,0,0,0-1.42.27,3.42,3.42,0,0,0-4-.76c-2.6,1.09-6.36-1.21-6.59-4a3.37,3.37,0,0,0-1.66-2.7q6.53-1.69,12.95-3.89c4-1.36,2.56-7.59-1.62-6.44l-1.67.46c.63-.54,1.25-1.09,1.85-1.66a7.89,7.89,0,0,0,7.09-2.21,3.34,3.34,0,0,0-.83-5.36,3.23,3.23,0,0,0-.4-3.94,5.67,5.67,0,0,0-1.37-1.09,5.24,5.24,0,0,0,.89-1.09c1.32-2.14.72-4.45-.23-6.57-1.39-3.07-2.92-6.08-4.37-9.12-1.35-2.8-4.79-1.85-5.85.36a3.1,3.1,0,0,0-3.56,1.4l-4.23,6.72a3.86,3.86,0,0,0-.43,1,3.59,3.59,0,0,0,0,3.18,10.61,10.61,0,0,0,4.62,4.83c-1,1.31-2,2.61-3.05,3.91a7.25,7.25,0,0,1-2.72-2.25c-1.3-1.78-4.36-2.56-5.66-.25a3.36,3.36,0,0,0-2.83,4.1,4.91,4.91,0,0,1-1.29,4.66c-.72.23-1.43.47-2.15.72l.25-.33a3.33,3.33,0,0,0-3.63-5.56,11,11,0,0,0-5.71,6.71,3.39,3.39,0,0,0,.41,2.77l-1.21.59a2.94,2.94,0,0,0-1.81-1.3l.55-.52a3.59,3.59,0,0,0,.76-3.68,3.62,3.62,0,0,0-.1-1.88,1.71,1.71,0,0,0,.13-.23l.92-1.14,0,0a3.31,3.31,0,0,0,3-.85c1.63-1.84,1.77-4.47-.28-6.12a3.86,3.86,0,0,0-2.41-.9,15.7,15.7,0,0,1-3.82-6.13,3.33,3.33,0,0,0-6.49.41,3.33,3.33,0,0,1-.34.33c-.27.21-.59.38-.87.58a12.9,12.9,0,0,0-2.11,1.72,7.7,7.7,0,0,0-1.93,5.88,9.25,9.25,0,0,0,.68,2.83,29,29,0,0,0-20.11,5.35c-.47.34-.92.7-1.36,1.06-1.63.55-3.25,1.15-4.86,1.82l-.1,0c-1.87-1.32-5.33-.15-5.42,2.64-.12,3.44-.37,6.86-.73,10.27a10.92,10.92,0,0,0-.92.73l-6.62-1a2.75,2.75,0,0,0-2.42,1,3.51,3.51,0,0,0-1.45-1l-7.07-2.56c-1-.36-2.08-.66-3.06-1.11l-.38-.17a3.26,3.26,0,0,0,1.23-2.4q.54-.15,1.08-.33a3.35,3.35,0,0,0,.14-6.4l-.1,0a2.66,2.66,0,0,0-2.33-2.62l-.62-.12,1.36-.6c3.31-1.47,1.38-5.87-1.54-6.22a31.29,31.29,0,0,1-6.74-1.64c-.32-1.89-2-3.29-4.16-4.34l1-.12a3.22,3.22,0,0,0,2.48-2.86c1,.29,1.94.73,2.68,1l4.69,1.48,9.38,2.95c4.08,1.28,6-5.08,1.91-6.36L540.89,128c-3.54-1.11-7.21-2.86-11-2.15a3,3,0,0,0-1.67.87,3.5,3.5,0,0,0-2,.64l-.8-.09a3.29,3.29,0,0,0-1.69-1.33l-2.83-1a28.94,28.94,0,0,1,4.27.73c4.15.91,6-5,1.91-6.36a17.19,17.19,0,0,1-5.26-2.92,13.06,13.06,0,0,1,5.81-.24,3.41,3.41,0,0,0,4-4.4,23.42,23.42,0,0,0,13.73-.72c1.68-.67,2.07-3.09,1.3-4.52-.94-1.74-2.86-2-4.52-1.29a12.54,12.54,0,0,1-5.37.74,3.23,3.23,0,0,0-2.59-1.55c-1.76-.15-3.52-.21-5.27-.21-1.22-.41-2.38-.86-3.46-1.27a53.71,53.71,0,0,1-13.28-7.49,24.93,24.93,0,0,1-.36-4.21c0-.41.1-.81.14-1.22a12.37,12.37,0,0,0,2.89-6.74l-.36-1.06a41.11,41.11,0,0,1-1.75-10.65,3.37,3.37,0,0,0-1.36.34c-2.4,1.16-3.14,3.43-2.83,5.93-.56,1.75-1.12,3.51-1.67,5.26a2.27,2.27,0,0,0-.53.62,2.76,2.76,0,0,0-3.44.7,59.07,59.07,0,0,1-14.89,12.19c-3.14,1.8-1.26,7.38,2.42,6.12l7.33-2.49a3.4,3.4,0,0,0,2.72,1,2.69,2.69,0,0,0,.16.29l-11.42,5c-2.64,1.15-2,4.48,0,5.73l-1.09.95a3.37,3.37,0,0,0-.13,4.62l-1.72.62c-4,1.41-2.64,7.42,1.62,6.44.48-.11.95-.24,1.43-.36a3.39,3.39,0,0,0,4,.78,63.52,63.52,0,0,0,7.75-4c.71-.29,1.42-.56,2.14-.83.14.47.28.93.44,1.39a30.35,30.35,0,0,0-7.22,4.94,2.88,2.88,0,0,0-1,2.7l-.3.15L490.88,132l-8.62,3.48c-1.75.7-3.71,1.3-5.55,2.09a9.68,9.68,0,0,0-1.77-.11l-.15,0c-.53-2.17-3.82-3-5.64-1.37l0-.63c-.09-3-.17-5.95-.26-8.92,3.53-.18,7.09-.89,9.56-3.63a3.91,3.91,0,0,0,.94-2.81c4.17-.14,3.93-6-.08-6.63a23.6,23.6,0,0,0-5.2-.27,2.9,2.9,0,0,0-2-.57l-3.25.19-.3,0c-.08-3.85-.16-7.69-.23-11.54.09-.17.18-.34.25-.51l2.68-6.48c1-2.43-1-4.08-3.11-4.07,0-.26,0-.53,0-.8h0A3,3,0,0,0,472.7,88,16.28,16.28,0,0,1,479.43,91c1.86,1.41,4.28,0,4.93-2,.61.07,1.23.1,1.85.11a3.21,3.21,0,0,0,1.81-.49c.21.21.41.42.61.64a2.61,2.61,0,0,0,1.06.71,2.52,2.52,0,0,0,1.27.31,2.46,2.46,0,0,0,1.28-.26,2.42,2.42,0,0,0,1.09-.66l.53-.66a3.25,3.25,0,0,0,.49-1.66l-.1-.89a3.29,3.29,0,0,0-.82-1.48l-.66-.7a2.55,2.55,0,0,0-1-.71,3.07,3.07,0,0,0-2.56-.06,2.73,2.73,0,0,0-.52.23,3,3,0,0,0-2.28-1,12.74,12.74,0,0,1-3.71-.59,5.08,5.08,0,0,0-5.61-.55,2.49,2.49,0,0,0-.93.72,32.42,32.42,0,0,0-4.08-.84c-1.26-.18-2.64-.38-4-.51,0-1.44,0-2.87,0-4.31A2.81,2.81,0,0,0,470.2,76a2.1,2.1,0,0,1,2.88,0,3.07,3.07,0,0,0,2.88.27,1.82,1.82,0,0,0,.33,0,2.47,2.47,0,0,0,1.29-.25,2.63,2.63,0,0,0,1.08-.66l.53-.66a3.19,3.19,0,0,0,.49-1.67l-.09-.88a3.42,3.42,0,0,0-.82-1.49L478.1,70a3.72,3.72,0,0,0-2.32-1,2.48,2.48,0,0,0-1.29.26l-.14,0a8.73,8.73,0,0,0-6.47.43c0-.49,0-1,0-1.45q-.06-8.18-.06-16.36a14.52,14.52,0,0,0,2.31.9,6.47,6.47,0,0,0,3.09-.11,6.31,6.31,0,0,0,.92-.37,15.68,15.68,0,0,0,6.4,1.51,62.56,62.56,0,0,1,6.54.21,3.23,3.23,0,0,0,2.63,1.45l1.58,0a2.77,2.77,0,0,0,.86,0l1.65,0a3.18,3.18,0,0,0,1.35-.28,3.26,3.26,0,0,0,1.37.34l.68,0a2.58,2.58,0,0,0,1.29-.26,2.63,2.63,0,0,0,1.08-.66,3.78,3.78,0,0,0,1-2.33l-.1-.88a3.42,3.42,0,0,0-.82-1.49l-.66-.53a3.28,3.28,0,0,0-1.67-.49l-.68,0a2.46,2.46,0,0,0-1.28.26l-.06,0a3.34,3.34,0,0,0-1.38-.34l-1.29,0a19.45,19.45,0,0,0-8.52-1.66c-2.49-.05-5.7.38-7.73-1.34a3.14,3.14,0,0,0-.36-1,8.86,8.86,0,0,0-8.2-4.51q0-4.92,0-9.85a4.1,4.1,0,0,0-.05-.62c0-.13.08-.26.11-.39a3,3,0,0,0,1.95.7l2-.13a3.56,3.56,0,0,0,2.36-.92,3.5,3.5,0,0,0,1-2,3.36,3.36,0,0,0,4-2.28,3.32,3.32,0,0,0-.31-2.54,2.92,2.92,0,0,0,1-.35l0,0A25,25,0,0,1,477,19c-.77-1-1.48-2-2.14-2.95a2.8,2.8,0,0,0-.39.86l-.14.88a3.51,3.51,0,0,0,.07.72,1.86,1.86,0,0,0-.47.09l-.47.13a14,14,0,0,0-2.71-9.06,3.87,3.87,0,0,0,.37-.53,51.66,51.66,0,0,1-2-5.47c-.34-1.13-.63-2.27-.89-3.42A3.41,3.41,0,0,0,467.13,0c-3.47-.08-4.23,4.29-2.09,6V6l0,1.36a3.34,3.34,0,0,0,.24,1.28A3.31,3.31,0,0,0,465,13a84.85,84.85,0,0,1-12.37,10.1l-.81,1.07a3,3,0,0,0-.85,0c-1.41.89-2.86,1.73-4.33,2.52a18,18,0,0,1-4,1.57,3.3,3.3,0,0,0-.87,4.19,3.36,3.36,0,0,0,4.51,1.29l.57-.37A2.89,2.89,0,0,0,449,33l4.15-2.62a3.66,3.66,0,0,0,1-1A3.33,3.33,0,0,0,457.22,28l3.58-4.77a21.77,21.77,0,0,1-1.58,4.37,4,4,0,0,0,1.36,4.79c-.06.46-.12.92-.17,1.38a2.81,2.81,0,0,0,.81,2.43c0,1.78,0,3.57,0,5.35a8.29,8.29,0,0,0-4.52,2c-1.5,1.2-2.17,2.34-4.2,2a11.67,11.67,0,0,0-6.39.36c-1.4.56-3.55,2.31-4.95,1.75-4-1.6-5.84,4.78-1.91,6.36a7.94,7.94,0,0,0,6.34-.53c2.18-1,3.35-1.83,5.78-1.43a8.84,8.84,0,0,0,6.45-.94c.88-.54,2.14-2.13,3.27-2.76l.11.1q0,10.15.07,20.32a2.81,2.81,0,0,0-2.55,3.09c.05,1,.35,2.92-.28,3.77s-2.33.7-3.31,1A17.48,17.48,0,0,0,448,81a32.68,32.68,0,0,0-12.33,2.94c-2.39,1.07-2.05,3.58-.62,5.07-2.66,1.56-2.45,6.7,1.3,6.28l.88-.11h0l.05,0a77,77,0,0,0,24.13-7c0,2.81.09,5.61.14,8.42a13.42,13.42,0,0,0-6.67,3.28,3.92,3.92,0,0,0-.47.38,14.55,14.55,0,0,1-5.52,3.48c-4,1.35-2.55,7.63,1.62,6.44a34.65,34.65,0,0,1,10.85-1.35,1.94,1.94,0,0,0,.23.27l.2.21c.07,3.57.16,7.13.25,10.69L453,120a3.35,3.35,0,0,0-1.82,6.15,7.28,7.28,0,0,0,1,.59,97.28,97.28,0,0,0-9.43,2.55,3.27,3.27,0,0,0-2.23,2.37,9.22,9.22,0,0,1-5.69,1,3.34,3.34,0,0,0-3.39,3.24,3.39,3.39,0,0,0,3.24,3.4c.47,0,.93.08,1.4.09a3.33,3.33,0,0,0,4.34,1l.43-.23.16,0,.45.06.47,0a3.31,3.31,0,0,0,3.33-2.81,3.42,3.42,0,0,0-.05-1.23,2.81,2.81,0,0,0,.36-.84,95.74,95.74,0,0,1,16.06-3.55,3.38,3.38,0,0,0,.76-.19q.28,10,.65,19.9c.11,3,.24,6,.36,9a3.57,3.57,0,0,0,.13,3c.07,1.76.13,3.52.21,5.27,0,1,.08,1.9.13,2.85L461.4,171a3.08,3.08,0,0,0-2.26.11,3.6,3.6,0,0,0-4.49-1.59l-7.78,3.17a2.94,2.94,0,0,0-1.47,3.89,50.85,50.85,0,0,1-4,3.49c-4-1.94-8.95-1-13.55,1.14a3.44,3.44,0,0,0-2.37-5.55,11.47,11.47,0,0,1-5.25-2.22,49.87,49.87,0,0,1-1.45-8.15c-.39-4.36.13-9-1.27-13.17-1.13-3.42-4.87-8.08-8.6-4.38a4.71,4.71,0,0,0-1,1.54c0-.83.05-1.65,0-2.48q1-16.44.94-32.93a2.3,2.3,0,0,0-4.6-.1l-.06.85a2.12,2.12,0,0,0-1.11-.71,11.17,11.17,0,0,1-1.43-.4,3.2,3.2,0,0,0,.17-.87,15.62,15.62,0,0,0-2.61-9.26c.13-1.62.2-3.25.17-4.86-.07-4.53-1.37-9.13-5.51-11.54-3.17-1.86-6.19,2.06-4.62,4.57-.09.88-.15,1.77-.17,2.65,0,.47-.07.93-.1,1.4l0-.43c0-.1,0-.2,0-.31L388.79,93c-.24-2.9-4.79-3.08-4.6-.1q.21,3.16.48,6.33c-1.24-1.35-4-.94-4,1.4,0,3.37,0,6.74,0,10.12q0,1.41-.06,2.82c-.15-2.4-.25-4.81-.34-7.21a2.3,2.3,0,0,0-4.59-.11l-2.42,20-.81,6.79a2.56,2.56,0,0,0-.56.61l-3.75,5.74a2.42,2.42,0,0,0,.76,3.17l-.12.61a2.22,2.22,0,0,0-1.43.63,4.44,4.44,0,0,0-1.42,3.13,1.81,1.81,0,0,0-.65.3l-1,.7a2.6,2.6,0,0,0-.72-1,4.26,4.26,0,0,0,2.13-3.6,2.2,2.2,0,0,0-2.28-2.27,2.11,2.11,0,0,0,.58-1.45,2.17,2.17,0,0,0-.1-.62,2.17,2.17,0,0,0,.84-.86,13.16,13.16,0,0,1,3.77-4.29,2.35,2.35,0,0,0,.9-3.12,2.49,2.49,0,0,0-2.21-1.2,4,4,0,0,0-.63-.37,2.09,2.09,0,0,1-1-2.09c.32-1.54-1-3.54-2.76-2.89a7.49,7.49,0,0,0-5,5.39,2.35,2.35,0,0,0,1.54,2.86,2.32,2.32,0,0,0,2.81-1.41,7.25,7.25,0,0,0,1.2,1.34,17.53,17.53,0,0,0-2.52,3.37c-.05.09-.09.18-.13.27a.09.09,0,0,0,0-.05,2.33,2.33,0,0,0-2.79-1.67l-2.06.63a2.34,2.34,0,0,0-1.66,2.79,2.32,2.32,0,0,0,2.78,1.67l1.34-.41a4,4,0,0,0-.78,3.24s0,0,0,.05a5.92,5.92,0,0,0-2.18,0,5.62,5.62,0,0,0-1.57.63,7.72,7.72,0,0,0-.17-3.06,7,7,0,0,0-.49-1.3,2.52,2.52,0,0,0,.74-1.61,5.38,5.38,0,0,1,1.15-2.89,2.3,2.3,0,0,0-.52-3,2,2,0,0,0,.22-.92l.08-3.4a2.3,2.3,0,1,0-4.59-.11l-.08,3.4a2.38,2.38,0,0,0,.83,1.81,9.28,9.28,0,0,0-1.37,3,5.3,5.3,0,0,1-1-.91c-.94-1.18-.51-1.31-.15-2.44.45-1.41,1-2.59-.31-3.79a2.71,2.71,0,0,0-3.82.24,2.46,2.46,0,0,0-.53,2.55,4.09,4.09,0,0,0-.53,1.13,5.48,5.48,0,0,0,.32,2.89c.89,2.34,2.83,3.25,4.53,4.88s1.3,4.29-.42,6a8.38,8.38,0,0,1-3.53,1.91l1.21-2c1.58-2.56-2.17-4.74-3.91-2.41a.75.75,0,0,1-1,0,2.34,2.34,0,0,0-2.3-1.12,42.29,42.29,0,0,0-1.32-9.21,2.12,2.12,0,0,0-1.86-1.65c-.05-.14-.09-.28-.14-.42-1-2.75-5.47-1.66-4.46,1.12a7,7,0,0,1,.16,4.95c-.48,1.33-1.37,2.4-1.58,3.83s.28,2.32.65,3.6a3.93,3.93,0,0,1,.17,1.16,1.9,1.9,0,0,0-1.72,1.1,18.77,18.77,0,0,1-1,1.65c-.06-1.54-.12-3.08-.19-4.61a2.32,2.32,0,0,0-2.85-2.29,4.71,4.71,0,0,0-2.32,1.41,33.82,33.82,0,0,0-1.13-3.35,13.28,13.28,0,0,0,1.22-2.74c.74-2.41-2.7-4.07-4.08-2a2.3,2.3,0,0,0-2.87.88l-.06.09a2.52,2.52,0,0,0-2.06.59A128.47,128.47,0,0,0,306.59,122a2.2,2.2,0,0,0-1-1l-.44-.89c.41-.88.79-1.77,1.13-2.69a9.52,9.52,0,0,0,6.58-.74h0a2.29,2.29,0,0,0,2.32.06c3.1-2.21,6.61-6.11,3.63-10-1.24-1.61-3.24-2-5.4-1.82l1.61-2.4c1.77,1.11,4.56-.83,3.26-3a1.31,1.31,0,0,1-.26-1.42c1.18-2.63-2.22-4.94-3.92-2.41l-2.26,3.37a2.49,2.49,0,0,0-1.61-1.54,40.5,40.5,0,0,0-1.92-5.45,2.65,2.65,0,0,0,.52-2l.23,0a2.42,2.42,0,0,0,.87-.32,2.08,2.08,0,0,0,.5.07,1.7,1.7,0,0,0,.89-.18,1.61,1.61,0,0,0,.75-.45,2.34,2.34,0,0,0,.71-1.61,2.38,2.38,0,0,0-.64-1.64l-.66-.7a2.34,2.34,0,0,0-1.61-.71,1.7,1.7,0,0,0-.89.18,1.63,1.63,0,0,0-.75.46,2.25,2.25,0,0,0-.35.45c-2.12.33-4.23.72-6.33,1.14l-.11-.06L298.43,85a2.19,2.19,0,0,0-1.11-.29,2.21,2.21,0,0,0-1.15-3.49c-.51-.14-1.05-.25-1.59-.35l0-.08a2.5,2.5,0,0,0-.29-1.88,2,2,0,0,0-1.47-2.69,9.29,9.29,0,0,0-5.85.61c-1.14.47-3.4,2-5,1.78.89-2.19,3.62-3.37,5.67-4.24,2.63-1.11,5.14-2.17,7.19-4.22a2.32,2.32,0,0,0-.92-3.86,12.74,12.74,0,0,0-13.43,3.85,2.36,2.36,0,0,0-.41,2.42,14.41,14.41,0,0,0-3.74,2.83l-3.12-.79c.93-.94,3-2.59,3.28-3a4.6,4.6,0,0,0,.5-5.14,2.47,2.47,0,0,0-.47-.61c1.54-1.73-.5-4.92-2.81-3.54-2.63,1.56-2.58,3.92-3.19,6.61-.42,1.87-1.44,2.38-3.22,2.86a9.79,9.79,0,0,1-2.28.44,2.77,2.77,0,0,1-1.45-.19V72a2.31,2.31,0,0,0,.6-3.59c-1.35-1.64-3-3.17-5.3-3a4.56,4.56,0,0,0-2.75,1.1,4.61,4.61,0,0,0-4.8,2.92,2.23,2.23,0,0,0,.54,2.25,16.25,16.25,0,0,1,4,5.8c-1.05.34-2.07.72-3.1,1.12a9.41,9.41,0,0,0-3.46.1c.34-1.69-1.61-3.68-3.39-2.55-.91.57-1.82,1.14-2.72,1.72a8.35,8.35,0,0,1-2.61.59,2.42,2.42,0,0,0-2.25,2.6,2.17,2.17,0,0,0-.56,1.51l-.91.44c.38-2.37-2.67-3.62-4-2.16a5.6,5.6,0,0,1,.23-1.52,22.89,22.89,0,0,0,.54-2.86,5.77,5.77,0,0,0-1.25-4.22A4.6,4.6,0,0,0,230,70.77c-.05-.3-.11-.6-.19-.91a2.32,2.32,0,0,0-3.34-1.45,21.41,21.41,0,0,0-4.09,2.86c-3.13,1.22-5.07,4.72-5.77,7.88l-.06.29a21.46,21.46,0,0,0-1.63,9.48,2.34,2.34,0,0,0,1.43,2.13c0,.1,0,.2.05.3a42.5,42.5,0,0,0-3.86,8.82,2.06,2.06,0,0,0,.05,1.37c-.5,1.27-1,2.52-1.58,3.77l-.45.25c-.09-.23-.18-.46-.28-.69-.73-1.81-2.87-1.37-3.83-.11a2.39,2.39,0,0,0-3.55-.76c-1.09-.7-1.75-1.36-1.47-1.87a2.84,2.84,0,0,0-4-3.52,2.27,2.27,0,0,0-2.16-2.46,6.69,6.69,0,0,0-6,3,3,3,0,0,0-1.15,1.4,29.67,29.67,0,0,0-1.31,3.63,23.69,23.69,0,0,0-5.63,3.47,2.23,2.23,0,0,0-.64,2.22,16.87,16.87,0,0,0,5.78,7.61l-.43,1.56a10.83,10.83,0,0,0-1.73,6.48,23.82,23.82,0,0,0-6.45,1.78c-2.26,1-1,4.13,1.06,4.31a4.61,4.61,0,0,1,3.36,1.88,2.36,2.36,0,0,0,3.12.89,2.31,2.31,0,0,0,.9-3.12,11.61,11.61,0,0,0-1-1.25c.38,0,.77-.06,1.16-.07,1.64.56,3.76-.55,3-2.55a1.87,1.87,0,0,1-.07-.22,2.7,2.7,0,0,0-.19-.63,6.46,6.46,0,0,1,.38-4.43,2.51,2.51,0,0,0,.68-.94l.12-.29a6.11,6.11,0,0,1,.56-.58,3.88,3.88,0,0,0,.71-.15,13.57,13.57,0,0,1,.31,2c-.37,1.42-.75,2.85-1.14,4.27a2.24,2.24,0,0,0-.06.92,8.48,8.48,0,0,1-.86,1.08c-2,2.14,1.14,5.48,3.18,3.32l.4-.45a1.8,1.8,0,0,0,.19.2c0,.34,0,.69-.07,1.06a18.24,18.24,0,0,0-.83,2.25,3.4,3.4,0,0,0,1.26,3.56,6.53,6.53,0,0,0,1.48,2.85c1.83,1.89,5.16,1.12,5.79-1.26l.18-.13a24.06,24.06,0,0,0,3.29-3.41,4.19,4.19,0,0,0,1.72.8,16.7,16.7,0,0,0,2.43-.05c.22.79.44,1.58.67,2.37a5.74,5.74,0,0,0-1.29,2.16c-.79.89-1.61,1.69-1.94,2.16a8.77,8.77,0,0,0-1.69,4.33,36.82,36.82,0,0,0-4.3.52c-2.8.5-1.87,4.63.79,4.49a2,2,0,0,0,1.81.91c3.14-.09,6-1.1,8.95-2a16.49,16.49,0,0,1,3-.68,2.48,2.48,0,0,0,1.27,0c.25,0,.49,0,.73.08a2.35,2.35,0,0,0,3.42,1.81l.2-.11,0,0a9.47,9.47,0,0,0,7.32,1.83l18.94,17.42q-11.35.34-22.69.74a355.16,355.16,0,0,0-66.4,2,5.88,5.88,0,0,0-.07-2.25,6.79,6.79,0,0,0-3.92-4.44,6.65,6.65,0,0,0-.5-.86c.16-.42.31-.85.47-1.27.74-2-1.45-3.26-3.11-2.74l.17-3.48a2.31,2.31,0,0,0-4.25-1.26,13.62,13.62,0,0,1-4.24,4.4l-.36-5.78a2.3,2.3,0,0,0-4.6-.1,6.84,6.84,0,0,1-4.51,5.63,1.77,1.77,0,0,0-1.7-.67,4.56,4.56,0,0,0-3.64,2h0a9.71,9.71,0,0,0-1.23-4.41c-.83-1.68-2.38-3.4-1.79-5.39.64-2.15-2.15-4-3.78-2.32a14,14,0,0,0-2.5,3.35,1.79,1.79,0,0,0-1.49.7,9.09,9.09,0,0,0-2.34,5v0a16,16,0,0,1-1.23-3.75,2.22,2.22,0,0,0-3.55-1.24c-.92-1.5-1.84-3-2.77-4.51-1.29-2.11-5.12-.91-4.24,1.67A12.51,12.51,0,0,1,103,159l-.87.24a2.24,2.24,0,0,0-2.31-.07,22.46,22.46,0,0,0-3.49,2.17,10.36,10.36,0,0,0-3-4.89,3.49,3.49,0,0,0-1.92-.95l-.59-.29a48.87,48.87,0,0,0-3.27-6.81c-1-1.68-3.78-2.5-5.19-.79a87.27,87.27,0,0,0-6.53,8.64,11.11,11.11,0,0,0-2,2.35,6.6,6.6,0,0,0-1.09-.46A2.14,2.14,0,0,0,70,159.48,3.92,3.92,0,0,0,68,159a5.12,5.12,0,0,0-3.5,1.7,10.62,10.62,0,0,0-1.16,1.53l-.7,1.13-.18.18a2,2,0,0,0-1-1.28l-5.2-2.85c-1.66-.91-4,.49-3.44,2.52,1,3.17-3,4.67-5.27,5.65a2.31,2.31,0,0,0-1.12,2.57c0,.08,0,.18.07.29l-.77.68c-.32-1.09.19-2.63.43-3.6.53-2.15-2.08-4-3.79-2.32a5.28,5.28,0,0,0-1.71,4,11.44,11.44,0,0,1-4.53,1.14h-.93v0l-.62.05-.37.08A23.4,23.4,0,0,0,29,168.66a1.81,1.81,0,0,0-1.62-1.85l-.29-.06a1.77,1.77,0,0,0-1.8-.78,4,4,0,0,1-3.73-1.24c-1-1.16-.87-2.83-1.74-4.09a5.39,5.39,0,0,0-3-2c-.38-.12-3.84-.45-3.82-1a2.32,2.32,0,0,0-3.41-2.06l-8.14,4.21a12,12,0,0,0-1.39.48V291.62H2029.52V146.07A12.47,12.47,0,0,0,2027.84,146.9ZM911.25,148.48a1.92,1.92,0,0,1-.08,1.82C911.21,149.69,911.23,149.09,911.25,148.48ZM194.56,104.7a7.08,7.08,0,0,0-.78-3.61,2.35,2.35,0,0,1,1.35-.34,2.11,2.11,0,0,0,1.21-.27C195.75,101.89,195.15,103.29,194.56,104.7Zm13,28.25c-.14-.09-.09-.51,0-.93l.18.83C207.57,132.89,207.49,132.93,207.52,133Zm1.66,15.19a4.28,4.28,0,0,1,.68-1.59,2.39,2.39,0,0,0,1.8-.37c.13.36.27.72.41,1.07C211.1,147.51,210.14,147.82,209.18,148.14Zm12.39-.51c0-.16,0-.32,0-.48l.32.39Zm8.53-62c0-.2,0-.4,0-.6a3.91,3.91,0,0,0,.6.4ZM121.17,161.86c0-.14,0-.27,0-.41s0-.46.07-.68c.23.42.48.89.7,1.38A4.38,4.38,0,0,0,121.17,161.86Zm132-6.93q-1.11,7.65-2.2,15.3-7.62-7-15.26-14l1-.27a2.09,2.09,0,0,0,.41.17,10.17,10.17,0,0,0,7-.51,11.48,11.48,0,0,0,3.43,3.55,2.31,2.31,0,0,0,3.5-1.9c0-1.14-.13-2.26-.28-3.37a9.35,9.35,0,0,0,3.17-.38A2.52,2.52,0,0,0,253.19,154.93Zm4.34-1.19a.14.14,0,0,0,0,.08,2.69,2.69,0,0,0-.29-.41c.32-.16.64-.33.95-.51Zm.83,18.39A40,40,0,0,0,259,166a3.62,3.62,0,0,0,2.76.13,3,3,0,0,0,2.07-2.87c0-1.09-.56-1.4-1.22-2.14a8.47,8.47,0,0,1-1.2-1.64,132.18,132.18,0,0,0,11.82-11.12l.16.24a24,24,0,0,0-1.61,8.26,8,8,0,0,0,.27,2.33,3.33,3.33,0,0,0-2.78,4.85,18.46,18.46,0,0,0,2.57,4.07,5.52,5.52,0,0,0,.28.84,5.16,5.16,0,0,0,2.94,2.81Q266.71,171.9,258.36,172.13Zm79.74-23.78a2.59,2.59,0,0,0-1.74.49l-.31.25a12.62,12.62,0,0,0-1.62.35,2.7,2.7,0,0,0-.7-.69,12.53,12.53,0,0,0,.56-2.08c0-.13,0-.26,0-.39a1.7,1.7,0,0,0,.89.5,5.56,5.56,0,0,0,2.88-.07,6.79,6.79,0,0,0,.75.41Zm47.21-38.78c0-1.13,0-2.26,0-3.39.07.64.13,1.27.2,1.91s.15,1.24.22,1.86A2,2,0,0,0,385.31,109.57Zm82.21-84.82a2.73,2.73,0,0,0-.25-.23c.2-.79.36-1.6.5-2.42a3.68,3.68,0,0,0,1.19.73,3.24,3.24,0,0,0,.27,1,3.16,3.16,0,0,0-1.56.8Zm18.82,138.52c-.47.34-.93.68-1.39,1s-.89.58-1.35.84a2.9,2.9,0,0,0-4.23-1.06,8.43,8.43,0,0,0-4,5.46,3.3,3.3,0,0,0-.08.75,15.7,15.7,0,0,0-4.79.58c0-.63-.08-1.25-.11-1.88l-.18-4.55,1.88-.52a3.21,3.21,0,0,0,.52-.11l8.21-2.5,3.86-1.17a12,12,0,0,0,1.82-.55l.1,0a2.68,2.68,0,0,0,1.61,1.72A3.49,3.49,0,0,0,486.34,163.27Zm8.85-24.72s0,.08,0,.12l-.24.25a3.36,3.36,0,0,0-.9,2.34c-.28.3-.56.59-.86.87a19.9,19.9,0,0,1-3.49,2.82,3.33,3.33,0,0,0-4.73.84,4.09,4.09,0,0,0,.73,5.39l-1.72.89-.69.34a3.26,3.26,0,0,0-2.19-.63,3.46,3.46,0,0,0-3.25,2.37v0q-.89.51-1.83,1a3.38,3.38,0,0,0-3.23.55l-2,1.54-.86.28q-.3-7.73-.56-15.45a6.78,6.78,0,0,0,1.29.83c-1.56,3.91,4.76,5.75,6.38,1.86a1.36,1.36,0,0,1,.64-.5c1.13,0,2.27-.05,3.39-.16a3.59,3.59,0,0,0,2.4.09,3.73,3.73,0,0,0,1.25-.65A35.24,35.24,0,0,0,490,142a3.53,3.53,0,0,0,2.51-3.32l1.57-.84,1.23-.5A2.82,2.82,0,0,0,495.19,138.55Zm32.52,18.63a3.74,3.74,0,0,0,.63.33l2.41,1a2.8,2.8,0,0,0,2.19.08q.66.09,1.35.15a6.21,6.21,0,0,0,.52,3.94h0c-.82-.11-1.65-.17-2.48-.2l-.16-.06a2.91,2.91,0,0,0-2.3-2.94c-1.32-.36-2.64-.74-4-1.13A3.42,3.42,0,0,0,527.71,157.18Zm19.61,18.35c-.47.6-.93,1.21-1.39,1.82A121.79,121.79,0,0,0,529.51,173a3.7,3.7,0,0,0-.73-3.77c.42-.05.83-.08,1.25-.11a9.68,9.68,0,0,0,2.68.42,72.46,72.46,0,0,0,16.94,2.81Zm56.53-32.39c-.92-1-2.2-2.58-1.74-3.92a2.44,2.44,0,0,1,1-1.14,22.41,22.41,0,0,0,2.3,3.1A23.17,23.17,0,0,0,603.85,143.14Zm69.26,39.37a3.12,3.12,0,0,0,.22-1l1.38.46C674.18,182.17,673.64,182.33,673.11,182.51Zm4.33,6.16-.28-.06,1.15-.3Zm202.62-29.53a8.9,8.9,0,0,1-2.48-.61,4.64,4.64,0,0,0-2.47-.23,2,2,0,0,0-2.35-.3,1.33,1.33,0,0,0-.19.14,1.9,1.9,0,0,0-.43-.42q4.11,0,8.22-.28C880.24,158,880.14,158.57,880.06,159.14Zm10-33.27.41-.71c0,.28,0,.56,0,.85A2.3,2.3,0,0,0,890.05,125.87ZM901.16,157c-.2-.38-.41-.76-.62-1.14l1.86-2.72a16.78,16.78,0,0,1,.31,2.74C902.2,156.29,901.68,156.66,901.16,157Zm5.55-3.69-.2,0c-.09-.57-.2-1.13-.33-1.69l.05-.07.42.42a1.24,1.24,0,0,0,.22.18C906.82,152.58,906.77,153,906.71,153.34Zm.24-6.83c-.59-.62-1.18-1.25-1.77-1.9.67.23,1.36.44,2,.68ZM916.42,168l-.33-.05a2.38,2.38,0,0,0-1.07-.82l-2-.74a2,2,0,0,0,.64-.85,24,24,0,0,1,6.21.09A29.61,29.61,0,0,0,916.42,168Zm10.71-53.83h0c-.18-.2.1-.54.58-.91Zm18-.21c0-.26,0-.53,0-.79.41.26.82.51,1.25.74,0,.43.08.86.1,1.29A2.27,2.27,0,0,0,945.13,113.93Zm5.4,20.07a5.11,5.11,0,0,1,2.53.32,1.73,1.73,0,0,0-1.13.56c-.46.51-.92,1-1.37,1.54a1.74,1.74,0,0,0-.26-1.77C950.38,134.43,950.46,134.22,950.53,134Zm1.11,10.66a2,2,0,0,0,1.06,1.71l-3,1.62Q950.72,146.36,951.64,144.66Zm55.55,31.55a4.86,4.86,0,0,0-2.11-2.48c1-.78,1.93-.81,3.19.37a12.43,12.43,0,0,1,1.87,2.31A5.34,5.34,0,0,0,1007.19,176.21Zm29-34.24c-.18-.53-.39-1.05-.62-1.56a5.33,5.33,0,0,0,.89,1Zm17.33-14.15a8.47,8.47,0,0,1,3.51.14A31.5,31.5,0,0,0,1053.49,127.82ZM1618,115.87a5.27,5.27,0,0,1-.86.63,2.62,2.62,0,0,1-2.16.63,2.79,2.79,0,0,1-1.24-.53,2.63,2.63,0,0,1-1.13-.7,3.1,3.1,0,0,1-.65-1.16,2.66,2.66,0,0,1,.42-2.15,3,3,0,0,1,.8-1.81,2.45,2.45,0,0,1,1.51-.68,2.55,2.55,0,0,1,1,.09,3.66,3.66,0,0,1,2.21,1,3.55,3.55,0,0,1,.94,1.73A3.15,3.15,0,0,1,1618,115.87Zm9-5.35a6,6,0,0,1,.6-1.19l0,0v0a2.76,2.76,0,0,1,.7-.86,3.13,3.13,0,0,1,1.46-1,2.72,2.72,0,0,1,2.62.77,2.92,2.92,0,0,1,.44.59,2.67,2.67,0,0,1,.68,3.46,2.33,2.33,0,0,1-1.23,1,2.61,2.61,0,0,1-4.9-.46A2.5,2.5,0,0,1,1627,110.52Zm-2.15,93.53q.63-8,1.25-15.91l.48-6c.05-.72-.19-2.47.24-3.05s3.27-.54,4-.59a39.83,39.83,0,0,1,4.23-.11c2.41.07,5.06.44,7,2.09,2.16,1.89,3,5,3.83,7.68a67.45,67.45,0,0,1,2.89,16.57Q1636.8,204.32,1624.89,204.05Zm115.87-2.89.2-.13.12.13Zm6.82-21.9a2.47,2.47,0,0,1,0,.38l0,.24a4.6,4.6,0,0,1-.62,1.21,2.14,2.14,0,0,1-.1.22,3.7,3.7,0,0,1-1.39,1.33,2.69,2.69,0,0,1-3.15-.4,2.61,2.61,0,0,1-.73-2.2,2.16,2.16,0,0,1,0-.44,8.6,8.6,0,0,1,0-1,2.64,2.64,0,0,1,2.6-2.6,2.43,2.43,0,0,1,1.83.77,2.37,2.37,0,0,1,.36.17l0,0a2.42,2.42,0,0,1,1,1c.06.11.11.23.16.34a1,1,0,0,1,.06.16l0,0s0,0,0,0a2.06,2.06,0,0,1,.08.66Zm9.51,9.49-.28,0a2.67,2.67,0,0,1-.93,0,2.66,2.66,0,0,1-2.81-3.31,2.46,2.46,0,0,1,.25-.55,2.55,2.55,0,0,1,.32-1,2.72,2.72,0,0,1,2.3-1.3h.12a2.52,2.52,0,0,1,.48-.05,2.7,2.7,0,0,1,1.84.76,2.52,2.52,0,0,1,.65,1.1,2.73,2.73,0,0,1,.67,1.69A2.62,2.62,0,0,1,1757.09,188.75Zm206.38-22.55c0-.32.07-.64.1-1a9.3,9.3,0,0,0,.43.9Zm28.28-32.7a5,5,0,0,0-.78-1.3l.21-.09a1.34,1.34,0,0,0,.24-.09,2.36,2.36,0,0,0,.33.45l.66.7.18.15A2.43,2.43,0,0,0,1991.75,133.5Z"/></g></g></svg>