<svg xmlns="http://www.w3.org/2000/svg" xmlns:xlink="http://www.w3.org/1999/xlink" viewBox="0 0 1365 1113.88"><defs><style>.cls-1{fill:#fff;}.cls-2{fill:url(#linear-gradient);}.cls-3{fill:url(#linear-gradient-2);}.cls-4{fill:url(#linear-gradient-3);}.cls-5{fill:#e4e0d4;}</style><linearGradient id="linear-gradient" x1="682.5" y1="1113.88" x2="682.5" y2="56.89" gradientUnits="userSpaceOnUse"><stop offset="0.82" stop-color="#e4e0d4"/><stop offset="1" stop-color="#d0c8be"/></linearGradient><linearGradient id="linear-gradient-2" x1="682.5" y1="573.89" x2="682.5" y2="272.09" gradientUnits="userSpaceOnUse"><stop offset="0" stop-color="#e4e0d4"/><stop offset="1" stop-color="#dad6cb"/></linearGradient><linearGradient id="linear-gradient-3" y1="940.89" y2="632.83" xlink:href="#linear-gradient-2"/></defs><g id="Layer_2" data-name="Layer 2"><g id="Layer_2-2" data-name="Layer 2"><rect class="cls-1" width="1365" height="179"/><path class="cls-2" d="M1365,111.87v962.31c-5.69.72-10.94,2.33-16.82,1.77a28,28,0,0,1-16.44-7.32c-3.35-3.07-7.61-7.85-9-12-.07-.22-.54-.69-.68-1-.88.17-2.26.52-2.26.53a64.88,64.88,0,0,1-10.61,1.17,61.67,61.67,0,0,1-17.09-2.13,66.43,66.43,0,0,1-29.94-17.44,90.28,90.28,0,0,1-10.09-12.45c-22.86-.68-45.72-2.21-68.39-3.65l-8.25-.51c-.18,15.16-1.32,30.31-3,45.41-1.5,13.47-.84,31.93-14.11,41.62-13.52,9.88-34.21,6.74-39.21-8.67-2.19-6.72-1.45-14.11-1.44-21l0-25.11q0-17.37,0-34.73-5.17-.08-10.35-.08,0,20.75,0,41.49c0,7.72,0,15.45,0,23.17,0,6.64-.91,13.68-7.13,18.37s-15.62,4.69-23.56,3.53c-8.6-1.25-14.67-6.25-15.58-13.66-.94-7.68-.53-15.62-.64-23.34s-.19-15.49-.2-23.23q0-12,.11-23.9c-14.82,1.59-29.51,3.95-44.27,7a109.57,109.57,0,0,1-44.76.25c-14.79-2.92-29.22-6.89-44.1-9.56-19.87-3.57-40-6-60.13-8.12-11.85-.19-23.71-.17-35.54,0-34.21.35-68.43,1.51-102.63.56-35.08-1-69.72-5.08-104.23-10.28q-14.09-2.11-28.13-4.29-44.73-.14-89.45,1.17a39.74,39.74,0,0,1-15.06,5.63c-9,1.3-17.77.38-26.59-1-2.28,23.26-30,42.84-58.28,38.13a8.28,8.28,0,0,1-3.48-1.45c-6.06,6.6-14.39,11.42-23.87,14.14-12.14,3.46-24.24,2.06-35.87-1.92-4.55-1.56-10.25-4.23-15.29-3-3.49.84-6.08,3.33-8.47,5.51-7.25,6.64-13.59,12.79-23.73,16.33s-20.83,4.2-31.49,5.38c-8.47.94-17.91,2.12-24.8,6.76-4.8,3.24-8.58,7.36-13.6,10.41a34.05,34.05,0,0,1-14.53,4.63,39.7,39.7,0,0,1-19-3q-1.27,2.93-2.41,5.91c-1.68,4.37-6.48,6.49-11.69,5.6-8.83-1.49-14.92-8.82-15-16.25a15.31,15.31,0,0,1,1.64-7,13.69,13.69,0,0,1-5.22-4.28c-5.21-7.26-.14-15.57,8.08-19.21,1.5-.66,3.11-1.1,4.63-1.72l.39-.15c-1.43-.53-3.64-1.31-4-1.38-3.2-.58-6.2-1-9.09-1.51a73.13,73.13,0,0,0-13.91,5.2c-12.76,6.26-27,13.41-42.2,8.71-3.45-1.07-7-3.08-10.63-3.65-2.17-.35-2.92.15-4.9,1.2-5.58,2.93-10.48,6.39-17.43,6.47-8.38.11-13.05-5.48-19.53-8.86a53.28,53.28,0,0,0-17.63-5.21c-11.21-1.51-22.91-.63-34.21.69V96.6c5.75-.69,11.05-2.34,17-1.78a28,28,0,0,1,16.44,7.32c3.35,3.08,7.61,7.85,9,12,.07.22.54.68.68,1,.88-.17,2.26-.52,2.26-.53A66,66,0,0,1,56,113.4a61.67,61.67,0,0,1,17.09,2.13A66.43,66.43,0,0,1,103,133a90.36,90.36,0,0,1,10.09,12.46c22.86.67,45.72,2.2,68.39,3.64l8.25.52c.18-15.17,1.32-30.31,3-45.41,1.5-13.48.84-31.94,14.11-41.63,13.52-9.88,34.21-6.74,39.21,8.67,2.19,6.72,1.45,14.11,1.44,21l0,25.11q0,17.37,0,34.73,5.18.07,10.35.08,0-20.74,0-41.49c0-7.72,0-15.45,0-23.17,0-6.64.91-13.68,7.13-18.37,6.37-4.8,15.62-4.69,23.56-3.53,8.6,1.26,14.67,6.25,15.58,13.67.94,7.67.53,15.61.64,23.33s.19,15.49.2,23.23q0,12-.11,23.9c14.82-1.59,29.51-3.94,44.27-7a109.57,109.57,0,0,1,44.76-.25c14.79,2.92,29.22,6.89,44.1,9.57,19.87,3.56,40,6,60.13,8.11,11.85.2,23.71.17,35.54,0,34.21-.35,68.43-1.51,102.63-.55,35.08,1,69.72,5.07,104.23,10.27,9.39,1.41,18.76,2.86,28.13,4.29q44.73.15,89.45-1.16a39.59,39.59,0,0,1,15.06-5.64c9-1.3,17.77-.37,26.59,1,2.28-23.26,30-42.84,58.28-38.12a8.27,8.27,0,0,1,3.48,1.44c6.06-6.6,14.39-11.42,23.87-14.13,12.14-3.47,24.24-2.07,35.87,1.92,4.55,1.55,10.25,4.22,15.29,3,3.49-.83,6.08-3.33,8.47-5.51,7.25-6.64,13.59-12.78,23.73-16.33s20.83-4.2,31.49-5.38c8.47-.94,17.91-2.11,24.8-6.76,4.8-3.23,8.58-7.36,13.6-10.41a34.05,34.05,0,0,1,14.53-4.63,39.7,39.7,0,0,1,19,3q1.27-2.93,2.41-5.91c1.68-4.37,6.48-6.49,11.69-5.6,8.83,1.5,14.92,8.82,15,16.25a15.25,15.25,0,0,1-1.64,7,13.69,13.69,0,0,1,5.22,4.28c5.21,7.27.14,15.58-8.08,19.21-1.5.66-3.11,1.1-4.63,1.72l-.39.15c1.43.53,3.64,1.31,4,1.38,3.2.58,6.2,1,9.09,1.51a73.13,73.13,0,0,0,13.91-5.2c12.76-6.26,27-13.41,42.2-8.71,3.45,1.07,7,3.08,10.63,3.66,2.17.34,2.92-.16,4.9-1.2,5.58-2.94,10.48-6.4,17.43-6.48,8.38-.11,13,5.48,19.53,8.86a53.53,53.53,0,0,0,17.63,5.22C1342.11,114,1353.75,113.17,1365,111.87Z"/><path class="cls-1" d="M1217.13,996.5c-.06.1-.11.19-.18.29l4-.17Z"/><path class="cls-3" d="M1365,336.16V573.89H0V336.77l55.4-5.95h0l8-.85h0q33.84-3.63,68.67-7.31h0l8.13-.86q33.78-3.56,68.31-7.1c2.77-.28,5.52-.57,8.29-.84h0q33.59-3.44,67.72-6.76l8.46-.82h0q33.32-3.22,67-6.31s0,0,0,0l8.57-.77h0q32.93-3,66.07-5.76,4.36-.37,8.73-.72h0q32.44-2.7,65-5.12h0l8.86-.66q31.86-2.34,63.66-4.38l9-.57Q621,280,652,278.41h0l9-.46q30.36-1.54,60.44-2.71l9.06-.34h0q29.45-1.09,58.52-1.77l9-.2h0q28.48-.62,56.52-.78c2.92,0,5.83,0,8.74,0h0q27.4-.11,54.28.25,4.27,0,8.53.13,26.51.4,52.42,1.33l8,.29q25.77,1,50.84,2.5h0l7.28.45q25.21,1.62,49.63,3.8l6.59.59q24.86,2.32,48.78,5.28c2,.24,3.92.48,5.87.74q24.66,3.15,48.2,7l5.26.88q24.56,4.17,47.78,9.2l4.72,1q24.56,5.46,47.45,11.95c1.43.4,2.85.8,4.26,1.22q24.58,7.14,47.06,15.57c1.3.49,2.6,1,3.89,1.49C1364.45,335.94,1364.72,336.05,1365,336.16Z"/><path class="cls-4" d="M1365,703.76V940.89H0v-237q18.56-6.43,37.77-12.22l4.08-1.22Q66.19,683.23,91.52,677L95.87,676q24.47-5.9,49.78-10.89l4.66-.91h0q24.65-4.78,50-8.76l5-.79q24.9-3.82,50.48-6.92l5.47-.65q25.27-3,51.16-5.3h0l5.93-.52q25.77-2.24,52.11-3.84c2.14-.14,4.28-.26,6.42-.38q26.4-1.56,53.3-2.5l6.86-.24q27.15-.88,54.78-1.22c2.39,0,4.79-.06,7.2-.08q28.08-.29,56.6,0c2.5,0,5,0,7.5.07h0q29,.32,58.42,1.16l7.79.22q30,.9,60.34,2.31h0l8,.36h0q30.91,1.45,62.14,3.39h0c2.68.16,5.35.32,8,.5h0q31.81,2,63.88,4.43L840,646h0q32.64,2.52,65.47,5.42,4,.34,8.1.72h0q33.38,3,66.87,6.3l8.06.81q34,3.39,68.07,7.09l8,.87h0q34.54,3.78,69.08,7.79l7.91.93h0q35,4.08,69.86,8.36l7.84,1q35.32,4.34,70.48,8.81l7.73,1Q1331.34,699.39,1365,703.76Z"/><path class="cls-5" d="M212.43,251.82c-.58.16-58.18,16.55-132.94,66.94Q71.68,324,63.4,330h0A697.65,697.65,0,0,0,0,381.54V376a698.67,698.67,0,0,1,55.4-45.17h0q10.88-8,22-15.48c75.26-50.7,133.37-67.22,133.94-67.38Z"/><path class="cls-5" d="M273.48,252.86C272.92,253,217,269,144.15,319.07q-2,1.33-3.94,2.73C99.7,350.11,49.49,392.41,0,452.88v-6.49q10.77-13,22-25.43a695.6,695.6,0,0,1,110-98.3h0q4.95-3.57,10-7C215.37,265.28,271.84,249.17,272.4,249Z"/><path class="cls-5" d="M334.53,253.91c-.52.14-50.8,14.58-117.71,60h0q-4,2.68-8,5.51C150.08,360.58,68.84,433.51,0,553.16v-8A782.07,782.07,0,0,1,89.7,420.9,677,677,0,0,1,206.68,316l1.84-1.28c70.5-49.05,124.38-64.49,124.93-64.64Z"/><path class="cls-5" d="M47.32,595.64l-3.59-1.77c31.83-64.61,70.06-122.82,113.63-173,34.86-40.19,73.21-75.36,114-104.54,69.46-49.74,122.64-65.05,123.17-65.2l1.08,3.85c-.52.15-53.17,15.33-122.09,64.72C209.87,365.26,119,450.13,47.32,595.64Z"/><path class="cls-5" d="M117.51,595.63l-3.6-1.74c31.25-64.74,68.63-123,111.11-173.11,34-40.12,71.33-75.17,110.94-104.16C403.48,267.2,455,252.3,455.54,252.15l1.08,3.85c-.5.14-51.5,14.92-118.48,64C276.33,365.25,187.88,449.83,117.51,595.63Z"/><path class="cls-5" d="M187.71,595.61l-3.62-1.71C214.75,529,251.28,470.77,292.68,420.72c33.14-40.06,69.44-75,107.92-103.78,65.58-49.09,115.49-63.6,116-63.74l1.09,3.85c-.49.14-49.83,14.51-114.86,63.23C342.79,365.26,256.75,449.53,187.71,595.61Z"/><path class="cls-5" d="M257.91,595.6l-3.63-1.68c30.06-65,65.75-123.29,106.06-173.26,32.27-40,67.56-74.79,104.89-103.4,63.65-48.77,111.92-62.88,112.4-63l1.09,3.84c-.47.14-48.16,14.11-111.25,62.5C409.24,365.26,325.62,449.22,257.91,595.6Z"/><path class="cls-5" d="M328.11,595.58l-3.65-1.65C353.94,528.81,388.78,470.49,428,420.6c31.41-39.94,65.68-74.59,101.87-103,61.71-48.46,108.34-62.16,108.8-62.29l1.1,3.84c-.46.13-46.5,13.7-107.63,61.75C475.7,365.26,394.49,448.92,328.11,595.58Z"/><path class="cls-5" d="M398.3,595.57,394.65,594c28.88-65.25,62.87-123.6,101-173.41,30.53-39.87,63.79-74.4,98.84-102.63,59.77-48.13,104.76-61.44,105.21-61.57l1.1,3.85c-.44.13-44.83,13.29-104,61C542.16,365.26,463.36,448.62,398.3,595.57Z"/><path class="cls-5" d="M468.5,595.55,464.83,594c28.3-65.38,61.44-123.74,98.5-173.47,29.67-39.82,61.9-74.22,95.81-102.25,57.84-47.82,101.19-60.72,101.62-60.85l1.11,3.85c-.42.12-43.16,12.88-100.4,60.26C608.61,365.26,532.23,448.32,468.5,595.55Z"/><path class="cls-5" d="M538.7,595.54,535,594c27.71-65.51,60-123.9,96-173.55,28.8-39.75,60-74,92.78-101.86,55.91-47.51,97.62-60,98-60.13l1.12,3.84c-.41.12-41.5,12.48-96.8,59.53C675.07,365.26,601.1,448,538.7,595.54Z"/><path class="cls-5" d="M608.89,595.52,605.2,594c27.12-65.63,58.56-124,93.45-173.61,27.93-39.69,58.13-73.84,89.76-101.49,54-47.18,94-59.28,94.44-59.4l1.13,3.84c-.4.11-39.83,12.07-93.18,58.79C741.52,365.26,670,447.72,608.89,595.52Z"/><path class="cls-5" d="M679.09,595.51l-3.71-1.5c26.53-65.76,57.13-124.2,90.93-173.69,27.07-39.62,56.25-73.64,86.73-101.1,52-46.87,89.29-58.22,90.85-58.68l1.14,3.84c-.38.11-38.16,11.66-89.57,58.05C808,365.27,738.83,447.42,679.09,595.51Z"/><path class="cls-5" d="M749.29,595.49,745.57,594c25.94-65.9,55.68-124.36,88.4-173.76,26.2-39.57,54.36-73.45,83.7-100.72,50.1-46.56,85.77-57.52,87.27-58l1.14,3.83c-.36.11-36.49,11.26-86,57.31C874.43,365.27,807.7,447.13,749.29,595.49Z"/><path class="cls-5" d="M819.48,595.47,815.75,594c25.35-66,54.25-124.5,85.88-173.82C927,380.72,954.11,347,982.3,319.89c48.17-46.25,82.25-56.83,83.68-57.25l1.15,3.83c-.34.1-34.82,10.85-82.34,56.57C940.89,365.28,876.57,446.83,819.48,595.47Z"/><path class="cls-5" d="M889.68,595.46l-3.75-1.4c24.77-66.15,52.82-124.65,83.36-173.9,24.47-39.43,50.59-73.06,77.64-99.94,46.23-45.93,78.73-56.12,80.09-56.53l1.16,3.82c-.32.1-33.15,10.46-78.73,55.85C1007.34,365.29,945.44,446.54,889.68,595.46Z"/><path class="cls-5" d="M1188.65,266.65l-.58-1.91c-.88.26-15.36,4.85-38.39,22a316,316,0,0,0-38.12,33.83c-25.91,26.69-51,60.18-74.6,99.56-26.44,44.11-51.05,95.76-73.29,153.77q-3.82,10-7.55,20.19l3.76,1.37q4-11,8.08-21.56c52.16-135.51,107.82-210.63,146.15-250.21a305,305,0,0,1,41.44-36.21c20.59-14.7,33.42-18.82,33.69-18.91Z"/><path class="cls-5" d="M1030.07,595.43l-3.77-1.34c23.59-66.4,49.94-125,78.32-174,22.72-39.31,46.81-72.67,71.57-99.17,42.35-45.31,71.69-54.73,72.92-55.11l1.18,3.83h0c-.43.13-29.92,9.75-71.52,54.38C1140.24,365.32,1083.17,446,1030.07,595.43Z"/><path class="cls-5" d="M1100.27,595.41l-3.78-1.31c23-66.52,48.49-125.09,75.79-174.09,21.86-39.24,44.92-72.48,68.54-98.78,40.41-45,68.17-54,69.33-54.4l1.19,3.82-.59-1.91.59,1.91c-.27.09-28.15,9.25-67.91,53.66C1206.69,365.34,1152,445.69,1100.27,595.41Z"/><path class="cls-5" d="M1365,270.58v4.56a118.41,118.41,0,0,0-10.79,6.61c-10.27,7-24.38,18.54-41,37q-2.52,2.82-5.13,5.85c-33.24,38.75-82.13,113-130.21,249.25q-3.7,10.51-7.41,21.51l-3.79-1.28q3.48-10.33,7-20.23c48.57-138,98.13-213.2,131.81-252.31q1.77-2.06,3.51-4C1335.26,287.91,1355.38,275.38,1365,270.58Z"/><path class="cls-5" d="M1365,328.23v6.53l-.83,1.09c-31.09,41-73.67,113.49-116.32,238q-3.6,10.5-7.19,21.49l-3.8-1.24q3.38-10.35,6.76-20.25c42.61-124.76,85.26-197.91,116.66-239.53C1361.88,332.24,1363.45,330.19,1365,328.23Z"/><path class="cls-5" d="M1365,441.63v9.66c-15.2,33.8-31.13,74.26-47.17,122.6q-3.48,10.49-7,21.48l-3.81-1.21q3.29-10.35,6.57-20.27C1331.12,521,1348.51,477.43,1365,441.63Z"/><path class="cls-5" d="M1365,756.78v6a718.06,718.06,0,0,0-75.27-68.68c-14.14-11.16-27.62-20.89-40.14-29.33-74.76-50.39-132.37-66.78-132.94-66.94l1.07-3.86c.58.16,58.68,16.68,134,67.38q23.44,15.79,45.79,33.73A715.32,715.32,0,0,1,1365,756.78Z"/><path class="cls-5" d="M1365,839.36v7.07c-51.69-74.15-107.09-126.49-153.59-162.11-9.21-7.06-18.08-13.46-26.49-19.25C1112.11,615,1056.15,599,1055.6,598.86l1.07-3.85c.56.16,57,16.27,130.36,66.65q16.37,11.25,32.22,23.62A703,703,0,0,1,1307,767,757.65,757.65,0,0,1,1365,839.36Z"/><path class="cls-5" d="M1352,941.66c-73-145.22-166.3-230.4-231.69-276.29-70.87-49.73-125.17-65.31-125.71-65.46l1.08-3.85c.54.15,55.37,15.86,126.76,65.92a676.58,676.58,0,0,1,117,104.92c44.65,50.28,83.73,108.48,116.15,173Z"/><path class="cls-5" d="M1281.75,941.64c-71.68-145.51-162.55-230.38-226.16-276C986.67,616.28,934,601.1,933.5,601l1.08-3.85c.53.15,53.71,15.46,123.17,65.2,40.75,29.18,79.1,64.35,114,104.54,43.57,50.21,81.8,108.42,113.63,173Z"/><path class="cls-5" d="M1211.56,941.63C1141.2,795.83,1052.74,711.25,990.93,666c-67-49.06-118-63.84-118.48-64l1.09-3.85c.51.15,52.05,15.05,119.57,64.47,39.62,29,76.94,64,110.94,104.16,42.48,50.13,79.87,108.37,111.11,173.11Z"/><path class="cls-5" d="M1141.36,941.61c-69.09-146.19-155.2-230.49-215.28-275.47-65-48.65-114.19-62.95-114.68-63.09l1.09-3.85c.5.14,50.4,14.64,116,63.74,38.48,28.8,74.79,63.72,107.92,103.78,41.4,50,77.93,108.32,108.59,173.18Z"/><path class="cls-5" d="M1071.16,941.6c-67.71-146.38-151.33-230.34-209.56-275-63.09-48.39-110.78-62.36-111.25-62.5l1.09-3.84c.48.13,48.75,14.24,112.4,63,37.33,28.61,72.62,63.4,104.89,103.4,40.31,50,76,108.26,106.06,173.26Z"/><path class="cls-5" d="M1001,941.58c-66.38-146.66-147.59-230.32-204-274.69-61.13-48-107.17-61.62-107.63-61.75l1.1-3.84c.46.13,47.09,13.83,108.8,62.29,36.19,28.42,70.47,63.07,101.87,103,39.23,49.89,74.06,108.21,103.54,173.33Z"/><path class="cls-5" d="M930.77,941.57C865.65,794.48,786.77,711.09,732.06,667c-59.16-47.64-103.37-60.71-103.81-60.84l1.1-3.85c.45.13,45.44,13.43,105.22,61.57,35,28.23,68.3,62.76,98.84,102.63,38.14,49.81,72.13,108.16,101,173.41Z"/><path class="cls-5" d="M860.57,941.55c-63.73-147.23-140.11-230.29-193-274-57.24-47.39-100-60.15-100.4-60.27l1.11-3.85c.43.13,43.78,13,101.62,60.85,33.91,28,66.15,62.43,95.81,102.25,37.06,49.73,70.2,108.09,98.5,173.47Z"/><path class="cls-5" d="M790.37,941.54C727.91,793.86,653.84,711.06,602.71,667.61c-55.26-47-96.16-59.21-96.56-59.33l1.11-3.84c.42.12,42.13,12.62,98,60.13,32.76,27.84,64,62.11,92.78,101.86,36,49.65,68.27,108,96,173.55Z"/><path class="cls-5" d="M720.18,941.52c-61.07-147.8-132.63-230.26-181.91-273.4-53.35-46.72-92.78-58.68-93.18-58.79l1.13-3.84c.4.12,40.48,12.22,94.44,59.4,31.63,27.65,61.83,61.8,89.76,101.49,34.89,49.56,66.33,108,93.45,173.61Z"/><path class="cls-5" d="M650,941.51C590.16,793.23,520.91,711,473.35,668.2,422,621.92,384.42,610.49,384,610.38l1.14-3.84c1.56.46,38.82,11.81,90.85,58.68,30.48,27.46,59.66,61.48,86.73,101.1,33.8,49.49,64.4,107.93,90.93,173.69Z"/><path class="cls-5" d="M579.78,941.49c-58.49-148.58-125.33-230.47-171.1-273-49.42-45.92-85.33-57-85.69-57.06l1.14-3.83c1.5.44,37.17,11.4,87.27,58,29.34,27.27,57.5,61.16,83.7,100.72,32.72,49.4,62.46,107.86,88.4,173.76Z"/><path class="cls-5" d="M509.59,941.47C452.41,792.6,388,711,344,668.77c-47.47-45.58-81.72-56.2-82.06-56.3l1.15-3.83c1.43.42,35.52,11,83.68,57.25C375,693,402.11,726.72,427.44,766.22,459.07,815.54,488,874,513.32,940Z"/><path class="cls-5" d="M439.39,941.46C383.54,792.28,321.51,711,279.32,669.06c-45.52-45.24-78.11-55.45-78.43-55.55l1.16-3.82c1.36.41,33.86,10.6,80.09,56.53,27.05,26.88,53.17,60.51,77.64,99.94,30.55,49.25,58.59,107.75,83.36,173.9Z"/><path class="cls-5" d="M369.19,941.44C314.66,792,255.05,711,214.64,669.34c-43.58-44.89-74.5-54.69-74.8-54.78l1.16-3.83c1.3.4,32.22,10.2,76.51,55.82,25.91,26.69,51,60.19,74.61,99.56,29.46,49.16,56.66,107.69,80.83,174Z"/><path class="cls-5" d="M299,941.43C245.91,792,188.83,711.32,150.3,670c-41.7-44.73-71.23-54.29-71.52-54.38L80,611.78c1.23.38,30.57,9.8,72.92,55.11,24.76,26.5,48.85,59.86,71.58,99.17,28.37,49.08,54.72,107.63,78.31,174Z"/><path class="cls-5" d="M228.8,941.41C176.92,791.32,122.11,710.92,85.28,669.9,45.59,625.71,18,616.74,17.73,616.65l1.19-3.82c1.16.37,28.92,9.4,69.33,54.4,23.62,26.3,46.68,59.54,68.54,98.78,27.3,49,52.79,107.57,75.79,174.09Z"/><path class="cls-5" d="M162.4,940.12l-2.28.77-1.51.51-.17-.51c-42.81-127.15-86.9-204-120.67-249.22-6.08-8.15-11.83-15.28-17.18-21.49C13.24,661.65,6.34,654.46,0,648.4v-5.52a308.23,308.23,0,0,1,23.62,24.69c5.65,6.57,11.76,14.15,18.23,22.88C75.76,736.19,119.77,813.32,162.4,940.12Z"/><path class="cls-5" d="M92.21,940.14l-2.3.75-1.5.49-.16-.49C57.72,847.58,26.92,781.49,0,735.12v-7.89C27.91,774.16,60.24,842.29,92.21,940.14Z"/><path class="cls-5" d="M22,940.16l-2.3.73-1.52.48-.15-.48Q9,912.39,0,887.23v-11.8Q11,905.39,22,940.16Z"/></g></g></svg>